  0
SECTION
  2
HEADER
  9
$ACADVER
  1
AC1014
  9
$HANDSEED
  5
FFFF
  9
$MEASUREMENT
 70
     1
  0
ENDSEC
  0
SECTION
  2
TABLES
  0
TABLE
  2
VPORT
  5
8
330
0
100
AcDbSymbolTable
 70
     4
  0
VPORT
  5
2E
330
8
100
AcDbSymbolTableRecord
100
AcDbViewportTableRecord
  2
*ACTIVE
 70
     0
 10
0.0
 20
0.0
 11
1.0
 21
1.0
 12
210.0
 22
148.5
 13
0.0
 23
0.0
 14
10.0
 24
10.0
 15
10.0
 25
10.0
 16
0.0
 26
0.0
 36
1.0
 17
0.0
 27
0.0
 37
0.0
 40
341.0
 41
1.24
 42
50.0
 43
0.0
 44
0.0
 50
0.0
 51
0.0
 71
     0
 72
   100
 73
     1
 74
     3
 75
     0
 76
     0
 77
     0
 78
     0
  0
ENDTAB
  0
TABLE
  2
LTYPE
  5
5
330
0
100
AcDbSymbolTable
 70
     1
  0
LTYPE
  5
14
330
5
100
AcDbSymbolTableRecord
100
AcDbLinetypeTableRecord
  2
BYBLOCK
 70
     0
  3

 72
    65
 73
     0
 40
0.0
  0
LTYPE
  5
15
330
5
100
AcDbSymbolTableRecord
100
AcDbLinetypeTableRecord
  2
BYLAYER
 70
     0
  3

 72
    65
 73
     0
 40
0.0
  0
LTYPE
  5
16
330
5
100
AcDbSymbolTableRecord
100
AcDbLinetypeTableRecord
  2
CONTINUOUS
 70
     0
  3
Solid line
 72
    65
 73
     0
 40
0.0
  0
ENDTAB
  0
TABLE
  2
LAYER
  5
2
100
AcDbSymbolTable
 70
3
  0
LAYER
  5
50
100
AcDbSymbolTableRecord
100
AcDbLayerTableRecord
  2
0
 70
0
  6
CONTINUOUS
  0
LAYER
  5
51
100
AcDbSymbolTableRecord
100
AcDbLayerTableRecord
  2
knobs
 70
0
  6
CONTINUOUS
  0
LAYER
  5
52
100
AcDbSymbolTableRecord
100
AcDbLayerTableRecord
  2
pilot_hole_vectors
 70
0
  6
CONTINUOUS
  0
ENDTAB
  0
TABLE
  2
STYLE
  5
3
330
0
100
AcDbSymbolTable
 70
     1
  0
STYLE
  5
11
330
3
100
AcDbSymbolTableRecord
100
AcDbTextStyleTableRecord
  2
STANDARD
 70
     0
 40
0.0
 41
1.0
 50
0.0
 71
     0
 42
2.5
  3
txt
  4

  0
ENDTAB
  0
TABLE
  2
VIEW
  5
6
330
0
100
AcDbSymbolTable
 70
     0
  0
ENDTAB
  0
TABLE
  2
UCS
  5
7
330
0
100
AcDbSymbolTable
 70
     0
  0
ENDTAB
  0
TABLE
  2
APPID
  5
9
330
0
100
AcDbSymbolTable
 70
     2
  0
APPID
  5
12
330
9
100
AcDbSymbolTableRecord
100
AcDbRegAppTableRecord
  2
ACAD
 70
     0
  0
ENDTAB
  0
TABLE
  2
DIMSTYLE
  5
A
330
0
100
AcDbSymbolTable
 70
     1
  0
DIMSTYLE
105
27
330
A
100
AcDbSymbolTableRecord
100
AcDbDimStyleTableRecord
  2
ISO-25
 70
     0
  3

  4

  5

  6

  7

 40
1.0
 41
2.5
 42
0.625
 43
3.75
 44
1.25
 45
0.0
 46
0.0
 47
0.0
 48
0.0
140
2.5
141
2.5
142
0.0
143
0.03937007874016
144
1.0
145
0.0
146
1.0
147
0.625
 71
     0
 72
     0
 73
     0
 74
     0
 75
     0
 76
     0
 77
     1
 78
     8
170
     0
171
     3
172
     1
173
     0
174
     0
175
     0
176
     0
177
     0
178
     0
270
     2
271
     2
272
     2
273
     2
274
     3
340
11
275
     0
280
     0
281
     0
282
     0
283
     0
284
     8
285
     0
286
     0
287
     3
288
     0
  0
ENDTAB
  0
TABLE
  2
BLOCK_RECORD
  5
1
330
0
100
AcDbSymbolTable
 70
     1
  0
BLOCK_RECORD
  5
1F
330
1
100
AcDbSymbolTableRecord
100
AcDbBlockTableRecord
  2
*MODEL_SPACE
  0
BLOCK_RECORD
  5
1B
330
1
100
AcDbSymbolTableRecord
100
AcDbBlockTableRecord
  2
*PAPER_SPACE
  0
ENDTAB
  0
ENDSEC
  0
SECTION
  2
BLOCKS
  0
BLOCK
  5
20
330
1F
100
AcDbEntity
  8
0
100
AcDbBlockBegin
  2
*MODEL_SPACE
 70
     0
 10
0.0
 20
0.0
 30
0.0
  3
*MODEL_SPACE
  1

  0
ENDBLK
  5
21
330
1F
100
AcDbEntity
  8
0
100
AcDbBlockEnd
  0
BLOCK
  5
1C
330
1B
100
AcDbEntity
 67
     1
  8
0
100
AcDbBlockBegin
  2
*PAPER_SPACE
  1

  0
ENDBLK
  5
1D
330
1B
100
AcDbEntity
 67
     1
  8
0
100
AcDbBlockEnd
  0
ENDSEC
  0
SECTION
  2
ENTITIES
  0
SPLINE
  5
100
100
AcDbEntity
  8
knobs
 62
7
100
AcDbSpline
 70
8
 71
3
 72
8
 73
4
 74
0
 40
0
 40
0
 40
0
 40
0
 40
1
 40
1
 40
1
 40
1
 10
192.245232
 20
9.023646
 30
0.0
 10
192.245232
 20
9.749663
 30
0.0
 10
191.655388
 20
10.338096
 30
0.0
 10
190.928666
 20
10.338096
 30
0.0
  0
SPLINE
  5
101
100
AcDbEntity
  8
knobs
 62
7
100
AcDbSpline
 70
8
 71
3
 72
8
 73
4
 74
0
 40
0
 40
0
 40
0
 40
0
 40
1
 40
1
 40
1
 40
1
 10
190.928666
 20
10.338096
 30
0.0
 10
190.200885
 20
10.338096
 30
0.0
 10
189.611041
 20
9.749663
 30
0.0
 10
189.611041
 20
9.023646
 30
0.0
  0
SPLINE
  5
102
100
AcDbEntity
  8
knobs
 62
7
100
AcDbSpline
 70
8
 71
3
 72
8
 73
4
 74
0
 40
0
 40
0
 40
0
 40
0
 40
1
 40
1
 40
1
 40
1
 10
189.611041
 20
9.023646
 30
0.0
 10
189.611041
 20
8.297630
 30
0.0
 10
190.200885
 20
7.709196
 30
0.0
 10
190.928666
 20
7.709196
 30
0.0
  0
SPLINE
  5
103
100
AcDbEntity
  8
knobs
 62
7
100
AcDbSpline
 70
8
 71
3
 72
8
 73
4
 74
0
 40
0
 40
0
 40
0
 40
0
 40
1
 40
1
 40
1
 40
1
 10
190.928666
 20
7.709196
 30
0.0
 10
191.655388
 20
7.709902
 30
0.0
 10
192.245232
 20
8.298335
 30
0.0
 10
192.245232
 20
9.023646
 30
0.0
  0
SPLINE
  5
104
100
AcDbEntity
  8
knobs
 62
7
100
AcDbSpline
 70
8
 71
3
 72
8
 73
4
 74
0
 40
0
 40
0
 40
0
 40
0
 40
1
 40
1
 40
1
 40
1
 10
192.922530
 20
9.023646
 30
0.0
 10
192.922530
 20
10.122196
 30
0.0
 10
192.029650
 20
11.013666
 30
0.0
 10
190.928630
 20
11.013666
 30
0.0
  0
SPLINE
  5
105
100
AcDbEntity
  8
knobs
 62
7
100
AcDbSpline
 70
8
 71
3
 72
8
 73
4
 74
0
 40
0
 40
0
 40
0
 40
0
 40
1
 40
1
 40
1
 40
1
 10
190.928630
 20
11.013666
 30
0.0
 10
189.827611
 20
11.013666
 30
0.0
 10
188.934378
 20
10.122902
 30
0.0
 10
188.934378
 20
9.023646
 30
0.0
  0
SPLINE
  5
106
100
AcDbEntity
  8
knobs
 62
7
100
AcDbSpline
 70
8
 71
3
 72
8
 73
4
 74
0
 40
0
 40
0
 40
0
 40
0
 40
1
 40
1
 40
1
 40
1
 10
188.934378
 20
9.023646
 30
0.0
 10
188.934378
 20
7.925096
 30
0.0
 10
189.827611
 20
7.033980
 30
0.0
 10
190.928630
 20
7.033980
 30
0.0
  0
SPLINE
  5
107
100
AcDbEntity
  8
knobs
 62
7
100
AcDbSpline
 70
8
 71
3
 72
8
 73
4
 74
0
 40
0
 40
0
 40
0
 40
0
 40
1
 40
1
 40
1
 40
1
 10
190.928630
 20
7.033980
 30
0.0
 10
192.029650
 20
7.033980
 30
0.0
 10
192.922530
 20
7.925096
 30
0.0
 10
192.922530
 20
9.023646
 30
0.0
  0
LWPOLYLINE
  5
108
100
AcDbEntity
  8
knobs
 62
7
100
AcDbPolyline
 90
2
 70
1
 10
192.245232
 20
9.023646
 30
0.0
 10
192.245232
 20
9.023646
 30
0.0
  0
SPLINE
  5
109
100
AcDbEntity
  8
knobs
 62
7
100
AcDbSpline
 70
8
 71
3
 72
8
 73
4
 74
0
 40
0
 40
0
 40
0
 40
0
 40
1
 40
1
 40
1
 40
1
 10
14.764426
 20
9.023646
 30
0.0
 10
14.764426
 20
9.749663
 30
0.0
 10
14.174581
 20
10.338096
 30
0.0
 10
13.447153
 20
10.338096
 30
0.0
  0
SPLINE
  5
10a
100
AcDbEntity
  8
knobs
 62
7
100
AcDbSpline
 70
8
 71
3
 72
8
 73
4
 74
0
 40
0
 40
0
 40
0
 40
0
 40
1
 40
1
 40
1
 40
1
 10
13.447153
 20
10.338096
 30
0.0
 10
12.719726
 20
10.338096
 30
0.0
 10
12.130234
 20
9.749663
 30
0.0
 10
12.130234
 20
9.023646
 30
0.0
  0
SPLINE
  5
10b
100
AcDbEntity
  8
knobs
 62
7
100
AcDbSpline
 70
8
 71
3
 72
8
 73
4
 74
0
 40
0
 40
0
 40
0
 40
0
 40
1
 40
1
 40
1
 40
1
 10
12.130234
 20
9.023646
 30
0.0
 10
12.130234
 20
8.297630
 30
0.0
 10
12.720078
 20
7.709196
 30
0.0
 10
13.447153
 20
7.709196
 30
0.0
  0
SPLINE
  5
10c
100
AcDbEntity
  8
knobs
 62
7
100
AcDbSpline
 70
8
 71
3
 72
8
 73
4
 74
0
 40
0
 40
0
 40
0
 40
0
 40
1
 40
1
 40
1
 40
1
 10
13.447153
 20
7.709196
 30
0.0
 10
14.174581
 20
7.709902
 30
0.0
 10
14.764426
 20
8.298335
 30
0.0
 10
14.764426
 20
9.023646
 30
0.0
  0
LWPOLYLINE
  5
10d
100
AcDbEntity
  8
knobs
 62
7
100
AcDbPolyline
 90
2
 70
1
 10
192.922530
 20
9.023646
 30
0.0
 10
192.922530
 20
9.023646
 30
0.0
  0
SPLINE
  5
10e
100
AcDbEntity
  8
knobs
 62
7
100
AcDbSpline
 70
8
 71
3
 72
8
 73
4
 74
0
 40
0
 40
0
 40
0
 40
0
 40
1
 40
1
 40
1
 40
1
 10
15.441406
 20
9.023646
 30
0.0
 10
15.441406
 20
10.122196
 30
0.0
 10
14.548526
 20
11.013666
 30
0.0
 10
13.447153
 20
11.013666
 30
0.0
  0
SPLINE
  5
10f
100
AcDbEntity
  8
knobs
 62
7
100
AcDbSpline
 70
8
 71
3
 72
8
 73
4
 74
0
 40
0
 40
0
 40
0
 40
0
 40
1
 40
1
 40
1
 40
1
 10
13.447153
 20
11.013666
 30
0.0
 10
12.345781
 20
11.013666
 30
0.0
 10
11.453253
 20
10.122902
 30
0.0
 10
11.453253
 20
9.023646
 30
0.0
  0
SPLINE
  5
110
100
AcDbEntity
  8
knobs
 62
7
100
AcDbSpline
 70
8
 71
3
 72
8
 73
4
 74
0
 40
0
 40
0
 40
0
 40
0
 40
1
 40
1
 40
1
 40
1
 10
11.453253
 20
9.023646
 30
0.0
 10
11.453253
 20
7.925096
 30
0.0
 10
12.345781
 20
7.033980
 30
0.0
 10
13.447153
 20
7.033980
 30
0.0
  0
SPLINE
  5
111
100
AcDbEntity
  8
knobs
 62
7
100
AcDbSpline
 70
8
 71
3
 72
8
 73
4
 74
0
 40
0
 40
0
 40
0
 40
0
 40
1
 40
1
 40
1
 40
1
 10
13.447153
 20
7.033980
 30
0.0
 10
14.548526
 20
7.033980
 30
0.0
 10
15.441406
 20
7.925096
 30
0.0
 10
15.441406
 20
9.023646
 30
0.0
  0
LWPOLYLINE
  5
112
100
AcDbEntity
  8
knobs
 62
7
100
AcDbPolyline
 90
2
 70
1
 10
14.764426
 20
9.023646
 30
0.0
 10
14.764426
 20
9.023646
 30
0.0
  0
SPLINE
  5
113
100
AcDbEntity
  8
knobs
 62
7
100
AcDbSpline
 70
8
 71
3
 72
8
 73
4
 74
0
 40
0
 40
0
 40
0
 40
0
 40
1
 40
1
 40
1
 40
1
 10
103.505111
 20
118.455207
 30
0.0
 10
103.505111
 20
119.181224
 30
0.0
 10
102.915267
 20
119.769657
 30
0.0
 10
102.188192
 20
119.769657
 30
0.0
  0
SPLINE
  5
114
100
AcDbEntity
  8
knobs
 62
7
100
AcDbSpline
 70
8
 71
3
 72
8
 73
4
 74
0
 40
0
 40
0
 40
0
 40
0
 40
1
 40
1
 40
1
 40
1
 10
102.188192
 20
119.769657
 30
0.0
 10
101.460764
 20
119.769657
 30
0.0
 10
100.871272
 20
119.181224
 30
0.0
 10
100.871272
 20
118.455207
 30
0.0
  0
SPLINE
  5
115
100
AcDbEntity
  8
knobs
 62
7
100
AcDbSpline
 70
8
 71
3
 72
8
 73
4
 74
0
 40
0
 40
0
 40
0
 40
0
 40
1
 40
1
 40
1
 40
1
 10
100.871272
 20
118.455207
 30
0.0
 10
100.871272
 20
117.729543
 30
0.0
 10
101.461117
 20
117.141110
 30
0.0
 10
102.188192
 20
117.141110
 30
0.0
  0
SPLINE
  5
116
100
AcDbEntity
  8
knobs
 62
7
100
AcDbSpline
 70
8
 71
3
 72
8
 73
4
 74
0
 40
0
 40
0
 40
0
 40
0
 40
1
 40
1
 40
1
 40
1
 10
102.188192
 20
117.141110
 30
0.0
 10
102.915267
 20
117.141463
 30
0.0
 10
103.505111
 20
117.729896
 30
0.0
 10
103.505111
 20
118.455207
 30
0.0
  0
LWPOLYLINE
  5
117
100
AcDbEntity
  8
knobs
 62
7
100
AcDbPolyline
 90
2
 70
1
 10
15.441406
 20
9.023646
 30
0.0
 10
15.441406
 20
9.023646
 30
0.0
  0
SPLINE
  5
118
100
AcDbEntity
  8
knobs
 62
7
100
AcDbSpline
 70
8
 71
3
 72
8
 73
4
 74
0
 40
0
 40
0
 40
0
 40
0
 40
1
 40
1
 40
1
 40
1
 10
104.181704
 20
118.455207
 30
0.0
 10
104.181704
 20
119.554110
 30
0.0
 10
103.288823
 20
120.444874
 30
0.0
 10
102.188156
 20
120.444874
 30
0.0
  0
SPLINE
  5
119
100
AcDbEntity
  8
knobs
 62
7
100
AcDbSpline
 70
8
 71
3
 72
8
 73
4
 74
0
 40
0
 40
0
 40
0
 40
0
 40
1
 40
1
 40
1
 40
1
 10
102.188156
 20
120.444874
 30
0.0
 10
101.086784
 20
120.444874
 30
0.0
 10
100.193904
 20
119.554110
 30
0.0
 10
100.193904
 20
118.455207
 30
0.0
  0
SPLINE
  5
11a
100
AcDbEntity
  8
knobs
 62
7
100
AcDbSpline
 70
8
 71
3
 72
8
 73
4
 74
0
 40
0
 40
0
 40
0
 40
0
 40
1
 40
1
 40
1
 40
1
 10
100.193904
 20
118.455207
 30
0.0
 10
100.193904
 20
117.356304
 30
0.0
 10
101.086784
 20
116.465541
 30
0.0
 10
102.188156
 20
116.465541
 30
0.0
  0
SPLINE
  5
11b
100
AcDbEntity
  8
knobs
 62
7
100
AcDbSpline
 70
8
 71
3
 72
8
 73
4
 74
0
 40
0
 40
0
 40
0
 40
0
 40
1
 40
1
 40
1
 40
1
 10
102.188156
 20
116.465541
 30
0.0
 10
103.288823
 20
116.465541
 30
0.0
 10
104.181704
 20
117.356304
 30
0.0
 10
104.181704
 20
118.455207
 30
0.0
  0
LWPOLYLINE
  5
11c
100
AcDbEntity
  8
knobs
 62
7
100
AcDbPolyline
 90
2
 70
1
 10
103.505111
 20
118.455207
 30
0.0
 10
103.505111
 20
118.455207
 30
0.0
  0
SPLINE
  5
11d
100
AcDbEntity
  8
knobs
 62
7
100
AcDbSpline
 70
8
 71
3
 72
8
 73
4
 74
0
 40
0
 40
0
 40
0
 40
0
 40
1
 40
1
 40
1
 40
1
 10
14.764426
 20
118.455207
 30
0.0
 10
14.764426
 20
119.181224
 30
0.0
 10
14.174581
 20
119.769657
 30
0.0
 10
13.447153
 20
119.769657
 30
0.0
  0
SPLINE
  5
11e
100
AcDbEntity
  8
knobs
 62
7
100
AcDbSpline
 70
8
 71
3
 72
8
 73
4
 74
0
 40
0
 40
0
 40
0
 40
0
 40
1
 40
1
 40
1
 40
1
 10
13.447153
 20
119.769657
 30
0.0
 10
12.719726
 20
119.769657
 30
0.0
 10
12.130234
 20
119.181224
 30
0.0
 10
12.130234
 20
118.455207
 30
0.0
  0
SPLINE
  5
11f
100
AcDbEntity
  8
knobs
 62
7
100
AcDbSpline
 70
8
 71
3
 72
8
 73
4
 74
0
 40
0
 40
0
 40
0
 40
0
 40
1
 40
1
 40
1
 40
1
 10
12.130234
 20
118.455207
 30
0.0
 10
12.130234
 20
117.729543
 30
0.0
 10
12.720078
 20
117.141110
 30
0.0
 10
13.447153
 20
117.141110
 30
0.0
  0
SPLINE
  5
120
100
AcDbEntity
  8
knobs
 62
7
100
AcDbSpline
 70
8
 71
3
 72
8
 73
4
 74
0
 40
0
 40
0
 40
0
 40
0
 40
1
 40
1
 40
1
 40
1
 10
13.447153
 20
117.141110
 30
0.0
 10
14.174581
 20
117.141463
 30
0.0
 10
14.764426
 20
117.729896
 30
0.0
 10
14.764426
 20
118.455207
 30
0.0
  0
LWPOLYLINE
  5
121
100
AcDbEntity
  8
knobs
 62
7
100
AcDbPolyline
 90
2
 70
1
 10
104.181704
 20
118.455207
 30
0.0
 10
104.181704
 20
118.455207
 30
0.0
  0
SPLINE
  5
122
100
AcDbEntity
  8
knobs
 62
7
100
AcDbSpline
 70
8
 71
3
 72
8
 73
4
 74
0
 40
0
 40
0
 40
0
 40
0
 40
1
 40
1
 40
1
 40
1
 10
15.441406
 20
118.455207
 30
0.0
 10
15.441406
 20
119.554110
 30
0.0
 10
14.548526
 20
120.444874
 30
0.0
 10
13.447153
 20
120.444874
 30
0.0
  0
SPLINE
  5
123
100
AcDbEntity
  8
knobs
 62
7
100
AcDbSpline
 70
8
 71
3
 72
8
 73
4
 74
0
 40
0
 40
0
 40
0
 40
0
 40
1
 40
1
 40
1
 40
1
 10
13.447153
 20
120.444874
 30
0.0
 10
12.345781
 20
120.444874
 30
0.0
 10
11.453253
 20
119.554110
 30
0.0
 10
11.453253
 20
118.455207
 30
0.0
  0
SPLINE
  5
124
100
AcDbEntity
  8
knobs
 62
7
100
AcDbSpline
 70
8
 71
3
 72
8
 73
4
 74
0
 40
0
 40
0
 40
0
 40
0
 40
1
 40
1
 40
1
 40
1
 10
11.453253
 20
118.455207
 30
0.0
 10
11.453253
 20
117.356304
 30
0.0
 10
12.345781
 20
116.465541
 30
0.0
 10
13.447153
 20
116.465541
 30
0.0
  0
SPLINE
  5
125
100
AcDbEntity
  8
knobs
 62
7
100
AcDbSpline
 70
8
 71
3
 72
8
 73
4
 74
0
 40
0
 40
0
 40
0
 40
0
 40
1
 40
1
 40
1
 40
1
 10
13.447153
 20
116.465541
 30
0.0
 10
14.548526
 20
116.465541
 30
0.0
 10
15.441406
 20
117.356304
 30
0.0
 10
15.441406
 20
118.455207
 30
0.0
  0
LWPOLYLINE
  5
126
100
AcDbEntity
  8
knobs
 62
7
100
AcDbPolyline
 90
2
 70
1
 10
14.764426
 20
118.455207
 30
0.0
 10
14.764426
 20
118.455207
 30
0.0
  0
SPLINE
  5
127
100
AcDbEntity
  8
knobs
 62
7
100
AcDbSpline
 70
8
 71
3
 72
8
 73
4
 74
0
 40
0
 40
0
 40
0
 40
0
 40
1
 40
1
 40
1
 40
1
 10
103.505111
 20
9.023646
 30
0.0
 10
103.505111
 20
9.749663
 30
0.0
 10
102.915267
 20
10.338096
 30
0.0
 10
102.188192
 20
10.338096
 30
0.0
  0
SPLINE
  5
128
100
AcDbEntity
  8
knobs
 62
7
100
AcDbSpline
 70
8
 71
3
 72
8
 73
4
 74
0
 40
0
 40
0
 40
0
 40
0
 40
1
 40
1
 40
1
 40
1
 10
102.188192
 20
10.338096
 30
0.0
 10
101.460764
 20
10.338096
 30
0.0
 10
100.871272
 20
9.749663
 30
0.0
 10
100.871272
 20
9.023646
 30
0.0
  0
SPLINE
  5
129
100
AcDbEntity
  8
knobs
 62
7
100
AcDbSpline
 70
8
 71
3
 72
8
 73
4
 74
0
 40
0
 40
0
 40
0
 40
0
 40
1
 40
1
 40
1
 40
1
 10
100.871272
 20
9.023646
 30
0.0
 10
100.871272
 20
8.297630
 30
0.0
 10
101.461117
 20
7.709196
 30
0.0
 10
102.188192
 20
7.709196
 30
0.0
  0
SPLINE
  5
12a
100
AcDbEntity
  8
knobs
 62
7
100
AcDbSpline
 70
8
 71
3
 72
8
 73
4
 74
0
 40
0
 40
0
 40
0
 40
0
 40
1
 40
1
 40
1
 40
1
 10
102.188192
 20
7.709196
 30
0.0
 10
102.915267
 20
7.709902
 30
0.0
 10
103.505111
 20
8.298335
 30
0.0
 10
103.505111
 20
9.023646
 30
0.0
  0
LWPOLYLINE
  5
12b
100
AcDbEntity
  8
knobs
 62
7
100
AcDbPolyline
 90
2
 70
1
 10
15.441406
 20
118.455207
 30
0.0
 10
15.441406
 20
118.455207
 30
0.0
  0
SPLINE
  5
12c
100
AcDbEntity
  8
knobs
 62
7
100
AcDbSpline
 70
8
 71
3
 72
8
 73
4
 74
0
 40
0
 40
0
 40
0
 40
0
 40
1
 40
1
 40
1
 40
1
 10
104.181704
 20
9.023646
 30
0.0
 10
104.181704
 20
10.122196
 30
0.0
 10
103.288823
 20
11.013666
 30
0.0
 10
102.188156
 20
11.013666
 30
0.0
  0
SPLINE
  5
12d
100
AcDbEntity
  8
knobs
 62
7
100
AcDbSpline
 70
8
 71
3
 72
8
 73
4
 74
0
 40
0
 40
0
 40
0
 40
0
 40
1
 40
1
 40
1
 40
1
 10
102.188156
 20
11.013666
 30
0.0
 10
101.086784
 20
11.013666
 30
0.0
 10
100.193904
 20
10.122902
 30
0.0
 10
100.193904
 20
9.023646
 30
0.0
  0
SPLINE
  5
12e
100
AcDbEntity
  8
knobs
 62
7
100
AcDbSpline
 70
8
 71
3
 72
8
 73
4
 74
0
 40
0
 40
0
 40
0
 40
0
 40
1
 40
1
 40
1
 40
1
 10
100.193904
 20
9.023646
 30
0.0
 10
100.193904
 20
7.925096
 30
0.0
 10
101.086784
 20
7.033980
 30
0.0
 10
102.188156
 20
7.033980
 30
0.0
  0
SPLINE
  5
12f
100
AcDbEntity
  8
knobs
 62
7
100
AcDbSpline
 70
8
 71
3
 72
8
 73
4
 74
0
 40
0
 40
0
 40
0
 40
0
 40
1
 40
1
 40
1
 40
1
 10
102.188156
 20
7.033980
 30
0.0
 10
103.288823
 20
7.033980
 30
0.0
 10
104.181704
 20
7.925096
 30
0.0
 10
104.181704
 20
9.023646
 30
0.0
  0
LWPOLYLINE
  5
130
100
AcDbEntity
  8
knobs
 62
7
100
AcDbPolyline
 90
2
 70
1
 10
103.505111
 20
9.023646
 30
0.0
 10
103.505111
 20
9.023646
 30
0.0
  0
SPLINE
  5
131
100
AcDbEntity
  8
knobs
 62
7
100
AcDbSpline
 70
8
 71
3
 72
8
 73
4
 74
0
 40
0
 40
0
 40
0
 40
0
 40
1
 40
1
 40
1
 40
1
 10
192.245232
 20
118.455207
 30
0.0
 10
192.245232
 20
119.181224
 30
0.0
 10
191.655388
 20
119.769657
 30
0.0
 10
190.928666
 20
119.769657
 30
0.0
  0
SPLINE
  5
132
100
AcDbEntity
  8
knobs
 62
7
100
AcDbSpline
 70
8
 71
3
 72
8
 73
4
 74
0
 40
0
 40
0
 40
0
 40
0
 40
1
 40
1
 40
1
 40
1
 10
190.928666
 20
119.769657
 30
0.0
 10
190.200885
 20
119.769657
 30
0.0
 10
189.611041
 20
119.181224
 30
0.0
 10
189.611041
 20
118.455207
 30
0.0
  0
SPLINE
  5
133
100
AcDbEntity
  8
knobs
 62
7
100
AcDbSpline
 70
8
 71
3
 72
8
 73
4
 74
0
 40
0
 40
0
 40
0
 40
0
 40
1
 40
1
 40
1
 40
1
 10
189.611041
 20
118.455207
 30
0.0
 10
189.611041
 20
117.729543
 30
0.0
 10
190.200885
 20
117.141110
 30
0.0
 10
190.928666
 20
117.141110
 30
0.0
  0
SPLINE
  5
134
100
AcDbEntity
  8
knobs
 62
7
100
AcDbSpline
 70
8
 71
3
 72
8
 73
4
 74
0
 40
0
 40
0
 40
0
 40
0
 40
1
 40
1
 40
1
 40
1
 10
190.928666
 20
117.141110
 30
0.0
 10
191.655388
 20
117.141463
 30
0.0
 10
192.245232
 20
117.729896
 30
0.0
 10
192.245232
 20
118.455207
 30
0.0
  0
LWPOLYLINE
  5
135
100
AcDbEntity
  8
knobs
 62
7
100
AcDbPolyline
 90
2
 70
1
 10
104.181704
 20
9.023646
 30
0.0
 10
104.181704
 20
9.023646
 30
0.0
  0
SPLINE
  5
136
100
AcDbEntity
  8
knobs
 62
7
100
AcDbSpline
 70
8
 71
3
 72
8
 73
4
 74
0
 40
0
 40
0
 40
0
 40
0
 40
1
 40
1
 40
1
 40
1
 10
192.922530
 20
118.455207
 30
0.0
 10
192.922530
 20
119.554110
 30
0.0
 10
192.029650
 20
120.444874
 30
0.0
 10
190.928630
 20
120.444874
 30
0.0
  0
SPLINE
  5
137
100
AcDbEntity
  8
knobs
 62
7
100
AcDbSpline
 70
8
 71
3
 72
8
 73
4
 74
0
 40
0
 40
0
 40
0
 40
0
 40
1
 40
1
 40
1
 40
1
 10
190.928630
 20
120.444874
 30
0.0
 10
189.827611
 20
120.444874
 30
0.0
 10
188.934378
 20
119.554110
 30
0.0
 10
188.934378
 20
118.455207
 30
0.0
  0
SPLINE
  5
138
100
AcDbEntity
  8
knobs
 62
7
100
AcDbSpline
 70
8
 71
3
 72
8
 73
4
 74
0
 40
0
 40
0
 40
0
 40
0
 40
1
 40
1
 40
1
 40
1
 10
188.934378
 20
118.455207
 30
0.0
 10
188.934378
 20
117.356304
 30
0.0
 10
189.827611
 20
116.465541
 30
0.0
 10
190.928630
 20
116.465541
 30
0.0
  0
SPLINE
  5
139
100
AcDbEntity
  8
knobs
 62
7
100
AcDbSpline
 70
8
 71
3
 72
8
 73
4
 74
0
 40
0
 40
0
 40
0
 40
0
 40
1
 40
1
 40
1
 40
1
 10
190.928630
 20
116.465541
 30
0.0
 10
192.029650
 20
116.465893
 30
0.0
 10
192.922530
 20
117.356304
 30
0.0
 10
192.922530
 20
118.455207
 30
0.0
  0
LWPOLYLINE
  5
13a
100
AcDbEntity
  8
knobs
 62
7
100
AcDbPolyline
 90
2
 70
1
 10
192.245232
 20
118.455207
 30
0.0
 10
192.245232
 20
118.455207
 30
0.0
  0
LWPOLYLINE
  5
13b
100
AcDbEntity
  8
knobs
 62
7
100
AcDbPolyline
 90
2
 70
1
 10
192.922530
 20
118.455207
 30
0.0
 10
192.922530
 20
118.455207
 30
0.0
  0
LWPOLYLINE
  5
13c
100
AcDbEntity
  8
knobs
 62
7
100
AcDbPolyline
 90
25
 70
0
 10
105.541838
 20
8.331532
 30
0.0
 10
105.523141
 20
8.222523
 30
0.0
 10
105.512558
 20
8.113162
 30
0.0
 10
105.510794
 20
8.003448
 30
0.0
 10
105.517144
 20
7.893029
 30
0.0
 10
105.530902
 20
7.783668
 30
0.0
 10
105.552775
 20
7.675718
 30
0.0
 10
105.583466
 20
7.569532
 30
0.0
 10
105.621213
 20
7.466168
 30
0.0
 10
105.666722
 20
7.365979
 30
0.0
 10
105.718933
 20
7.268965
 30
0.0
 10
105.779258
 20
7.176184
 30
0.0
 10
105.845580
 20
7.087990
 30
0.0
 10
105.918605
 20
7.005087
 30
0.0
 10
105.997275
 20
6.927829
 30
0.0
 10
106.081236
 20
6.856921
 30
0.0
 10
106.171194
 20
6.792009
 30
0.0
 10
106.265386
 20
6.733801
 30
0.0
 10
106.363105
 20
6.682648
 30
0.0
 10
106.464352
 20
6.638551
 30
0.0
 10
106.569480
 20
6.603273
 30
0.0
 10
106.676019
 20
6.575051
 30
0.0
 10
106.784675
 20
6.554590
 30
0.0
 10
106.894388
 20
6.542243
 30
0.0
 10
107.005161
 20
6.538009
 30
0.0
  0
LWPOLYLINE
  5
13d
100
AcDbEntity
  8
knobs
 62
7
100
AcDbPolyline
 90
25
 70
0
 10
97.370059
 20
6.538009
 30
0.0
 10
97.480831
 20
6.542243
 30
0.0
 10
97.590192
 20
6.554590
 30
0.0
 10
97.698848
 20
6.574698
 30
0.0
 10
97.805386
 20
6.602921
 30
0.0
 10
97.910161
 20
6.638551
 30
0.0
 10
98.011761
 20
6.681943
 30
0.0
 10
98.109481
 20
6.733448
 30
0.0
 10
98.203673
 20
6.791304
 30
0.0
 10
98.292925
 20
6.856215
 30
0.0
 10
98.377239
 20
6.927476
 30
0.0
 10
98.456261
 20
7.004382
 30
0.0
 10
98.529286
 20
7.087637
 30
0.0
 10
98.595609
 20
7.175479
 30
0.0
 10
98.655228
 20
7.267554
 30
0.0
 10
98.708145
 20
7.364568
 30
0.0
 10
98.753653
 20
7.465109
 30
0.0
 10
98.791753
 20
7.568826
 30
0.0
 10
98.822092
 20
7.675012
 30
0.0
 10
98.844317
 20
7.782962
 30
0.0
 10
98.858428
 20
7.892323
 30
0.0
 10
98.864778
 20
8.002743
 30
0.0
 10
98.862661
 20
8.113162
 30
0.0
 10
98.852431
 20
8.222523
 30
0.0
 10
98.833734
 20
8.331532
 30
0.0
  0
LWPOLYLINE
  5
13e
100
AcDbEntity
  8
knobs
 62
7
100
AcDbPolyline
 90
25
 70
0
 10
16.801329
 20
8.331532
 30
0.0
 10
16.782632
 20
8.222523
 30
0.0
 10
16.772754
 20
8.113162
 30
0.0
 10
16.770285
 20
8.003448
 30
0.0
 10
16.776282
 20
7.893029
 30
0.0
 10
16.790393
 20
7.783668
 30
0.0
 10
16.812618
 20
7.675718
 30
0.0
 10
16.842957
 20
7.569532
 30
0.0
 10
16.880704
 20
7.466168
 30
0.0
 10
16.925860
 20
7.365979
 30
0.0
 10
16.979129
 20
7.268965
 30
0.0
 10
17.038749
 20
7.176184
 30
0.0
 10
17.105424
 20
7.087990
 30
0.0
 10
17.178096
 20
7.005087
 30
0.0
 10
17.256765
 20
6.927829
 30
0.0
 10
17.341079
 20
6.856921
 30
0.0
 10
17.430685
 20
6.792009
 30
0.0
 10
17.524524
 20
6.733801
 30
0.0
 10
17.622596
 20
6.682648
 30
0.0
 10
17.724196
 20
6.638551
 30
0.0
 10
17.828971
 20
6.603273
 30
0.0
 10
17.935510
 20
6.575051
 30
0.0
 10
18.044165
 20
6.554590
 30
0.0
 10
18.154232
 20
6.542243
 30
0.0
 10
18.264651
 20
6.538009
 30
0.0
  0
LWPOLYLINE
  5
13f
100
AcDbEntity
  8
knobs
 62
7
100
AcDbPolyline
 90
25
 70
0
 10
10.955696
 20
13.830596
 30
0.0
 10
10.959929
 20
13.720177
 30
0.0
 10
10.972276
 20
13.610816
 30
0.0
 10
10.992385
 20
13.502513
 30
0.0
 10
11.020607
 20
13.396327
 30
0.0
 10
11.056590
 20
13.291905
 30
0.0
 10
11.100335
 20
13.190657
 30
0.0
 10
11.151487
 20
13.092585
 30
0.0
 10
11.209343
 20
12.999099
 30
0.0
 10
11.274607
 20
12.910199
 30
0.0
 10
11.345868
 20
12.825885
 30
0.0
 10
11.423479
 20
12.746863
 30
0.0
 10
11.506382
 20
12.674191
 30
0.0
 10
11.594223
 20
12.607516
 30
0.0
 10
11.687004
 20
12.548249
 30
0.0
 10
11.784018
 20
12.495332
 30
0.0
 10
11.884912
 20
12.449824
 30
0.0
 10
11.988629
 20
12.412077
 30
0.0
 10
12.095168
 20
12.382091
 30
0.0
 10
12.203118
 20
12.359513
 30
0.0
 10
12.313185
 20
12.345402
 30
0.0
 10
12.423604
 20
12.339405
 30
0.0
 10
12.534023
 20
12.341521
 30
0.0
 10
12.644090
 20
12.351752
 30
0.0
 10
12.753451
 20
12.370449
 30
0.0
  0
LWPOLYLINE
  5
140
100
AcDbEntity
  8
knobs
 62
7
100
AcDbPolyline
 90
25
 70
0
 10
12.753522
 20
115.109145
 30
0.0
 10
12.644161
 20
115.127490
 30
0.0
 10
12.534447
 20
115.137720
 30
0.0
 10
12.424027
 20
115.139837
 30
0.0
 10
12.313961
 20
115.133487
 30
0.0
 10
12.204247
 20
115.119729
 30
0.0
 10
12.095944
 20
115.097504
 30
0.0
 10
11.989405
 20
115.067517
 30
0.0
 10
11.886041
 20
115.029417
 30
0.0
 10
11.785500
 20
114.984615
 30
0.0
 10
11.688133
 20
114.931698
 30
0.0
 10
11.595352
 20
114.871726
 30
0.0
 10
11.507158
 20
114.805756
 30
0.0
 10
11.423902
 20
114.733084
 30
0.0
 10
11.346644
 20
114.654767
 30
0.0
 10
11.275383
 20
114.570806
 30
0.0
 10
11.210119
 20
114.481201
 30
0.0
 10
11.151911
 20
114.387362
 30
0.0
 10
11.100758
 20
114.289642
 30
0.0
 10
11.057013
 20
114.188395
 30
0.0
 10
11.021030
 20
114.083973
 30
0.0
 10
10.992808
 20
113.977081
 30
0.0
 10
10.972347
 20
113.868426
 30
0.0
 10
10.960000
 20
113.759065
 30
0.0
 10
10.955766
 20
113.648645
 30
0.0
  0
LWPOLYLINE
  5
141
100
AcDbEntity
  8
knobs
 62
7
100
AcDbPolyline
 90
25
 70
0
 10
18.264651
 20
120.940844
 30
0.0
 10
18.154232
 20
120.936964
 30
0.0
 10
18.044518
 20
120.924616
 30
0.0
 10
17.935863
 20
120.904508
 30
0.0
 10
17.829324
 20
120.876286
 30
0.0
 10
17.724901
 20
120.840302
 30
0.0
 10
17.623301
 20
120.796911
 30
0.0
 10
17.525229
 20
120.745758
 30
0.0
 10
17.431390
 20
120.687902
 30
0.0
 10
17.342138
 20
120.623344
 30
0.0
 10
17.257824
 20
120.552083
 30
0.0
 10
17.178801
 20
120.474825
 30
0.0
 10
17.105776
 20
120.391922
 30
0.0
 10
17.039101
 20
120.304080
 30
0.0
 10
16.979835
 20
120.211300
 30
0.0
 10
16.926565
 20
120.114639
 30
0.0
 10
16.881057
 20
120.014097
 30
0.0
 10
16.842957
 20
119.910380
 30
0.0
 10
16.812971
 20
119.804194
 30
0.0
 10
16.790393
 20
119.696244
 30
0.0
 10
16.776282
 20
119.586530
 30
0.0
 10
16.770285
 20
119.476464
 30
0.0
 10
16.772401
 20
119.366044
 30
0.0
 10
16.782632
 20
119.256330
 30
0.0
 10
16.801329
 20
119.147675
 30
0.0
  0
LWPOLYLINE
  5
142
100
AcDbEntity
  8
knobs
 62
7
100
AcDbPolyline
 90
25
 70
0
 10
186.110921
 20
6.538009
 30
0.0
 10
186.221340
 20
6.542243
 30
0.0
 10
186.330701
 20
6.554590
 30
0.0
 10
186.439710
 20
6.574698
 30
0.0
 10
186.545543
 20
6.602921
 30
0.0
 10
186.651023
 20
6.638551
 30
0.0
 10
186.752271
 20
6.681943
 30
0.0
 10
186.850343
 20
6.733448
 30
0.0
 10
186.943829
 20
6.791304
 30
0.0
 10
187.033435
 20
6.856215
 30
0.0
 10
187.117748
 20
6.927476
 30
0.0
 10
187.196771
 20
7.004382
 30
0.0
 10
187.269796
 20
7.087637
 30
0.0
 10
187.336118
 20
7.175479
 30
0.0
 10
187.396090
 20
7.267554
 30
0.0
 10
187.449007
 20
7.364568
 30
0.0
 10
187.494515
 20
7.465109
 30
0.0
 10
187.532968
 20
7.568826
 30
0.0
 10
187.562601
 20
7.675012
 30
0.0
 10
187.584826
 20
7.782962
 30
0.0
 10
187.599290
 20
7.892323
 30
0.0
 10
187.605287
 20
8.002743
 30
0.0
 10
187.603171
 20
8.113162
 30
0.0
 10
187.592940
 20
8.222523
 30
0.0
 10
187.574243
 20
8.331532
 30
0.0
  0
LWPOLYLINE
  5
143
100
AcDbEntity
  8
knobs
 62
7
100
AcDbPolyline
 90
25
 70
0
 10
193.419347
 20
113.648610
 30
0.0
 10
193.415114
 20
113.759029
 30
0.0
 10
193.402767
 20
113.868391
 30
0.0
 10
193.383364
 20
113.976693
 30
0.0
 10
193.354436
 20
114.082879
 30
0.0
 10
193.318806
 20
114.187654
 30
0.0
 10
193.274708
 20
114.288902
 30
0.0
 10
193.223556
 20
114.386621
 30
0.0
 10
193.165700
 20
114.480460
 30
0.0
 10
193.101142
 20
114.569360
 30
0.0
 10
193.029528
 20
114.653321
 30
0.0
 10
192.952270
 20
114.732343
 30
0.0
 10
192.868661
 20
114.805015
 30
0.0
 10
192.781172
 20
114.871338
 30
0.0
 10
192.688392
 20
114.930957
 30
0.0
 10
192.591025
 20
114.983874
 30
0.0
 10
192.490483
 20
115.029382
 30
0.0
 10
192.386414
 20
115.067482
 30
0.0
 10
192.280228
 20
115.097468
 30
0.0
 10
192.172278
 20
115.119693
 30
0.0
 10
192.061858
 20
115.133452
 30
0.0
 10
191.951792
 20
115.139802
 30
0.0
 10
191.841372
 20
115.137685
 30
0.0
 10
191.731306
 20
115.127454
 30
0.0
 10
191.621592
 20
115.109110
 30
0.0
  0
LWPOLYLINE
  5
144
100
AcDbEntity
  8
knobs
 62
7
100
AcDbPolyline
 90
25
 70
0
 10
191.621662
 20
12.370555
 30
0.0
 10
191.731376
 20
12.351505
 30
0.0
 10
191.840737
 20
12.341627
 30
0.0
 10
191.951157
 20
12.339511
 30
0.0
 10
192.061223
 20
12.345508
 30
0.0
 10
192.170937
 20
12.359619
 30
0.0
 10
192.279593
 20
12.381491
 30
0.0
 10
192.385779
 20
12.411830
 30
0.0
 10
192.489143
 20
12.449577
 30
0.0
 10
192.589685
 20
12.495086
 30
0.0
 10
192.687051
 20
12.547649
 30
0.0
 10
192.780537
 20
12.606916
 30
0.0
 10
192.868732
 20
12.673591
 30
0.0
 10
192.951635
 20
12.746263
 30
0.0
 10
193.028540
 20
12.824580
 30
0.0
 10
193.100154
 20
12.908541
 30
0.0
 10
193.165065
 20
12.998147
 30
0.0
 10
193.223626
 20
13.091986
 30
0.0
 10
193.274779
 20
13.189705
 30
0.0
 10
193.318171
 20
13.290952
 30
0.0
 10
193.354507
 20
13.395374
 30
0.0
 10
193.382729
 20
13.502619
 30
0.0
 10
193.402837
 20
13.610569
 30
0.0
 10
193.415185
 20
13.720283
 30
0.0
 10
193.419418
 20
13.830702
 30
0.0
  0
LWPOLYLINE
  5
145
100
AcDbEntity
  8
knobs
 62
7
100
AcDbPolyline
 90
25
 70
0
 10
107.005302
 20
120.940844
 30
0.0
 10
106.894882
 20
120.936964
 30
0.0
 10
106.784816
 20
120.924616
 30
0.0
 10
106.676160
 20
120.904508
 30
0.0
 10
106.569974
 20
120.876286
 30
0.0
 10
106.465552
 20
120.840302
 30
0.0
 10
106.363952
 20
120.796911
 30
0.0
 10
106.265174
 20
120.745758
 30
0.0
 10
106.172041
 20
120.687902
 30
0.0
 10
106.082788
 20
120.623344
 30
0.0
 10
105.998121
 20
120.552083
 30
0.0
 10
105.919452
 20
120.474825
 30
0.0
 10
105.846427
 20
120.391922
 30
0.0
 10
105.779399
 20
120.304080
 30
0.0
 10
105.719780
 20
120.211300
 30
0.0
 10
105.667216
 20
120.114639
 30
0.0
 10
105.621707
 20
120.014097
 30
0.0
 10
105.583607
 20
119.910380
 30
0.0
 10
105.553621
 20
119.804194
 30
0.0
 10
105.530691
 20
119.696244
 30
0.0
 10
105.516932
 20
119.586530
 30
0.0
 10
105.510935
 20
119.476464
 30
0.0
 10
105.512699
 20
119.366044
 30
0.0
 10
105.523282
 20
119.256330
 30
0.0
 10
105.541980
 20
119.147675
 30
0.0
  0
LWPOLYLINE
  5
146
100
AcDbEntity
  8
knobs
 62
7
100
AcDbPolyline
 90
25
 70
0
 10
187.574384
 20
119.147851
 30
0.0
 10
187.593081
 20
119.256507
 30
0.0
 10
187.602606
 20
119.366220
 30
0.0
 10
187.605428
 20
119.476287
 30
0.0
 10
187.599078
 20
119.586001
 30
0.0
 10
187.584615
 20
119.695715
 30
0.0
 10
187.562742
 20
119.804018
 30
0.0
 10
187.533109
 20
119.909851
 30
0.0
 10
187.494303
 20
120.013215
 30
0.0
 10
187.449501
 20
120.113757
 30
0.0
 10
187.396584
 20
120.210418
 30
0.0
 10
187.336612
 20
120.302845
 30
0.0
 10
187.269937
 20
120.391040
 30
0.0
 10
187.197617
 20
120.474295
 30
0.0
 10
187.118948
 20
120.551201
 30
0.0
 10
187.034281
 20
120.622462
 30
0.0
 10
186.945381
 20
120.687373
 30
0.0
 10
186.850837
 20
120.745582
 30
0.0
 10
186.753117
 20
120.796734
 30
0.0
 10
186.651165
 20
120.840126
 30
0.0
 10
186.546390
 20
120.876109
 30
0.0
 10
186.439498
 20
120.904332
 30
0.0
 10
186.331548
 20
120.924793
 30
0.0
 10
186.221128
 20
120.937140
 30
0.0
 10
186.111062
 20
120.941020
 30
0.0
  0
SPLINE
  5
147
100
AcDbEntity
  8
knobs
 62
7
100
AcDbSpline
 70
8
 71
3
 72
8
 73
4
 74
0
 40
0
 40
0
 40
0
 40
0
 40
1
 40
1
 40
1
 40
1
 10
105.541838
 20
8.684309
 30
0.0
 10
105.924955
 20
10.532159
 30
0.0
 10
104.733977
 20
12.340146
 30
0.0
 10
102.881541
 20
12.722557
 30
0.0
  0
SPLINE
  5
148
100
AcDbEntity
  8
knobs
 62
7
100
AcDbSpline
 70
8
 71
3
 72
8
 73
4
 74
0
 40
0
 40
0
 40
0
 40
0
 40
1
 40
1
 40
1
 40
1
 10
102.881541
 20
12.722557
 30
0.0
 10
101.029105
 20
13.104968
 30
0.0
 10
99.216886
 20
11.916459
 30
0.0
 10
98.833769
 20
10.068962
 30
0.0
  0
SPLINE
  5
149
100
AcDbEntity
  8
knobs
 62
7
100
AcDbSpline
 70
8
 71
3
 72
8
 73
4
 74
0
 40
0
 40
0
 40
0
 40
0
 40
1
 40
1
 40
1
 40
1
 10
98.833769
 20
10.068962
 30
0.0
 10
98.738872
 20
9.702779
 30
0.0
 10
98.738872
 20
9.050140
 30
0.0
 10
98.833769
 20
8.684309
 30
0.0
  0
SPLINE
  5
14a
100
AcDbEntity
  8
knobs
 62
7
100
AcDbSpline
 70
8
 71
3
 72
8
 73
4
 74
0
 40
0
 40
0
 40
0
 40
0
 40
1
 40
1
 40
1
 40
1
 10
16.801329
 20
8.331532
 30
0.0
 10
17.184446
 20
10.179382
 30
0.0
 10
15.993468
 20
11.987368
 30
0.0
 10
14.141032
 20
12.369779
 30
0.0
  0
SPLINE
  5
14b
100
AcDbEntity
  8
knobs
 62
7
100
AcDbSpline
 70
8
 71
3
 72
8
 73
4
 74
0
 40
0
 40
0
 40
0
 40
0
 40
1
 40
1
 40
1
 40
1
 10
14.141032
 20
12.369779
 30
0.0
 10
13.774143
 20
12.464676
 30
0.0
 10
13.120446
 20
12.464676
 30
0.0
 10
12.753557
 20
12.369779
 30
0.0
  0
SPLINE
  5
14c
100
AcDbEntity
  8
knobs
 62
7
100
AcDbSpline
 70
8
 71
3
 72
8
 73
4
 74
0
 40
0
 40
0
 40
0
 40
0
 40
1
 40
1
 40
1
 40
1
 10
12.753522
 20
115.109145
 30
0.0
 10
14.605605
 20
114.727087
 30
0.0
 10
16.418177
 20
115.914890
 30
0.0
 10
16.801294
 20
117.763092
 30
0.0
  0
SPLINE
  5
14d
100
AcDbEntity
  8
knobs
 62
7
100
AcDbSpline
 70
8
 71
3
 72
8
 73
4
 74
0
 40
0
 40
0
 40
0
 40
0
 40
1
 40
1
 40
1
 40
1
 10
16.801294
 20
117.763092
 30
0.0
 10
16.895838
 20
118.129276
 30
0.0
 10
16.895838
 20
118.781562
 30
0.0
 10
16.801294
 20
119.147392
 30
0.0
  0
SPLINE
  5
14e
100
AcDbEntity
  8
knobs
 62
7
100
AcDbSpline
 70
8
 71
3
 72
8
 73
4
 74
0
 40
0
 40
0
 40
0
 40
0
 40
1
 40
1
 40
1
 40
1
 10
191.621662
 20
12.370555
 30
0.0
 10
189.769579
 20
12.752261
 30
0.0
 10
187.956654
 20
11.564458
 30
0.0
 10
187.573537
 20
9.716961
 30
0.0
  0
SPLINE
  5
14f
100
AcDbEntity
  8
knobs
 62
7
100
AcDbSpline
 70
8
 71
3
 72
8
 73
4
 74
0
 40
0
 40
0
 40
0
 40
0
 40
1
 40
1
 40
1
 40
1
 10
187.573537
 20
9.716961
 30
0.0
 10
187.479346
 20
9.350424
 30
0.0
 10
187.479346
 20
8.698138
 30
0.0
 10
187.573537
 20
8.332308
 30
0.0
  0
SPLINE
  5
150
100
AcDbEntity
  8
knobs
 62
7
100
AcDbSpline
 70
8
 71
3
 72
8
 73
4
 74
0
 40
0
 40
0
 40
0
 40
0
 40
1
 40
1
 40
1
 40
1
 10
98.833734
 20
119.147851
 30
0.0
 10
98.450617
 20
117.299648
 30
0.0
 10
99.641595
 20
115.491309
 30
0.0
 10
101.494031
 20
115.109251
 30
0.0
  0
SPLINE
  5
151
100
AcDbEntity
  8
knobs
 62
7
100
AcDbSpline
 70
8
 71
3
 72
8
 73
4
 74
0
 40
0
 40
0
 40
0
 40
0
 40
1
 40
1
 40
1
 40
1
 10
101.494031
 20
115.109251
 30
0.0
 10
103.346114
 20
114.727193
 30
0.0
 10
105.158686
 20
115.914995
 30
0.0
 10
105.541803
 20
117.763198
 30
0.0
  0
SPLINE
  5
152
100
AcDbEntity
  8
knobs
 62
7
100
AcDbSpline
 70
8
 71
3
 72
8
 73
4
 74
0
 40
0
 40
0
 40
0
 40
0
 40
1
 40
1
 40
1
 40
1
 10
105.541803
 20
117.763198
 30
0.0
 10
105.636348
 20
118.129382
 30
0.0
 10
105.636348
 20
118.781668
 30
0.0
 10
105.541803
 20
119.147498
 30
0.0
  0
SPLINE
  5
153
100
AcDbEntity
  8
knobs
 62
7
100
AcDbSpline
 70
8
 71
3
 72
8
 73
4
 74
0
 40
0
 40
0
 40
0
 40
0
 40
1
 40
1
 40
1
 40
1
 10
187.574384
 20
119.147851
 30
0.0
 10
187.191267
 20
117.299648
 30
0.0
 10
188.381892
 20
115.491309
 30
0.0
 10
190.234681
 20
115.109251
 30
0.0
  0
SPLINE
  5
154
100
AcDbEntity
  8
knobs
 62
7
100
AcDbSpline
 70
8
 71
3
 72
8
 73
4
 74
0
 40
0
 40
0
 40
0
 40
0
 40
1
 40
1
 40
1
 40
1
 10
190.234681
 20
115.109251
 30
0.0
 10
190.601217
 20
115.014354
 30
0.0
 10
191.255267
 20
115.014354
 30
0.0
 10
191.622509
 20
115.109251
 30
0.0
  0
LWPOLYLINE
  5
155
100
AcDbEntity
  8
knobs
 62
7
100
AcDbPolyline
 90
25
 70
0
 10
98.833734
 20
119.147851
 30
0.0
 10
98.852431
 20
119.256507
 30
0.0
 10
98.862309
 20
119.366220
 30
0.0
 10
98.864778
 20
119.476287
 30
0.0
 10
98.858428
 20
119.586001
 30
0.0
 10
98.844317
 20
119.695715
 30
0.0
 10
98.822445
 20
119.804018
 30
0.0
 10
98.792106
 20
119.909851
 30
0.0
 10
98.754006
 20
120.013215
 30
0.0
 10
98.708850
 20
120.113757
 30
0.0
 10
98.655934
 20
120.210418
 30
0.0
 10
98.595961
 20
120.302845
 30
0.0
 10
98.529639
 20
120.391040
 30
0.0
 10
98.456614
 20
120.474295
 30
0.0
 10
98.378298
 20
120.551201
 30
0.0
 10
98.293984
 20
120.622462
 30
0.0
 10
98.204378
 20
120.687373
 30
0.0
 10
98.110186
 20
120.745582
 30
0.0
 10
98.012467
 20
120.796734
 30
0.0
 10
97.910867
 20
120.840126
 30
0.0
 10
97.806092
 20
120.876109
 30
0.0
 10
97.699200
 20
120.904332
 30
0.0
 10
97.590192
 20
120.924793
 30
0.0
 10
97.480831
 20
120.937140
 30
0.0
 10
97.370059
 20
120.941020
 30
0.0
  0
LWPOLYLINE
  5
156
100
AcDbEntity
  8
knobs
 62
7
100
AcDbPolyline
 90
2
 70
0
 10
97.370059
 20
6.538009
 30
0.0
 10
18.264581
 20
6.538009
 30
0.0
  0
LWPOLYLINE
  5
157
100
AcDbEntity
  8
knobs
 62
7
100
AcDbPolyline
 90
2
 70
0
 10
10.955696
 20
13.830596
 30
0.0
 10
10.955696
 20
113.648716
 30
0.0
  0
LWPOLYLINE
  5
158
100
AcDbEntity
  8
knobs
 62
7
100
AcDbPolyline
 90
2
 70
0
 10
18.264651
 20
120.940844
 30
0.0
 10
97.370129
 20
120.940844
 30
0.0
  0
LWPOLYLINE
  5
159
100
AcDbEntity
  8
knobs
 62
7
100
AcDbPolyline
 90
2
 70
0
 10
193.419347
 20
113.648610
 30
0.0
 10
193.419347
 20
13.830491
 30
0.0
  0
LWPOLYLINE
  5
15a
100
AcDbEntity
  8
knobs
 62
7
100
AcDbPolyline
 90
2
 70
0
 10
107.005302
 20
120.940844
 30
0.0
 10
186.110780
 20
120.940844
 30
0.0
  0
SPLINE
  5
15b
100
AcDbEntity
  8
knobs
 62
7
100
AcDbSpline
 70
8
 71
3
 72
8
 73
4
 74
0
 40
0
 40
0
 40
0
 40
0
 40
1
 40
1
 40
1
 40
1
 10
8.461627
 20
9.520781
 30
0.0
 10
8.461627
 20
6.499592
 30
0.0
 10
10.916961
 20
4.049197
 30
0.0
 10
13.945558
 20
4.049197
 30
0.0
  0
LWPOLYLINE
  5
15c
100
AcDbEntity
  8
knobs
 62
7
100
AcDbPolyline
 90
2
 70
0
 10
186.110921
 20
6.538009
 30
0.0
 10
107.005443
 20
6.538009
 30
0.0
  0
SPLINE
  5
15d
100
AcDbEntity
  8
knobs
 62
7
100
AcDbSpline
 70
8
 71
3
 72
8
 73
4
 74
0
 40
0
 40
0
 40
0
 40
0
 40
1
 40
1
 40
1
 40
1
 10
13.945523
 20
123.429762
 30
0.0
 10
10.916925
 20
123.429762
 30
0.0
 10
8.461592
 20
120.980073
 30
0.0
 10
8.461592
 20
117.957826
 30
0.0
  0
LWPOLYLINE
  5
15e
100
AcDbEntity
  8
knobs
 62
7
100
AcDbPolyline
 90
2
 70
0
 10
195.913592
 20
9.520781
 30
0.0
 10
195.913592
 20
117.957967
 30
0.0
  0
LWPOLYLINE
  5
15f
100
AcDbEntity
  8
knobs
 62
7
100
AcDbPolyline
 90
2
 70
0
 10
8.461627
 20
117.957896
 30
0.0
 10
8.461627
 20
9.520710
 30
0.0
  0
SPLINE
  5
160
100
AcDbEntity
  8
knobs
 62
7
100
AcDbSpline
 70
8
 71
3
 72
8
 73
4
 74
0
 40
0
 40
0
 40
0
 40
0
 40
1
 40
1
 40
1
 40
1
 10
190.429661
 20
4.049974
 30
0.0
 10
193.458611
 20
4.049974
 30
0.0
 10
195.913592
 20
6.499310
 30
0.0
 10
195.913592
 20
9.521557
 30
0.0
  0
SPLINE
  5
161
100
AcDbEntity
  8
knobs
 62
7
100
AcDbSpline
 70
8
 71
3
 72
8
 73
4
 74
0
 40
0
 40
0
 40
0
 40
0
 40
1
 40
1
 40
1
 40
1
 10
195.913592
 20
117.957896
 30
0.0
 10
195.913592
 20
120.980144
 30
0.0
 10
193.458611
 20
123.429832
 30
0.0
 10
190.429661
 20
123.429832
 30
0.0
  0
LWPOLYLINE
  5
162
100
AcDbEntity
  8
knobs
 62
7
100
AcDbPolyline
 90
2
 70
0
 10
13.945523
 20
4.049974
 30
0.0
 10
190.429661
 20
4.049974
 30
0.0
  0
SPLINE
  5
163
100
AcDbEntity
  8
knobs
 62
7
100
AcDbSpline
 70
8
 71
3
 72
8
 73
4
 74
0
 40
0
 40
0
 40
0
 40
0
 40
1
 40
1
 40
1
 40
1
 10
192.675868
 20
9.023646
 30
0.0
 10
192.675868
 20
9.986377
 30
0.0
 10
191.893054
 20
10.767074
 30
0.0
 10
190.928560
 20
10.767074
 30
0.0
  0
SPLINE
  5
164
100
AcDbEntity
  8
knobs
 62
7
100
AcDbSpline
 70
8
 71
3
 72
8
 73
4
 74
0
 40
0
 40
0
 40
0
 40
0
 40
1
 40
1
 40
1
 40
1
 10
190.928560
 20
10.767074
 30
0.0
 10
189.963360
 20
10.767074
 30
0.0
 10
189.181251
 20
9.986377
 30
0.0
 10
189.181251
 20
9.023646
 30
0.0
  0
SPLINE
  5
165
100
AcDbEntity
  8
knobs
 62
7
100
AcDbSpline
 70
8
 71
3
 72
8
 73
4
 74
0
 40
0
 40
0
 40
0
 40
0
 40
1
 40
1
 40
1
 40
1
 10
189.181251
 20
9.023646
 30
0.0
 10
189.181251
 20
8.060916
 30
0.0
 10
189.963360
 20
7.280219
 30
0.0
 10
190.928560
 20
7.280219
 30
0.0
  0
SPLINE
  5
166
100
AcDbEntity
  8
knobs
 62
7
100
AcDbSpline
 70
8
 71
3
 72
8
 73
4
 74
0
 40
0
 40
0
 40
0
 40
0
 40
1
 40
1
 40
1
 40
1
 10
190.928560
 20
7.280219
 30
0.0
 10
191.893054
 20
7.280219
 30
0.0
 10
192.675868
 20
8.060916
 30
0.0
 10
192.675868
 20
9.023646
 30
0.0
  0
LWPOLYLINE
  5
167
100
AcDbEntity
  8
knobs
 62
7
100
AcDbPolyline
 90
2
 70
0
 10
190.429661
 20
123.429762
 30
0.0
 10
13.945523
 20
123.429762
 30
0.0
  0
SPLINE
  5
168
100
AcDbEntity
  8
knobs
 62
7
100
AcDbSpline
 70
8
 71
3
 72
8
 73
4
 74
0
 40
0
 40
0
 40
0
 40
0
 40
1
 40
1
 40
1
 40
1
 10
15.194709
 20
9.023646
 30
0.0
 10
15.194709
 20
9.986377
 30
0.0
 10
14.412248
 20
10.767074
 30
0.0
 10
13.447048
 20
10.767074
 30
0.0
  0
SPLINE
  5
169
100
AcDbEntity
  8
knobs
 62
7
100
AcDbSpline
 70
8
 71
3
 72
8
 73
4
 74
0
 40
0
 40
0
 40
0
 40
0
 40
1
 40
1
 40
1
 40
1
 10
13.447048
 20
10.767074
 30
0.0
 10
12.482200
 20
10.767074
 30
0.0
 10
11.699739
 20
9.986377
 30
0.0
 10
11.699739
 20
9.023646
 30
0.0
  0
SPLINE
  5
16a
100
AcDbEntity
  8
knobs
 62
7
100
AcDbSpline
 70
8
 71
3
 72
8
 73
4
 74
0
 40
0
 40
0
 40
0
 40
0
 40
1
 40
1
 40
1
 40
1
 10
11.699739
 20
9.023646
 30
0.0
 10
11.699739
 20
8.060916
 30
0.0
 10
12.482200
 20
7.280219
 30
0.0
 10
13.447048
 20
7.280219
 30
0.0
  0
SPLINE
  5
16b
100
AcDbEntity
  8
knobs
 62
7
100
AcDbSpline
 70
8
 71
3
 72
8
 73
4
 74
0
 40
0
 40
0
 40
0
 40
0
 40
1
 40
1
 40
1
 40
1
 10
13.447048
 20
7.280219
 30
0.0
 10
14.412248
 20
7.280219
 30
0.0
 10
15.194709
 20
8.060916
 30
0.0
 10
15.194709
 20
9.023646
 30
0.0
  0
LWPOLYLINE
  5
16c
100
AcDbEntity
  8
knobs
 62
7
100
AcDbPolyline
 90
2
 70
1
 10
192.675868
 20
9.023646
 30
0.0
 10
192.675868
 20
9.023646
 30
0.0
  0
SPLINE
  5
16d
100
AcDbEntity
  8
knobs
 62
7
100
AcDbSpline
 70
8
 71
3
 72
8
 73
4
 74
0
 40
0
 40
0
 40
0
 40
0
 40
1
 40
1
 40
1
 40
1
 10
103.935041
 20
118.455207
 30
0.0
 10
103.935041
 20
119.418290
 30
0.0
 10
103.152933
 20
120.198635
 30
0.0
 10
102.187733
 20
120.198635
 30
0.0
  0
SPLINE
  5
16e
100
AcDbEntity
  8
knobs
 62
7
100
AcDbSpline
 70
8
 71
3
 72
8
 73
4
 74
0
 40
0
 40
0
 40
0
 40
0
 40
1
 40
1
 40
1
 40
1
 10
102.187733
 20
120.198635
 30
0.0
 10
101.222886
 20
120.198635
 30
0.0
 10
100.440425
 20
119.418290
 30
0.0
 10
100.440425
 20
118.455207
 30
0.0
  0
SPLINE
  5
16f
100
AcDbEntity
  8
knobs
 62
7
100
AcDbSpline
 70
8
 71
3
 72
8
 73
4
 74
0
 40
0
 40
0
 40
0
 40
0
 40
1
 40
1
 40
1
 40
1
 10
100.440425
 20
118.455207
 30
0.0
 10
100.440425
 20
117.492477
 30
0.0
 10
101.222886
 20
116.711779
 30
0.0
 10
102.187733
 20
116.711779
 30
0.0
  0
SPLINE
  5
170
100
AcDbEntity
  8
knobs
 62
7
100
AcDbSpline
 70
8
 71
3
 72
8
 73
4
 74
0
 40
0
 40
0
 40
0
 40
0
 40
1
 40
1
 40
1
 40
1
 10
102.187733
 20
116.711779
 30
0.0
 10
103.152933
 20
116.711779
 30
0.0
 10
103.935041
 20
117.492477
 30
0.0
 10
103.935041
 20
118.455207
 30
0.0
  0
LWPOLYLINE
  5
171
100
AcDbEntity
  8
knobs
 62
7
100
AcDbPolyline
 90
2
 70
1
 10
15.194709
 20
9.023646
 30
0.0
 10
15.194709
 20
9.023646
 30
0.0
  0
SPLINE
  5
172
100
AcDbEntity
  8
knobs
 62
7
100
AcDbSpline
 70
8
 71
3
 72
8
 73
4
 74
0
 40
0
 40
0
 40
0
 40
0
 40
1
 40
1
 40
1
 40
1
 10
15.194709
 20
118.455207
 30
0.0
 10
15.194709
 20
119.418290
 30
0.0
 10
14.412248
 20
120.198635
 30
0.0
 10
13.447048
 20
120.198635
 30
0.0
  0
SPLINE
  5
173
100
AcDbEntity
  8
knobs
 62
7
100
AcDbSpline
 70
8
 71
3
 72
8
 73
4
 74
0
 40
0
 40
0
 40
0
 40
0
 40
1
 40
1
 40
1
 40
1
 10
13.447048
 20
120.198635
 30
0.0
 10
12.482200
 20
120.198635
 30
0.0
 10
11.699739
 20
119.418290
 30
0.0
 10
11.699739
 20
118.455207
 30
0.0
  0
SPLINE
  5
174
100
AcDbEntity
  8
knobs
 62
7
100
AcDbSpline
 70
8
 71
3
 72
8
 73
4
 74
0
 40
0
 40
0
 40
0
 40
0
 40
1
 40
1
 40
1
 40
1
 10
11.699739
 20
118.455207
 30
0.0
 10
11.699739
 20
117.492477
 30
0.0
 10
12.482200
 20
116.711779
 30
0.0
 10
13.447048
 20
116.711779
 30
0.0
  0
SPLINE
  5
175
100
AcDbEntity
  8
knobs
 62
7
100
AcDbSpline
 70
8
 71
3
 72
8
 73
4
 74
0
 40
0
 40
0
 40
0
 40
0
 40
1
 40
1
 40
1
 40
1
 10
13.447048
 20
116.711779
 30
0.0
 10
14.412248
 20
116.711779
 30
0.0
 10
15.194709
 20
117.492477
 30
0.0
 10
15.194709
 20
118.455207
 30
0.0
  0
LWPOLYLINE
  5
176
100
AcDbEntity
  8
knobs
 62
7
100
AcDbPolyline
 90
2
 70
1
 10
103.935041
 20
118.455207
 30
0.0
 10
103.935041
 20
118.455207
 30
0.0
  0
SPLINE
  5
177
100
AcDbEntity
  8
knobs
 62
7
100
AcDbSpline
 70
8
 71
3
 72
8
 73
4
 74
0
 40
0
 40
0
 40
0
 40
0
 40
1
 40
1
 40
1
 40
1
 10
103.935041
 20
9.023646
 30
0.0
 10
103.935041
 20
9.986377
 30
0.0
 10
103.152933
 20
10.767074
 30
0.0
 10
102.187733
 20
10.767074
 30
0.0
  0
SPLINE
  5
178
100
AcDbEntity
  8
knobs
 62
7
100
AcDbSpline
 70
8
 71
3
 72
8
 73
4
 74
0
 40
0
 40
0
 40
0
 40
0
 40
1
 40
1
 40
1
 40
1
 10
102.187733
 20
10.767074
 30
0.0
 10
101.222886
 20
10.767074
 30
0.0
 10
100.440425
 20
9.986377
 30
0.0
 10
100.440425
 20
9.023646
 30
0.0
  0
SPLINE
  5
179
100
AcDbEntity
  8
knobs
 62
7
100
AcDbSpline
 70
8
 71
3
 72
8
 73
4
 74
0
 40
0
 40
0
 40
0
 40
0
 40
1
 40
1
 40
1
 40
1
 10
100.440425
 20
9.023646
 30
0.0
 10
100.440425
 20
8.060916
 30
0.0
 10
101.222886
 20
7.280219
 30
0.0
 10
102.187733
 20
7.280219
 30
0.0
  0
SPLINE
  5
17a
100
AcDbEntity
  8
knobs
 62
7
100
AcDbSpline
 70
8
 71
3
 72
8
 73
4
 74
0
 40
0
 40
0
 40
0
 40
0
 40
1
 40
1
 40
1
 40
1
 10
102.187733
 20
7.280219
 30
0.0
 10
103.152933
 20
7.280219
 30
0.0
 10
103.935041
 20
8.060916
 30
0.0
 10
103.935041
 20
9.023646
 30
0.0
  0
LWPOLYLINE
  5
17b
100
AcDbEntity
  8
knobs
 62
7
100
AcDbPolyline
 90
2
 70
1
 10
15.194709
 20
118.455207
 30
0.0
 10
15.194709
 20
118.455207
 30
0.0
  0
SPLINE
  5
17c
100
AcDbEntity
  8
knobs
 62
7
100
AcDbSpline
 70
8
 71
3
 72
8
 73
4
 74
0
 40
0
 40
0
 40
0
 40
0
 40
1
 40
1
 40
1
 40
1
 10
192.675868
 20
118.455207
 30
0.0
 10
192.675868
 20
119.418290
 30
0.0
 10
191.893054
 20
120.198635
 30
0.0
 10
190.928560
 20
120.198635
 30
0.0
  0
SPLINE
  5
17d
100
AcDbEntity
  8
knobs
 62
7
100
AcDbSpline
 70
8
 71
3
 72
8
 73
4
 74
0
 40
0
 40
0
 40
0
 40
0
 40
1
 40
1
 40
1
 40
1
 10
190.928560
 20
120.198635
 30
0.0
 10
189.963360
 20
120.198635
 30
0.0
 10
189.181251
 20
119.418290
 30
0.0
 10
189.181251
 20
118.455207
 30
0.0
  0
SPLINE
  5
17e
100
AcDbEntity
  8
knobs
 62
7
100
AcDbSpline
 70
8
 71
3
 72
8
 73
4
 74
0
 40
0
 40
0
 40
0
 40
0
 40
1
 40
1
 40
1
 40
1
 10
189.181251
 20
118.455207
 30
0.0
 10
189.181251
 20
117.492477
 30
0.0
 10
189.963360
 20
116.711779
 30
0.0
 10
190.928560
 20
116.711779
 30
0.0
  0
SPLINE
  5
17f
100
AcDbEntity
  8
knobs
 62
7
100
AcDbSpline
 70
8
 71
3
 72
8
 73
4
 74
0
 40
0
 40
0
 40
0
 40
0
 40
1
 40
1
 40
1
 40
1
 10
190.928560
 20
116.711779
 30
0.0
 10
191.893054
 20
116.711779
 30
0.0
 10
192.675868
 20
117.492477
 30
0.0
 10
192.675868
 20
118.455207
 30
0.0
  0
LWPOLYLINE
  5
180
100
AcDbEntity
  8
knobs
 62
7
100
AcDbPolyline
 90
2
 70
1
 10
103.935041
 20
9.023646
 30
0.0
 10
103.935041
 20
9.023646
 30
0.0
  0
SPLINE
  5
181
100
AcDbEntity
  8
knobs
 62
1
100
AcDbSpline
 70
8
 71
3
 72
8
 73
4
 74
0
 40
0
 40
0
 40
0
 40
0
 40
1
 40
1
 40
1
 40
1
 10
69.917315
 20
104.950592
 30
0.0
 10
71.670974
 20
104.950592
 30
0.0
 10
73.092315
 20
103.529250
 30
0.0
 10
73.092315
 20
101.775592
 30
0.0
  0
SPLINE
  5
182
100
AcDbEntity
  8
knobs
 62
1
100
AcDbSpline
 70
8
 71
3
 72
8
 73
4
 74
0
 40
0
 40
0
 40
0
 40
0
 40
1
 40
1
 40
1
 40
1
 10
73.092315
 20
101.775592
 30
0.0
 10
73.092315
 20
100.021933
 30
0.0
 10
71.670974
 20
98.600592
 30
0.0
 10
69.917315
 20
98.600592
 30
0.0
  0
SPLINE
  5
183
100
AcDbEntity
  8
knobs
 62
1
100
AcDbSpline
 70
8
 71
3
 72
8
 73
4
 74
0
 40
0
 40
0
 40
0
 40
0
 40
1
 40
1
 40
1
 40
1
 10
69.917315
 20
98.600592
 30
0.0
 10
68.163657
 20
98.600592
 30
0.0
 10
66.742315
 20
100.021933
 30
0.0
 10
66.742315
 20
101.775592
 30
0.0
  0
SPLINE
  5
184
100
AcDbEntity
  8
knobs
 62
1
100
AcDbSpline
 70
8
 71
3
 72
8
 73
4
 74
0
 40
0
 40
0
 40
0
 40
0
 40
1
 40
1
 40
1
 40
1
 10
66.742315
 20
101.775592
 30
0.0
 10
66.742315
 20
103.529250
 30
0.0
 10
68.163657
 20
104.950592
 30
0.0
 10
69.917315
 20
104.950592
 30
0.0
  0
LWPOLYLINE
  5
185
100
AcDbEntity
  8
knobs
 62
7
100
AcDbPolyline
 90
2
 70
1
 10
192.675868
 20
118.455207
 30
0.0
 10
192.675868
 20
118.455207
 30
0.0
  0
SPLINE
  5
186
100
AcDbEntity
  8
knobs
 62
1
100
AcDbSpline
 70
8
 71
3
 72
8
 73
4
 74
0
 40
0
 40
0
 40
0
 40
0
 40
1
 40
1
 40
1
 40
1
 10
70.501092
 20
102.359368
 30
0.0
 10
70.179359
 20
102.681807
 30
0.0
 10
69.655131
 20
102.683924
 30
0.0
 10
69.331986
 20
102.360779
 30
0.0
  0
SPLINE
  5
187
100
AcDbEntity
  8
knobs
 62
1
100
AcDbSpline
 70
8
 71
3
 72
8
 73
4
 74
0
 40
0
 40
0
 40
0
 40
0
 40
1
 40
1
 40
1
 40
1
 10
69.331986
 20
102.360779
 30
0.0
 10
69.008136
 20
102.036929
 30
0.0
 10
69.010959
 20
101.513407
 30
0.0
 10
69.333398
 20
101.190968
 30
0.0
  0
SPLINE
  5
188
100
AcDbEntity
  8
knobs
 62
1
100
AcDbSpline
 70
8
 71
3
 72
8
 73
4
 74
0
 40
0
 40
0
 40
0
 40
0
 40
1
 40
1
 40
1
 40
1
 10
69.333398
 20
101.190968
 30
0.0
 10
69.655836
 20
100.869235
 30
0.0
 10
70.179359
 20
100.866413
 30
0.0
 10
70.502503
 20
101.190263
 30
0.0
  0
SPLINE
  5
189
100
AcDbEntity
  8
knobs
 62
1
100
AcDbSpline
 70
8
 71
3
 72
8
 73
4
 74
0
 40
0
 40
0
 40
0
 40
0
 40
1
 40
1
 40
1
 40
1
 10
70.502503
 20
101.190263
 30
0.0
 10
70.826353
 20
101.513407
 30
0.0
 10
70.823531
 20
102.036929
 30
0.0
 10
70.501092
 20
102.359368
 30
0.0
  0
LWPOLYLINE
  5
18a
100
AcDbEntity
  8
knobs
 62
1
100
AcDbPolyline
 90
2
 70
1
 10
69.917315
 20
104.950592
 30
0.0
 10
69.917315
 20
104.950592
 30
0.0
  0
LWPOLYLINE
  5
18b
100
AcDbEntity
  8
knobs
 62
1
100
AcDbPolyline
 90
2
 70
1
 10
70.501092
 20
102.359368
 30
0.0
 10
70.501092
 20
102.359368
 30
0.0
  0
LWPOLYLINE
  5
18c
100
AcDbEntity
  8
knobs
 62
1
100
AcDbPolyline
 90
2
 70
0
 10
69.917668
 20
101.775274
 30
0.0
 10
72.162393
 20
99.530549
 30
0.0
  0
LWPOLYLINE
  5
18d
100
AcDbEntity
  8
knobs
 62
1
100
AcDbPolyline
 90
2
 70
0
 10
69.917668
 20
101.775274
 30
0.0
 10
72.162393
 20
104.020705
 30
0.0
  0
LWPOLYLINE
  5
18e
100
AcDbEntity
  8
knobs
 62
1
100
AcDbPolyline
 90
2
 70
0
 10
69.917668
 20
101.775274
 30
0.0
 10
67.671885
 20
104.020705
 30
0.0
  0
SPLINE
  5
18f
100
AcDbEntity
  8
knobs
 62
1
100
AcDbSpline
 70
8
 71
3
 72
8
 73
4
 74
0
 40
0
 40
0
 40
0
 40
0
 40
1
 40
1
 40
1
 40
1
 10
69.917315
 20
114.475944
 30
0.0
 10
76.931243
 20
114.475944
 30
0.0
 10
82.617315
 20
108.789872
 30
0.0
 10
82.617315
 20
101.775944
 30
0.0
  0
SPLINE
  5
190
100
AcDbEntity
  8
knobs
 62
1
100
AcDbSpline
 70
8
 71
3
 72
8
 73
4
 74
0
 40
0
 40
0
 40
0
 40
0
 40
1
 40
1
 40
1
 40
1
 10
82.617315
 20
101.775944
 30
0.0
 10
82.617315
 20
94.762017
 30
0.0
 10
76.931243
 20
89.075944
 30
0.0
 10
69.917315
 20
89.075944
 30
0.0
  0
SPLINE
  5
191
100
AcDbEntity
  8
knobs
 62
1
100
AcDbSpline
 70
8
 71
3
 72
8
 73
4
 74
0
 40
0
 40
0
 40
0
 40
0
 40
1
 40
1
 40
1
 40
1
 10
69.917315
 20
89.075944
 30
0.0
 10
62.903388
 20
89.075944
 30
0.0
 10
57.217315
 20
94.762017
 30
0.0
 10
57.217315
 20
101.775944
 30
0.0
  0
SPLINE
  5
192
100
AcDbEntity
  8
knobs
 62
1
100
AcDbSpline
 70
8
 71
3
 72
8
 73
4
 74
0
 40
0
 40
0
 40
0
 40
0
 40
1
 40
1
 40
1
 40
1
 10
57.217315
 20
101.775944
 30
0.0
 10
57.217315
 20
108.789872
 30
0.0
 10
62.903388
 20
114.475944
 30
0.0
 10
69.917315
 20
114.475944
 30
0.0
  0
LWPOLYLINE
  5
193
100
AcDbEntity
  8
knobs
 62
1
100
AcDbPolyline
 90
2
 70
0
 10
69.917668
 20
101.775274
 30
0.0
 10
67.671885
 20
99.530549
 30
0.0
  0
SPLINE
  5
194
100
AcDbEntity
  8
knobs
 62
1
100
AcDbSpline
 70
8
 71
3
 72
8
 73
4
 74
0
 40
0
 40
0
 40
0
 40
0
 40
1
 40
1
 40
1
 40
1
 10
69.917315
 20
66.850944
 30
0.0
 10
71.670974
 20
66.850944
 30
0.0
 10
73.092315
 20
65.429603
 30
0.0
 10
73.092315
 20
63.675944
 30
0.0
  0
SPLINE
  5
195
100
AcDbEntity
  8
knobs
 62
1
100
AcDbSpline
 70
8
 71
3
 72
8
 73
4
 74
0
 40
0
 40
0
 40
0
 40
0
 40
1
 40
1
 40
1
 40
1
 10
73.092315
 20
63.675944
 30
0.0
 10
73.092315
 20
61.922286
 30
0.0
 10
71.670974
 20
60.500944
 30
0.0
 10
69.917315
 20
60.500944
 30
0.0
  0
SPLINE
  5
196
100
AcDbEntity
  8
knobs
 62
1
100
AcDbSpline
 70
8
 71
3
 72
8
 73
4
 74
0
 40
0
 40
0
 40
0
 40
0
 40
1
 40
1
 40
1
 40
1
 10
69.917315
 20
60.500944
 30
0.0
 10
68.163657
 20
60.500944
 30
0.0
 10
66.742315
 20
61.922286
 30
0.0
 10
66.742315
 20
63.675944
 30
0.0
  0
SPLINE
  5
197
100
AcDbEntity
  8
knobs
 62
1
100
AcDbSpline
 70
8
 71
3
 72
8
 73
4
 74
0
 40
0
 40
0
 40
0
 40
0
 40
1
 40
1
 40
1
 40
1
 10
66.742315
 20
63.675944
 30
0.0
 10
66.742315
 20
65.429603
 30
0.0
 10
68.163657
 20
66.850944
 30
0.0
 10
69.917315
 20
66.850944
 30
0.0
  0
LWPOLYLINE
  5
198
100
AcDbEntity
  8
knobs
 62
1
100
AcDbPolyline
 90
2
 70
1
 10
69.917315
 20
114.475944
 30
0.0
 10
69.917315
 20
114.475944
 30
0.0
  0
SPLINE
  5
199
100
AcDbEntity
  8
knobs
 62
1
100
AcDbSpline
 70
8
 71
3
 72
8
 73
4
 74
0
 40
0
 40
0
 40
0
 40
0
 40
1
 40
1
 40
1
 40
1
 10
70.501092
 20
64.259721
 30
0.0
 10
70.179359
 20
64.582160
 30
0.0
 10
69.655131
 20
64.584277
 30
0.0
 10
69.331986
 20
64.261132
 30
0.0
  0
SPLINE
  5
19a
100
AcDbEntity
  8
knobs
 62
1
100
AcDbSpline
 70
8
 71
3
 72
8
 73
4
 74
0
 40
0
 40
0
 40
0
 40
0
 40
1
 40
1
 40
1
 40
1
 10
69.331986
 20
64.261132
 30
0.0
 10
69.008136
 20
63.937282
 30
0.0
 10
69.010959
 20
63.413760
 30
0.0
 10
69.333398
 20
63.091321
 30
0.0
  0
SPLINE
  5
19b
100
AcDbEntity
  8
knobs
 62
1
100
AcDbSpline
 70
8
 71
3
 72
8
 73
4
 74
0
 40
0
 40
0
 40
0
 40
0
 40
1
 40
1
 40
1
 40
1
 10
69.333398
 20
63.091321
 30
0.0
 10
69.655836
 20
62.769588
 30
0.0
 10
70.179359
 20
62.766766
 30
0.0
 10
70.502503
 20
63.090616
 30
0.0
  0
SPLINE
  5
19c
100
AcDbEntity
  8
knobs
 62
1
100
AcDbSpline
 70
8
 71
3
 72
8
 73
4
 74
0
 40
0
 40
0
 40
0
 40
0
 40
1
 40
1
 40
1
 40
1
 10
70.502503
 20
63.090616
 30
0.0
 10
70.826353
 20
63.413760
 30
0.0
 10
70.823531
 20
63.937282
 30
0.0
 10
70.501092
 20
64.259721
 30
0.0
  0
LWPOLYLINE
  5
19d
100
AcDbEntity
  8
knobs
 62
1
100
AcDbPolyline
 90
2
 70
1
 10
69.917315
 20
66.850944
 30
0.0
 10
69.917315
 20
66.850944
 30
0.0
  0
LWPOLYLINE
  5
19e
100
AcDbEntity
  8
knobs
 62
1
100
AcDbPolyline
 90
2
 70
1
 10
70.501092
 20
64.259721
 30
0.0
 10
70.501092
 20
64.259721
 30
0.0
  0
LWPOLYLINE
  5
19f
100
AcDbEntity
  8
knobs
 62
1
100
AcDbPolyline
 90
2
 70
0
 10
69.917668
 20
63.675592
 30
0.0
 10
72.162393
 20
61.430867
 30
0.0
  0
LWPOLYLINE
  5
1a0
100
AcDbEntity
  8
knobs
 62
1
100
AcDbPolyline
 90
2
 70
0
 10
69.917668
 20
63.675592
 30
0.0
 10
72.162393
 20
65.921022
 30
0.0
  0
LWPOLYLINE
  5
1a1
100
AcDbEntity
  8
knobs
 62
1
100
AcDbPolyline
 90
2
 70
0
 10
69.917668
 20
63.675592
 30
0.0
 10
67.671885
 20
65.921022
 30
0.0
  0
SPLINE
  5
1a2
100
AcDbEntity
  8
knobs
 62
1
100
AcDbSpline
 70
8
 71
3
 72
8
 73
4
 74
0
 40
0
 40
0
 40
0
 40
0
 40
1
 40
1
 40
1
 40
1
 10
69.917315
 20
76.376297
 30
0.0
 10
76.931243
 20
76.376297
 30
0.0
 10
82.617315
 20
70.690225
 30
0.0
 10
82.617315
 20
63.676297
 30
0.0
  0
SPLINE
  5
1a3
100
AcDbEntity
  8
knobs
 62
1
100
AcDbSpline
 70
8
 71
3
 72
8
 73
4
 74
0
 40
0
 40
0
 40
0
 40
0
 40
1
 40
1
 40
1
 40
1
 10
82.617315
 20
63.676297
 30
0.0
 10
82.617315
 20
56.662017
 30
0.0
 10
76.931243
 20
50.976297
 30
0.0
 10
69.917315
 20
50.976297
 30
0.0
  0
SPLINE
  5
1a4
100
AcDbEntity
  8
knobs
 62
1
100
AcDbSpline
 70
8
 71
3
 72
8
 73
4
 74
0
 40
0
 40
0
 40
0
 40
0
 40
1
 40
1
 40
1
 40
1
 10
69.917315
 20
50.976297
 30
0.0
 10
62.903388
 20
50.976297
 30
0.0
 10
57.217315
 20
56.662017
 30
0.0
 10
57.217315
 20
63.676297
 30
0.0
  0
SPLINE
  5
1a5
100
AcDbEntity
  8
knobs
 62
1
100
AcDbSpline
 70
8
 71
3
 72
8
 73
4
 74
0
 40
0
 40
0
 40
0
 40
0
 40
1
 40
1
 40
1
 40
1
 10
57.217315
 20
63.676297
 30
0.0
 10
57.217315
 20
70.690225
 30
0.0
 10
62.903388
 20
76.376297
 30
0.0
 10
69.917315
 20
76.376297
 30
0.0
  0
LWPOLYLINE
  5
1a6
100
AcDbEntity
  8
knobs
 62
1
100
AcDbPolyline
 90
2
 70
0
 10
69.917668
 20
63.675592
 30
0.0
 10
67.671885
 20
61.430867
 30
0.0
  0
SPLINE
  5
1a7
100
AcDbEntity
  8
knobs
 62
1
100
AcDbSpline
 70
8
 71
3
 72
8
 73
4
 74
0
 40
0
 40
0
 40
0
 40
0
 40
1
 40
1
 40
1
 40
1
 10
69.917315
 20
28.751297
 30
0.0
 10
71.670974
 20
28.751297
 30
0.0
 10
73.092315
 20
27.329956
 30
0.0
 10
73.092315
 20
25.576297
 30
0.0
  0
SPLINE
  5
1a8
100
AcDbEntity
  8
knobs
 62
1
100
AcDbSpline
 70
8
 71
3
 72
8
 73
4
 74
0
 40
0
 40
0
 40
0
 40
0
 40
1
 40
1
 40
1
 40
1
 10
73.092315
 20
25.576297
 30
0.0
 10
73.092315
 20
23.822639
 30
0.0
 10
71.670974
 20
22.401297
 30
0.0
 10
69.917315
 20
22.401297
 30
0.0
  0
SPLINE
  5
1a9
100
AcDbEntity
  8
knobs
 62
1
100
AcDbSpline
 70
8
 71
3
 72
8
 73
4
 74
0
 40
0
 40
0
 40
0
 40
0
 40
1
 40
1
 40
1
 40
1
 10
69.917315
 20
22.401297
 30
0.0
 10
68.163657
 20
22.401297
 30
0.0
 10
66.742315
 20
23.822639
 30
0.0
 10
66.742315
 20
25.576297
 30
0.0
  0
SPLINE
  5
1aa
100
AcDbEntity
  8
knobs
 62
1
100
AcDbSpline
 70
8
 71
3
 72
8
 73
4
 74
0
 40
0
 40
0
 40
0
 40
0
 40
1
 40
1
 40
1
 40
1
 10
66.742315
 20
25.576297
 30
0.0
 10
66.742315
 20
27.329956
 30
0.0
 10
68.163657
 20
28.751297
 30
0.0
 10
69.917315
 20
28.751297
 30
0.0
  0
LWPOLYLINE
  5
1ab
100
AcDbEntity
  8
knobs
 62
1
100
AcDbPolyline
 90
2
 70
1
 10
69.917315
 20
76.376297
 30
0.0
 10
69.917315
 20
76.376297
 30
0.0
  0
SPLINE
  5
1ac
100
AcDbEntity
  8
knobs
 62
1
100
AcDbSpline
 70
8
 71
3
 72
8
 73
4
 74
0
 40
0
 40
0
 40
0
 40
0
 40
1
 40
1
 40
1
 40
1
 10
70.501092
 20
26.159897
 30
0.0
 10
70.179359
 20
26.482336
 30
0.0
 10
69.655131
 20
26.484453
 30
0.0
 10
69.331986
 20
26.161309
 30
0.0
  0
SPLINE
  5
1ad
100
AcDbEntity
  8
knobs
 62
1
100
AcDbSpline
 70
8
 71
3
 72
8
 73
4
 74
0
 40
0
 40
0
 40
0
 40
0
 40
1
 40
1
 40
1
 40
1
 10
69.331986
 20
26.161309
 30
0.0
 10
69.008136
 20
25.837459
 30
0.0
 10
69.010959
 20
25.314289
 30
0.0
 10
69.333398
 20
24.991497
 30
0.0
  0
SPLINE
  5
1ae
100
AcDbEntity
  8
knobs
 62
1
100
AcDbSpline
 70
8
 71
3
 72
8
 73
4
 74
0
 40
0
 40
0
 40
0
 40
0
 40
1
 40
1
 40
1
 40
1
 10
69.333398
 20
24.991497
 30
0.0
 10
69.655836
 20
24.669764
 30
0.0
 10
70.179359
 20
24.667295
 30
0.0
 10
70.502503
 20
24.991145
 30
0.0
  0
SPLINE
  5
1af
100
AcDbEntity
  8
knobs
 62
1
100
AcDbSpline
 70
8
 71
3
 72
8
 73
4
 74
0
 40
0
 40
0
 40
0
 40
0
 40
1
 40
1
 40
1
 40
1
 10
70.502503
 20
24.991145
 30
0.0
 10
70.826353
 20
25.314289
 30
0.0
 10
70.823531
 20
25.837459
 30
0.0
 10
70.501092
 20
26.159897
 30
0.0
  0
LWPOLYLINE
  5
1b0
100
AcDbEntity
  8
knobs
 62
1
100
AcDbPolyline
 90
2
 70
1
 10
69.917315
 20
28.751297
 30
0.0
 10
69.917315
 20
28.751297
 30
0.0
  0
LWPOLYLINE
  5
1b1
100
AcDbEntity
  8
knobs
 62
1
100
AcDbPolyline
 90
2
 70
1
 10
70.501092
 20
26.159897
 30
0.0
 10
70.501092
 20
26.159897
 30
0.0
  0
LWPOLYLINE
  5
1b2
100
AcDbEntity
  8
knobs
 62
1
100
AcDbPolyline
 90
2
 70
0
 10
69.917668
 20
25.575944
 30
0.0
 10
72.162393
 20
23.331219
 30
0.0
  0
LWPOLYLINE
  5
1b3
100
AcDbEntity
  8
knobs
 62
1
100
AcDbPolyline
 90
2
 70
0
 10
69.917668
 20
25.575944
 30
0.0
 10
72.162393
 20
27.821022
 30
0.0
  0
LWPOLYLINE
  5
1b4
100
AcDbEntity
  8
knobs
 62
1
100
AcDbPolyline
 90
2
 70
0
 10
69.917668
 20
25.575944
 30
0.0
 10
67.671885
 20
27.821022
 30
0.0
  0
SPLINE
  5
1b5
100
AcDbEntity
  8
knobs
 62
1
100
AcDbSpline
 70
8
 71
3
 72
8
 73
4
 74
0
 40
0
 40
0
 40
0
 40
0
 40
1
 40
1
 40
1
 40
1
 10
69.917315
 20
38.276650
 30
0.0
 10
76.931243
 20
38.276650
 30
0.0
 10
82.617315
 20
32.590578
 30
0.0
 10
82.617315
 20
25.576650
 30
0.0
  0
SPLINE
  5
1b6
100
AcDbEntity
  8
knobs
 62
1
100
AcDbSpline
 70
8
 71
3
 72
8
 73
4
 74
0
 40
0
 40
0
 40
0
 40
0
 40
1
 40
1
 40
1
 40
1
 10
82.617315
 20
25.576650
 30
0.0
 10
82.617315
 20
18.562722
 30
0.0
 10
76.931243
 20
12.876650
 30
0.0
 10
69.917315
 20
12.876650
 30
0.0
  0
SPLINE
  5
1b7
100
AcDbEntity
  8
knobs
 62
1
100
AcDbSpline
 70
8
 71
3
 72
8
 73
4
 74
0
 40
0
 40
0
 40
0
 40
0
 40
1
 40
1
 40
1
 40
1
 10
69.917315
 20
12.876650
 30
0.0
 10
62.903388
 20
12.876650
 30
0.0
 10
57.217315
 20
18.562722
 30
0.0
 10
57.217315
 20
25.576650
 30
0.0
  0
SPLINE
  5
1b8
100
AcDbEntity
  8
knobs
 62
1
100
AcDbSpline
 70
8
 71
3
 72
8
 73
4
 74
0
 40
0
 40
0
 40
0
 40
0
 40
1
 40
1
 40
1
 40
1
 10
57.217315
 20
25.576650
 30
0.0
 10
57.217315
 20
32.590578
 30
0.0
 10
62.903388
 20
38.276650
 30
0.0
 10
69.917315
 20
38.276650
 30
0.0
  0
LWPOLYLINE
  5
1b9
100
AcDbEntity
  8
knobs
 62
1
100
AcDbPolyline
 90
2
 70
0
 10
69.917668
 20
25.575944
 30
0.0
 10
67.671885
 20
23.331219
 30
0.0
  0
SPLINE
  5
1ba
100
AcDbEntity
  8
knobs
 62
1
100
AcDbSpline
 70
8
 71
3
 72
8
 73
4
 74
0
 40
0
 40
0
 40
0
 40
0
 40
1
 40
1
 40
1
 40
1
 10
31.817315
 20
104.950592
 30
0.0
 10
33.570974
 20
104.950592
 30
0.0
 10
34.992315
 20
103.529250
 30
0.0
 10
34.992315
 20
101.775592
 30
0.0
  0
SPLINE
  5
1bb
100
AcDbEntity
  8
knobs
 62
1
100
AcDbSpline
 70
8
 71
3
 72
8
 73
4
 74
0
 40
0
 40
0
 40
0
 40
0
 40
1
 40
1
 40
1
 40
1
 10
34.992315
 20
101.775592
 30
0.0
 10
34.992315
 20
100.021933
 30
0.0
 10
33.570974
 20
98.600592
 30
0.0
 10
31.817315
 20
98.600592
 30
0.0
  0
SPLINE
  5
1bc
100
AcDbEntity
  8
knobs
 62
1
100
AcDbSpline
 70
8
 71
3
 72
8
 73
4
 74
0
 40
0
 40
0
 40
0
 40
0
 40
1
 40
1
 40
1
 40
1
 10
31.817315
 20
98.600592
 30
0.0
 10
30.063657
 20
98.600592
 30
0.0
 10
28.642315
 20
100.021933
 30
0.0
 10
28.642315
 20
101.775592
 30
0.0
  0
SPLINE
  5
1bd
100
AcDbEntity
  8
knobs
 62
1
100
AcDbSpline
 70
8
 71
3
 72
8
 73
4
 74
0
 40
0
 40
0
 40
0
 40
0
 40
1
 40
1
 40
1
 40
1
 10
28.642315
 20
101.775592
 30
0.0
 10
28.642315
 20
103.529250
 30
0.0
 10
30.063657
 20
104.950592
 30
0.0
 10
31.817315
 20
104.950592
 30
0.0
  0
LWPOLYLINE
  5
1be
100
AcDbEntity
  8
knobs
 62
1
100
AcDbPolyline
 90
2
 70
1
 10
69.917315
 20
38.276650
 30
0.0
 10
69.917315
 20
38.276650
 30
0.0
  0
SPLINE
  5
1bf
100
AcDbEntity
  8
knobs
 62
1
100
AcDbSpline
 70
8
 71
3
 72
8
 73
4
 74
0
 40
0
 40
0
 40
0
 40
0
 40
1
 40
1
 40
1
 40
1
 10
32.401092
 20
102.359368
 30
0.0
 10
32.079359
 20
102.681807
 30
0.0
 10
31.555131
 20
102.683924
 30
0.0
 10
31.231986
 20
102.360779
 30
0.0
  0
SPLINE
  5
1c0
100
AcDbEntity
  8
knobs
 62
1
100
AcDbSpline
 70
8
 71
3
 72
8
 73
4
 74
0
 40
0
 40
0
 40
0
 40
0
 40
1
 40
1
 40
1
 40
1
 10
31.231986
 20
102.360779
 30
0.0
 10
30.908136
 20
102.036929
 30
0.0
 10
30.910959
 20
101.513407
 30
0.0
 10
31.233398
 20
101.190968
 30
0.0
  0
SPLINE
  5
1c1
100
AcDbEntity
  8
knobs
 62
1
100
AcDbSpline
 70
8
 71
3
 72
8
 73
4
 74
0
 40
0
 40
0
 40
0
 40
0
 40
1
 40
1
 40
1
 40
1
 10
31.233398
 20
101.190968
 30
0.0
 10
31.555836
 20
100.869235
 30
0.0
 10
32.079359
 20
100.866413
 30
0.0
 10
32.402503
 20
101.190263
 30
0.0
  0
SPLINE
  5
1c2
100
AcDbEntity
  8
knobs
 62
1
100
AcDbSpline
 70
8
 71
3
 72
8
 73
4
 74
0
 40
0
 40
0
 40
0
 40
0
 40
1
 40
1
 40
1
 40
1
 10
32.402503
 20
101.190263
 30
0.0
 10
32.726353
 20
101.513407
 30
0.0
 10
32.723531
 20
102.036929
 30
0.0
 10
32.401092
 20
102.359368
 30
0.0
  0
LWPOLYLINE
  5
1c3
100
AcDbEntity
  8
knobs
 62
1
100
AcDbPolyline
 90
2
 70
1
 10
31.817315
 20
104.950592
 30
0.0
 10
31.817315
 20
104.950592
 30
0.0
  0
LWPOLYLINE
  5
1c4
100
AcDbEntity
  8
knobs
 62
1
100
AcDbPolyline
 90
2
 70
1
 10
32.401092
 20
102.359368
 30
0.0
 10
32.401092
 20
102.359368
 30
0.0
  0
LWPOLYLINE
  5
1c5
100
AcDbEntity
  8
knobs
 62
1
100
AcDbPolyline
 90
2
 70
0
 10
31.817668
 20
101.775274
 30
0.0
 10
34.062393
 20
99.530549
 30
0.0
  0
LWPOLYLINE
  5
1c6
100
AcDbEntity
  8
knobs
 62
1
100
AcDbPolyline
 90
2
 70
0
 10
31.817668
 20
101.775274
 30
0.0
 10
34.062393
 20
104.020705
 30
0.0
  0
LWPOLYLINE
  5
1c7
100
AcDbEntity
  8
knobs
 62
1
100
AcDbPolyline
 90
2
 70
0
 10
31.817668
 20
101.775274
 30
0.0
 10
29.571885
 20
104.020705
 30
0.0
  0
SPLINE
  5
1c8
100
AcDbEntity
  8
knobs
 62
1
100
AcDbSpline
 70
8
 71
3
 72
8
 73
4
 74
0
 40
0
 40
0
 40
0
 40
0
 40
1
 40
1
 40
1
 40
1
 10
31.817315
 20
114.475944
 30
0.0
 10
38.831243
 20
114.475944
 30
0.0
 10
44.517315
 20
108.789872
 30
0.0
 10
44.517315
 20
101.775944
 30
0.0
  0
SPLINE
  5
1c9
100
AcDbEntity
  8
knobs
 62
1
100
AcDbSpline
 70
8
 71
3
 72
8
 73
4
 74
0
 40
0
 40
0
 40
0
 40
0
 40
1
 40
1
 40
1
 40
1
 10
44.517315
 20
101.775944
 30
0.0
 10
44.517315
 20
94.762017
 30
0.0
 10
38.831243
 20
89.075944
 30
0.0
 10
31.817315
 20
89.075944
 30
0.0
  0
SPLINE
  5
1ca
100
AcDbEntity
  8
knobs
 62
1
100
AcDbSpline
 70
8
 71
3
 72
8
 73
4
 74
0
 40
0
 40
0
 40
0
 40
0
 40
1
 40
1
 40
1
 40
1
 10
31.817315
 20
89.075944
 30
0.0
 10
24.803388
 20
89.075944
 30
0.0
 10
19.117315
 20
94.762017
 30
0.0
 10
19.117315
 20
101.775944
 30
0.0
  0
SPLINE
  5
1cb
100
AcDbEntity
  8
knobs
 62
1
100
AcDbSpline
 70
8
 71
3
 72
8
 73
4
 74
0
 40
0
 40
0
 40
0
 40
0
 40
1
 40
1
 40
1
 40
1
 10
19.117315
 20
101.775944
 30
0.0
 10
19.117315
 20
108.789872
 30
0.0
 10
24.803388
 20
114.475944
 30
0.0
 10
31.817315
 20
114.475944
 30
0.0
  0
LWPOLYLINE
  5
1cc
100
AcDbEntity
  8
knobs
 62
1
100
AcDbPolyline
 90
2
 70
0
 10
31.817668
 20
101.775274
 30
0.0
 10
29.571885
 20
99.530549
 30
0.0
  0
SPLINE
  5
1cd
100
AcDbEntity
  8
knobs
 62
1
100
AcDbSpline
 70
8
 71
3
 72
8
 73
4
 74
0
 40
0
 40
0
 40
0
 40
0
 40
1
 40
1
 40
1
 40
1
 10
31.817315
 20
66.851297
 30
0.0
 10
33.570974
 20
66.851297
 30
0.0
 10
34.992315
 20
65.429956
 30
0.0
 10
34.992315
 20
63.676297
 30
0.0
  0
SPLINE
  5
1ce
100
AcDbEntity
  8
knobs
 62
1
100
AcDbSpline
 70
8
 71
3
 72
8
 73
4
 74
0
 40
0
 40
0
 40
0
 40
0
 40
1
 40
1
 40
1
 40
1
 10
34.992315
 20
63.676297
 30
0.0
 10
34.992315
 20
61.922639
 30
0.0
 10
33.570974
 20
60.501297
 30
0.0
 10
31.817315
 20
60.501297
 30
0.0
  0
SPLINE
  5
1cf
100
AcDbEntity
  8
knobs
 62
1
100
AcDbSpline
 70
8
 71
3
 72
8
 73
4
 74
0
 40
0
 40
0
 40
0
 40
0
 40
1
 40
1
 40
1
 40
1
 10
31.817315
 20
60.501297
 30
0.0
 10
30.063657
 20
60.501297
 30
0.0
 10
28.642315
 20
61.922639
 30
0.0
 10
28.642315
 20
63.676297
 30
0.0
  0
SPLINE
  5
1d0
100
AcDbEntity
  8
knobs
 62
1
100
AcDbSpline
 70
8
 71
3
 72
8
 73
4
 74
0
 40
0
 40
0
 40
0
 40
0
 40
1
 40
1
 40
1
 40
1
 10
28.642315
 20
63.676297
 30
0.0
 10
28.642315
 20
65.429956
 30
0.0
 10
30.063657
 20
66.851297
 30
0.0
 10
31.817315
 20
66.851297
 30
0.0
  0
LWPOLYLINE
  5
1d1
100
AcDbEntity
  8
knobs
 62
1
100
AcDbPolyline
 90
2
 70
1
 10
31.817315
 20
114.475944
 30
0.0
 10
31.817315
 20
114.475944
 30
0.0
  0
SPLINE
  5
1d2
100
AcDbEntity
  8
knobs
 62
1
100
AcDbSpline
 70
8
 71
3
 72
8
 73
4
 74
0
 40
0
 40
0
 40
0
 40
0
 40
1
 40
1
 40
1
 40
1
 10
32.401092
 20
64.260074
 30
0.0
 10
32.079359
 20
64.582513
 30
0.0
 10
31.555131
 20
64.584629
 30
0.0
 10
31.231986
 20
64.261485
 30
0.0
  0
SPLINE
  5
1d3
100
AcDbEntity
  8
knobs
 62
1
100
AcDbSpline
 70
8
 71
3
 72
8
 73
4
 74
0
 40
0
 40
0
 40
0
 40
0
 40
1
 40
1
 40
1
 40
1
 10
31.231986
 20
64.261485
 30
0.0
 10
30.908136
 20
63.937635
 30
0.0
 10
30.910959
 20
63.414113
 30
0.0
 10
31.233398
 20
63.091674
 30
0.0
  0
SPLINE
  5
1d4
100
AcDbEntity
  8
knobs
 62
1
100
AcDbSpline
 70
8
 71
3
 72
8
 73
4
 74
0
 40
0
 40
0
 40
0
 40
0
 40
1
 40
1
 40
1
 40
1
 10
31.233398
 20
63.091674
 30
0.0
 10
31.555836
 20
62.769941
 30
0.0
 10
32.079359
 20
62.767118
 30
0.0
 10
32.402503
 20
63.090968
 30
0.0
  0
SPLINE
  5
1d5
100
AcDbEntity
  8
knobs
 62
1
100
AcDbSpline
 70
8
 71
3
 72
8
 73
4
 74
0
 40
0
 40
0
 40
0
 40
0
 40
1
 40
1
 40
1
 40
1
 10
32.402503
 20
63.090968
 30
0.0
 10
32.726353
 20
63.414113
 30
0.0
 10
32.723531
 20
63.937635
 30
0.0
 10
32.401092
 20
64.260074
 30
0.0
  0
LWPOLYLINE
  5
1d6
100
AcDbEntity
  8
knobs
 62
1
100
AcDbPolyline
 90
2
 70
1
 10
31.817315
 20
66.851297
 30
0.0
 10
31.817315
 20
66.851297
 30
0.0
  0
LWPOLYLINE
  5
1d7
100
AcDbEntity
  8
knobs
 62
1
100
AcDbPolyline
 90
2
 70
1
 10
32.401092
 20
64.260074
 30
0.0
 10
32.401092
 20
64.260074
 30
0.0
  0
LWPOLYLINE
  5
1d8
100
AcDbEntity
  8
knobs
 62
1
100
AcDbPolyline
 90
2
 70
0
 10
31.817668
 20
63.675944
 30
0.0
 10
34.062393
 20
61.431219
 30
0.0
  0
LWPOLYLINE
  5
1d9
100
AcDbEntity
  8
knobs
 62
1
100
AcDbPolyline
 90
2
 70
0
 10
31.817668
 20
63.675944
 30
0.0
 10
34.062393
 20
65.921375
 30
0.0
  0
LWPOLYLINE
  5
1da
100
AcDbEntity
  8
knobs
 62
1
100
AcDbPolyline
 90
2
 70
0
 10
31.817668
 20
63.675944
 30
0.0
 10
29.571885
 20
65.921375
 30
0.0
  0
SPLINE
  5
1db
100
AcDbEntity
  8
knobs
 62
1
100
AcDbSpline
 70
8
 71
3
 72
8
 73
4
 74
0
 40
0
 40
0
 40
0
 40
0
 40
1
 40
1
 40
1
 40
1
 10
31.817315
 20
76.376650
 30
0.0
 10
38.831243
 20
76.376650
 30
0.0
 10
44.517315
 20
70.690578
 30
0.0
 10
44.517315
 20
63.676650
 30
0.0
  0
SPLINE
  5
1dc
100
AcDbEntity
  8
knobs
 62
1
100
AcDbSpline
 70
8
 71
3
 72
8
 73
4
 74
0
 40
0
 40
0
 40
0
 40
0
 40
1
 40
1
 40
1
 40
1
 10
44.517315
 20
63.676650
 30
0.0
 10
44.517315
 20
56.662722
 30
0.0
 10
38.831243
 20
50.976650
 30
0.0
 10
31.817315
 20
50.976650
 30
0.0
  0
SPLINE
  5
1dd
100
AcDbEntity
  8
knobs
 62
1
100
AcDbSpline
 70
8
 71
3
 72
8
 73
4
 74
0
 40
0
 40
0
 40
0
 40
0
 40
1
 40
1
 40
1
 40
1
 10
31.817315
 20
50.976650
 30
0.0
 10
24.803388
 20
50.976650
 30
0.0
 10
19.117315
 20
56.662722
 30
0.0
 10
19.117315
 20
63.676650
 30
0.0
  0
SPLINE
  5
1de
100
AcDbEntity
  8
knobs
 62
1
100
AcDbSpline
 70
8
 71
3
 72
8
 73
4
 74
0
 40
0
 40
0
 40
0
 40
0
 40
1
 40
1
 40
1
 40
1
 10
19.117315
 20
63.676650
 30
0.0
 10
19.117315
 20
70.690578
 30
0.0
 10
24.803388
 20
76.376650
 30
0.0
 10
31.817315
 20
76.376650
 30
0.0
  0
LWPOLYLINE
  5
1df
100
AcDbEntity
  8
knobs
 62
1
100
AcDbPolyline
 90
2
 70
0
 10
31.817668
 20
63.675944
 30
0.0
 10
29.571885
 20
61.431219
 30
0.0
  0
SPLINE
  5
1e0
100
AcDbEntity
  8
knobs
 62
1
100
AcDbSpline
 70
8
 71
3
 72
8
 73
4
 74
0
 40
0
 40
0
 40
0
 40
0
 40
1
 40
1
 40
1
 40
1
 10
31.817315
 20
28.751297
 30
0.0
 10
33.570974
 20
28.751297
 30
0.0
 10
34.992315
 20
27.329956
 30
0.0
 10
34.992315
 20
25.576297
 30
0.0
  0
SPLINE
  5
1e1
100
AcDbEntity
  8
knobs
 62
1
100
AcDbSpline
 70
8
 71
3
 72
8
 73
4
 74
0
 40
0
 40
0
 40
0
 40
0
 40
1
 40
1
 40
1
 40
1
 10
34.992315
 20
25.576297
 30
0.0
 10
34.992315
 20
23.822639
 30
0.0
 10
33.570974
 20
22.401297
 30
0.0
 10
31.817315
 20
22.401297
 30
0.0
  0
SPLINE
  5
1e2
100
AcDbEntity
  8
knobs
 62
1
100
AcDbSpline
 70
8
 71
3
 72
8
 73
4
 74
0
 40
0
 40
0
 40
0
 40
0
 40
1
 40
1
 40
1
 40
1
 10
31.817315
 20
22.401297
 30
0.0
 10
30.063657
 20
22.401297
 30
0.0
 10
28.642315
 20
23.822639
 30
0.0
 10
28.642315
 20
25.576297
 30
0.0
  0
SPLINE
  5
1e3
100
AcDbEntity
  8
knobs
 62
1
100
AcDbSpline
 70
8
 71
3
 72
8
 73
4
 74
0
 40
0
 40
0
 40
0
 40
0
 40
1
 40
1
 40
1
 40
1
 10
28.642315
 20
25.576297
 30
0.0
 10
28.642315
 20
27.329956
 30
0.0
 10
30.063657
 20
28.751297
 30
0.0
 10
31.817315
 20
28.751297
 30
0.0
  0
LWPOLYLINE
  5
1e4
100
AcDbEntity
  8
knobs
 62
1
100
AcDbPolyline
 90
2
 70
1
 10
31.817315
 20
76.376650
 30
0.0
 10
31.817315
 20
76.376650
 30
0.0
  0
SPLINE
  5
1e5
100
AcDbEntity
  8
knobs
 62
1
100
AcDbSpline
 70
8
 71
3
 72
8
 73
4
 74
0
 40
0
 40
0
 40
0
 40
0
 40
1
 40
1
 40
1
 40
1
 10
32.401092
 20
26.159897
 30
0.0
 10
32.079359
 20
26.482336
 30
0.0
 10
31.555131
 20
26.484453
 30
0.0
 10
31.231986
 20
26.161309
 30
0.0
  0
SPLINE
  5
1e6
100
AcDbEntity
  8
knobs
 62
1
100
AcDbSpline
 70
8
 71
3
 72
8
 73
4
 74
0
 40
0
 40
0
 40
0
 40
0
 40
1
 40
1
 40
1
 40
1
 10
31.231986
 20
26.161309
 30
0.0
 10
30.908136
 20
25.837459
 30
0.0
 10
30.910959
 20
25.314289
 30
0.0
 10
31.233398
 20
24.991497
 30
0.0
  0
SPLINE
  5
1e7
100
AcDbEntity
  8
knobs
 62
1
100
AcDbSpline
 70
8
 71
3
 72
8
 73
4
 74
0
 40
0
 40
0
 40
0
 40
0
 40
1
 40
1
 40
1
 40
1
 10
31.233398
 20
24.991497
 30
0.0
 10
31.555836
 20
24.669764
 30
0.0
 10
32.079359
 20
24.667295
 30
0.0
 10
32.402503
 20
24.991145
 30
0.0
  0
SPLINE
  5
1e8
100
AcDbEntity
  8
knobs
 62
1
100
AcDbSpline
 70
8
 71
3
 72
8
 73
4
 74
0
 40
0
 40
0
 40
0
 40
0
 40
1
 40
1
 40
1
 40
1
 10
32.402503
 20
24.991145
 30
0.0
 10
32.726353
 20
25.314289
 30
0.0
 10
32.723531
 20
25.837459
 30
0.0
 10
32.401092
 20
26.159897
 30
0.0
  0
LWPOLYLINE
  5
1e9
100
AcDbEntity
  8
knobs
 62
1
100
AcDbPolyline
 90
2
 70
1
 10
31.817315
 20
28.751297
 30
0.0
 10
31.817315
 20
28.751297
 30
0.0
  0
LWPOLYLINE
  5
1ea
100
AcDbEntity
  8
knobs
 62
1
100
AcDbPolyline
 90
2
 70
1
 10
32.401092
 20
26.159897
 30
0.0
 10
32.401092
 20
26.159897
 30
0.0
  0
LWPOLYLINE
  5
1eb
100
AcDbEntity
  8
knobs
 62
1
100
AcDbPolyline
 90
2
 70
0
 10
31.817668
 20
25.575944
 30
0.0
 10
34.062393
 20
23.331219
 30
0.0
  0
LWPOLYLINE
  5
1ec
100
AcDbEntity
  8
knobs
 62
1
100
AcDbPolyline
 90
2
 70
0
 10
31.817668
 20
25.575944
 30
0.0
 10
34.062393
 20
27.821022
 30
0.0
  0
LWPOLYLINE
  5
1ed
100
AcDbEntity
  8
knobs
 62
1
100
AcDbPolyline
 90
2
 70
0
 10
31.817668
 20
25.575944
 30
0.0
 10
29.571885
 20
27.821022
 30
0.0
  0
SPLINE
  5
1ee
100
AcDbEntity
  8
knobs
 62
1
100
AcDbSpline
 70
8
 71
3
 72
8
 73
4
 74
0
 40
0
 40
0
 40
0
 40
0
 40
1
 40
1
 40
1
 40
1
 10
31.817315
 20
38.276650
 30
0.0
 10
38.831243
 20
38.276650
 30
0.0
 10
44.517315
 20
32.590578
 30
0.0
 10
44.517315
 20
25.576650
 30
0.0
  0
SPLINE
  5
1ef
100
AcDbEntity
  8
knobs
 62
1
100
AcDbSpline
 70
8
 71
3
 72
8
 73
4
 74
0
 40
0
 40
0
 40
0
 40
0
 40
1
 40
1
 40
1
 40
1
 10
44.517315
 20
25.576650
 30
0.0
 10
44.517315
 20
18.562722
 30
0.0
 10
38.831243
 20
12.876650
 30
0.0
 10
31.817315
 20
12.876650
 30
0.0
  0
SPLINE
  5
1f0
100
AcDbEntity
  8
knobs
 62
1
100
AcDbSpline
 70
8
 71
3
 72
8
 73
4
 74
0
 40
0
 40
0
 40
0
 40
0
 40
1
 40
1
 40
1
 40
1
 10
31.817315
 20
12.876650
 30
0.0
 10
24.803388
 20
12.876650
 30
0.0
 10
19.117315
 20
18.562722
 30
0.0
 10
19.117315
 20
25.576650
 30
0.0
  0
SPLINE
  5
1f1
100
AcDbEntity
  8
knobs
 62
1
100
AcDbSpline
 70
8
 71
3
 72
8
 73
4
 74
0
 40
0
 40
0
 40
0
 40
0
 40
1
 40
1
 40
1
 40
1
 10
19.117315
 20
25.576650
 30
0.0
 10
19.117315
 20
32.590578
 30
0.0
 10
24.803388
 20
38.276650
 30
0.0
 10
31.817315
 20
38.276650
 30
0.0
  0
LWPOLYLINE
  5
1f2
100
AcDbEntity
  8
knobs
 62
1
100
AcDbPolyline
 90
2
 70
0
 10
31.817668
 20
25.575944
 30
0.0
 10
29.571885
 20
23.331219
 30
0.0
  0
SPLINE
  5
1f3
100
AcDbEntity
  8
knobs
 62
1
100
AcDbSpline
 70
8
 71
3
 72
8
 73
4
 74
0
 40
0
 40
0
 40
0
 40
0
 40
1
 40
1
 40
1
 40
1
 10
178.705339
 20
50.493627
 30
0.0
 10
178.354678
 20
50.493627
 30
0.0
 10
178.069986
 20
50.209288
 30
0.0
 10
178.069986
 20
49.858627
 30
0.0
  0
SPLINE
  5
1f4
100
AcDbEntity
  8
knobs
 62
1
100
AcDbSpline
 70
8
 71
3
 72
8
 73
4
 74
0
 40
0
 40
0
 40
0
 40
0
 40
1
 40
1
 40
1
 40
1
 10
178.069986
 20
49.858627
 30
0.0
 10
178.069986
 20
49.507965
 30
0.0
 10
178.354678
 20
49.223274
 30
0.0
 10
178.705339
 20
49.223274
 30
0.0
  0
SPLINE
  5
1f5
100
AcDbEntity
  8
knobs
 62
1
100
AcDbSpline
 70
8
 71
3
 72
8
 73
4
 74
0
 40
0
 40
0
 40
0
 40
0
 40
1
 40
1
 40
1
 40
1
 10
178.705339
 20
49.223274
 30
0.0
 10
179.056000
 20
49.223274
 30
0.0
 10
179.339986
 20
49.507965
 30
0.0
 10
179.339986
 20
49.858627
 30
0.0
  0
SPLINE
  5
1f6
100
AcDbEntity
  8
knobs
 62
1
100
AcDbSpline
 70
8
 71
3
 72
8
 73
4
 74
0
 40
0
 40
0
 40
0
 40
0
 40
1
 40
1
 40
1
 40
1
 10
179.339986
 20
49.858627
 30
0.0
 10
179.339986
 20
50.209288
 30
0.0
 10
179.056000
 20
50.493627
 30
0.0
 10
178.705339
 20
50.493627
 30
0.0
  0
LWPOLYLINE
  5
1f7
100
AcDbEntity
  8
knobs
 62
1
100
AcDbPolyline
 90
2
 70
1
 10
31.817315
 20
38.276650
 30
0.0
 10
31.817315
 20
38.276650
 30
0.0
  0
SPLINE
  5
1f8
100
AcDbEntity
  8
knobs
 62
1
100
AcDbSpline
 70
8
 71
3
 72
8
 73
4
 74
0
 40
0
 40
0
 40
0
 40
0
 40
1
 40
1
 40
1
 40
1
 10
178.706009
 20
69.541228
 30
0.0
 10
178.355348
 20
69.541228
 30
0.0
 10
178.070656
 20
69.256889
 30
0.0
 10
178.070656
 20
68.906228
 30
0.0
  0
SPLINE
  5
1f9
100
AcDbEntity
  8
knobs
 62
1
100
AcDbSpline
 70
8
 71
3
 72
8
 73
4
 74
0
 40
0
 40
0
 40
0
 40
0
 40
1
 40
1
 40
1
 40
1
 10
178.070656
 20
68.906228
 30
0.0
 10
178.070656
 20
68.555567
 30
0.0
 10
178.355348
 20
68.271228
 30
0.0
 10
178.706009
 20
68.271228
 30
0.0
  0
SPLINE
  5
1fa
100
AcDbEntity
  8
knobs
 62
1
100
AcDbSpline
 70
8
 71
3
 72
8
 73
4
 74
0
 40
0
 40
0
 40
0
 40
0
 40
1
 40
1
 40
1
 40
1
 10
178.706009
 20
68.271228
 30
0.0
 10
179.056670
 20
68.271228
 30
0.0
 10
179.340656
 20
68.555567
 30
0.0
 10
179.340656
 20
68.906228
 30
0.0
  0
SPLINE
  5
1fb
100
AcDbEntity
  8
knobs
 62
1
100
AcDbSpline
 70
8
 71
3
 72
8
 73
4
 74
0
 40
0
 40
0
 40
0
 40
0
 40
1
 40
1
 40
1
 40
1
 10
179.340656
 20
68.906228
 30
0.0
 10
179.339951
 20
69.256889
 30
0.0
 10
179.056670
 20
69.541228
 30
0.0
 10
178.706009
 20
69.541228
 30
0.0
  0
LWPOLYLINE
  5
1fc
100
AcDbEntity
  8
knobs
 62
1
100
AcDbPolyline
 90
2
 70
1
 10
178.705339
 20
50.493627
 30
0.0
 10
178.705339
 20
50.493627
 30
0.0
  0
SPLINE
  5
1fd
100
AcDbEntity
  8
knobs
 62
1
100
AcDbSpline
 70
8
 71
3
 72
8
 73
4
 74
0
 40
0
 40
0
 40
0
 40
0
 40
1
 40
1
 40
1
 40
1
 10
178.706009
 20
88.591228
 30
0.0
 10
178.355348
 20
88.591228
 30
0.0
 10
178.070656
 20
88.306889
 30
0.0
 10
178.070656
 20
87.956228
 30
0.0
  0
SPLINE
  5
1fe
100
AcDbEntity
  8
knobs
 62
1
100
AcDbSpline
 70
8
 71
3
 72
8
 73
4
 74
0
 40
0
 40
0
 40
0
 40
0
 40
1
 40
1
 40
1
 40
1
 10
178.070656
 20
87.956228
 30
0.0
 10
178.070656
 20
87.605567
 30
0.0
 10
178.355348
 20
87.321228
 30
0.0
 10
178.706009
 20
87.321228
 30
0.0
  0
SPLINE
  5
1ff
100
AcDbEntity
  8
knobs
 62
1
100
AcDbSpline
 70
8
 71
3
 72
8
 73
4
 74
0
 40
0
 40
0
 40
0
 40
0
 40
1
 40
1
 40
1
 40
1
 10
178.706009
 20
87.321228
 30
0.0
 10
179.056670
 20
87.321228
 30
0.0
 10
179.340656
 20
87.605567
 30
0.0
 10
179.340656
 20
87.956228
 30
0.0
  0
SPLINE
  5
200
100
AcDbEntity
  8
knobs
 62
1
100
AcDbSpline
 70
8
 71
3
 72
8
 73
4
 74
0
 40
0
 40
0
 40
0
 40
0
 40
1
 40
1
 40
1
 40
1
 10
179.340656
 20
87.956228
 30
0.0
 10
179.339951
 20
88.306889
 30
0.0
 10
179.056670
 20
88.591228
 30
0.0
 10
178.706009
 20
88.591228
 30
0.0
  0
LWPOLYLINE
  5
201
100
AcDbEntity
  8
knobs
 62
1
100
AcDbPolyline
 90
2
 70
1
 10
178.706009
 20
69.541228
 30
0.0
 10
178.706009
 20
69.541228
 30
0.0
  0
SPLINE
  5
202
100
AcDbEntity
  8
knobs
 62
1
100
AcDbSpline
 70
8
 71
3
 72
8
 73
4
 74
0
 40
0
 40
0
 40
0
 40
0
 40
1
 40
1
 40
1
 40
1
 10
178.706009
 20
107.641228
 30
0.0
 10
178.355348
 20
107.641228
 30
0.0
 10
178.070656
 20
107.356889
 30
0.0
 10
178.070656
 20
107.006228
 30
0.0
  0
SPLINE
  5
203
100
AcDbEntity
  8
knobs
 62
1
100
AcDbSpline
 70
8
 71
3
 72
8
 73
4
 74
0
 40
0
 40
0
 40
0
 40
0
 40
1
 40
1
 40
1
 40
1
 10
178.070656
 20
107.006228
 30
0.0
 10
178.070656
 20
106.655567
 30
0.0
 10
178.355348
 20
106.371228
 30
0.0
 10
178.706009
 20
106.371228
 30
0.0
  0
SPLINE
  5
204
100
AcDbEntity
  8
knobs
 62
1
100
AcDbSpline
 70
8
 71
3
 72
8
 73
4
 74
0
 40
0
 40
0
 40
0
 40
0
 40
1
 40
1
 40
1
 40
1
 10
178.706009
 20
106.371228
 30
0.0
 10
179.056670
 20
106.371228
 30
0.0
 10
179.340656
 20
106.655567
 30
0.0
 10
179.340656
 20
107.006228
 30
0.0
  0
SPLINE
  5
205
100
AcDbEntity
  8
knobs
 62
1
100
AcDbSpline
 70
8
 71
3
 72
8
 73
4
 74
0
 40
0
 40
0
 40
0
 40
0
 40
1
 40
1
 40
1
 40
1
 10
179.340656
 20
107.006228
 30
0.0
 10
179.339951
 20
107.356889
 30
0.0
 10
179.056670
 20
107.641228
 30
0.0
 10
178.706009
 20
107.641228
 30
0.0
  0
LWPOLYLINE
  5
206
100
AcDbEntity
  8
knobs
 62
1
100
AcDbPolyline
 90
2
 70
1
 10
178.706009
 20
88.591228
 30
0.0
 10
178.706009
 20
88.591228
 30
0.0
  0
LWPOLYLINE
  5
207
100
AcDbEntity
  8
knobs
 62
1
100
AcDbPolyline
 90
2
 70
1
 10
178.706009
 20
107.641228
 30
0.0
 10
178.706009
 20
107.641228
 30
0.0
  0
SPLINE
  5
208
100
AcDbEntity
  8
knobs
 62
1
100
AcDbSpline
 70
8
 71
3
 72
8
 73
4
 74
0
 40
0
 40
0
 40
0
 40
0
 40
1
 40
1
 40
1
 40
1
 10
178.703963
 20
46.682674
 30
0.0
 10
180.457621
 20
46.682674
 30
0.0
 10
181.878963
 20
48.103663
 30
0.0
 10
181.878963
 20
49.857674
 30
0.0
  0
SPLINE
  5
209
100
AcDbEntity
  8
knobs
 62
1
100
AcDbSpline
 70
8
 71
3
 72
8
 73
4
 74
0
 40
0
 40
0
 40
0
 40
0
 40
1
 40
1
 40
1
 40
1
 10
181.878963
 20
49.857674
 30
0.0
 10
181.878963
 20
51.611332
 30
0.0
 10
180.457621
 20
53.032674
 30
0.0
 10
178.703963
 20
53.032674
 30
0.0
  0
SPLINE
  5
20a
100
AcDbEntity
  8
knobs
 62
1
100
AcDbSpline
 70
8
 71
3
 72
8
 73
4
 74
0
 40
0
 40
0
 40
0
 40
0
 40
1
 40
1
 40
1
 40
1
 10
178.703963
 20
53.032674
 30
0.0
 10
176.950305
 20
53.032674
 30
0.0
 10
175.528963
 20
51.611332
 30
0.0
 10
175.528963
 20
49.857674
 30
0.0
  0
SPLINE
  5
20b
100
AcDbEntity
  8
knobs
 62
1
100
AcDbSpline
 70
8
 71
3
 72
8
 73
4
 74
0
 40
0
 40
0
 40
0
 40
0
 40
1
 40
1
 40
1
 40
1
 10
175.528963
 20
49.857674
 30
0.0
 10
175.528963
 20
48.104369
 30
0.0
 10
176.950305
 20
46.682674
 30
0.0
 10
178.703963
 20
46.682674
 30
0.0
  0
LWPOLYLINE
  5
20c
100
AcDbEntity
  8
knobs
 62
1
100
AcDbPolyline
 90
9
 70
1
 10
182.335775
 20
51.553336
 30
0.0
 10
179.616917
 20
53.667180
 30
0.0
 10
176.225664
 20
52.912589
 30
0.0
 10
174.716481
 20
49.857533
 30
0.0
 10
176.225664
 20
46.802477
 30
0.0
 10
179.616917
 20
46.047180
 30
0.0
 10
182.335775
 20
48.162436
 30
0.0
 10
182.335775
 20
51.553336
 30
0.0
 10
182.335775
 20
51.553336
 30
0.0
  0
LWPOLYLINE
  5
20d
100
AcDbEntity
  8
knobs
 62
1
100
AcDbPolyline
 90
2
 70
1
 10
178.703963
 20
46.682674
 30
0.0
 10
178.703963
 20
46.682674
 30
0.0
  0
LWPOLYLINE
  5
20e
100
AcDbEntity
  8
knobs
 62
4
100
AcDbPolyline
 90
6
 70
1
 10
172.354069
 20
46.682674
 30
0.0
 10
185.054069
 20
46.682674
 30
0.0
 10
185.054069
 20
53.032674
 30
0.0
 10
172.354069
 20
53.032674
 30
0.0
 10
172.354069
 20
46.682674
 30
0.0
 10
172.354069
 20
46.682674
 30
0.0
  0
SPLINE
  5
20f
100
AcDbEntity
  8
knobs
 62
1
100
AcDbSpline
 70
8
 71
3
 72
8
 73
4
 74
0
 40
0
 40
0
 40
0
 40
0
 40
1
 40
1
 40
1
 40
1
 10
178.703963
 20
65.732321
 30
0.0
 10
180.457621
 20
65.732321
 30
0.0
 10
181.878963
 20
67.153663
 30
0.0
 10
181.878963
 20
68.907321
 30
0.0
  0
SPLINE
  5
210
100
AcDbEntity
  8
knobs
 62
1
100
AcDbSpline
 70
8
 71
3
 72
8
 73
4
 74
0
 40
0
 40
0
 40
0
 40
0
 40
1
 40
1
 40
1
 40
1
 10
181.878963
 20
68.907321
 30
0.0
 10
181.878963
 20
70.660980
 30
0.0
 10
180.457621
 20
72.082321
 30
0.0
 10
178.703963
 20
72.082321
 30
0.0
  0
SPLINE
  5
211
100
AcDbEntity
  8
knobs
 62
1
100
AcDbSpline
 70
8
 71
3
 72
8
 73
4
 74
0
 40
0
 40
0
 40
0
 40
0
 40
1
 40
1
 40
1
 40
1
 10
178.703963
 20
72.082321
 30
0.0
 10
176.950305
 20
72.082321
 30
0.0
 10
175.528963
 20
70.660980
 30
0.0
 10
175.528963
 20
68.907321
 30
0.0
  0
SPLINE
  5
212
100
AcDbEntity
  8
knobs
 62
1
100
AcDbSpline
 70
8
 71
3
 72
8
 73
4
 74
0
 40
0
 40
0
 40
0
 40
0
 40
1
 40
1
 40
1
 40
1
 10
175.528963
 20
68.907321
 30
0.0
 10
175.528963
 20
67.154016
 30
0.0
 10
176.950305
 20
65.732321
 30
0.0
 10
178.703963
 20
65.732321
 30
0.0
  0
LWPOLYLINE
  5
213
100
AcDbEntity
  8
knobs
 62
1
100
AcDbPolyline
 90
9
 70
1
 10
182.335775
 20
70.602983
 30
0.0
 10
179.616917
 20
72.716827
 30
0.0
 10
176.225664
 20
71.962236
 30
0.0
 10
174.716481
 20
68.907180
 30
0.0
 10
176.225664
 20
65.852125
 30
0.0
 10
179.616917
 20
65.096827
 30
0.0
 10
182.335775
 20
67.211730
 30
0.0
 10
182.335775
 20
70.602983
 30
0.0
 10
182.335775
 20
70.602983
 30
0.0
  0
LWPOLYLINE
  5
214
100
AcDbEntity
  8
knobs
 62
1
100
AcDbPolyline
 90
2
 70
1
 10
178.703963
 20
65.732321
 30
0.0
 10
178.703963
 20
65.732321
 30
0.0
  0
LWPOLYLINE
  5
215
100
AcDbEntity
  8
knobs
 62
4
100
AcDbPolyline
 90
6
 70
1
 10
172.354069
 20
65.732321
 30
0.0
 10
185.054069
 20
65.732321
 30
0.0
 10
185.054069
 20
72.082321
 30
0.0
 10
172.354069
 20
72.082321
 30
0.0
 10
172.354069
 20
65.732321
 30
0.0
 10
172.354069
 20
65.732321
 30
0.0
  0
SPLINE
  5
216
100
AcDbEntity
  8
knobs
 62
1
100
AcDbSpline
 70
8
 71
3
 72
8
 73
4
 74
0
 40
0
 40
0
 40
0
 40
0
 40
1
 40
1
 40
1
 40
1
 10
178.703963
 20
84.782321
 30
0.0
 10
180.457621
 20
84.782321
 30
0.0
 10
181.878963
 20
86.203663
 30
0.0
 10
181.878963
 20
87.957321
 30
0.0
  0
SPLINE
  5
217
100
AcDbEntity
  8
knobs
 62
1
100
AcDbSpline
 70
8
 71
3
 72
8
 73
4
 74
0
 40
0
 40
0
 40
0
 40
0
 40
1
 40
1
 40
1
 40
1
 10
181.878963
 20
87.957321
 30
0.0
 10
181.878963
 20
89.710980
 30
0.0
 10
180.457621
 20
91.132321
 30
0.0
 10
178.703963
 20
91.132321
 30
0.0
  0
SPLINE
  5
218
100
AcDbEntity
  8
knobs
 62
1
100
AcDbSpline
 70
8
 71
3
 72
8
 73
4
 74
0
 40
0
 40
0
 40
0
 40
0
 40
1
 40
1
 40
1
 40
1
 10
178.703963
 20
91.132321
 30
0.0
 10
176.950305
 20
91.132321
 30
0.0
 10
175.528963
 20
89.710980
 30
0.0
 10
175.528963
 20
87.957321
 30
0.0
  0
SPLINE
  5
219
100
AcDbEntity
  8
knobs
 62
1
100
AcDbSpline
 70
8
 71
3
 72
8
 73
4
 74
0
 40
0
 40
0
 40
0
 40
0
 40
1
 40
1
 40
1
 40
1
 10
175.528963
 20
87.957321
 30
0.0
 10
175.528963
 20
86.204016
 30
0.0
 10
176.950305
 20
84.782321
 30
0.0
 10
178.703963
 20
84.782321
 30
0.0
  0
LWPOLYLINE
  5
21a
100
AcDbEntity
  8
knobs
 62
1
100
AcDbPolyline
 90
9
 70
1
 10
182.335775
 20
89.652983
 30
0.0
 10
179.616917
 20
91.766827
 30
0.0
 10
176.225664
 20
91.012236
 30
0.0
 10
174.716481
 20
87.957180
 30
0.0
 10
176.225664
 20
84.902125
 30
0.0
 10
179.616917
 20
84.146827
 30
0.0
 10
182.335775
 20
86.261730
 30
0.0
 10
182.335775
 20
89.652983
 30
0.0
 10
182.335775
 20
89.652983
 30
0.0
  0
LWPOLYLINE
  5
21b
100
AcDbEntity
  8
knobs
 62
1
100
AcDbPolyline
 90
2
 70
1
 10
178.703963
 20
84.782321
 30
0.0
 10
178.703963
 20
84.782321
 30
0.0
  0
LWPOLYLINE
  5
21c
100
AcDbEntity
  8
knobs
 62
4
100
AcDbPolyline
 90
6
 70
1
 10
172.354069
 20
84.782321
 30
0.0
 10
185.054069
 20
84.782321
 30
0.0
 10
185.054069
 20
91.132321
 30
0.0
 10
172.354069
 20
91.132321
 30
0.0
 10
172.354069
 20
84.782321
 30
0.0
 10
172.354069
 20
84.782321
 30
0.0
  0
SPLINE
  5
21d
100
AcDbEntity
  8
knobs
 62
1
100
AcDbSpline
 70
8
 71
3
 72
8
 73
4
 74
0
 40
0
 40
0
 40
0
 40
0
 40
1
 40
1
 40
1
 40
1
 10
178.703963
 20
103.832321
 30
0.0
 10
180.457621
 20
103.832321
 30
0.0
 10
181.878963
 20
105.253663
 30
0.0
 10
181.878963
 20
107.007321
 30
0.0
  0
SPLINE
  5
21e
100
AcDbEntity
  8
knobs
 62
1
100
AcDbSpline
 70
8
 71
3
 72
8
 73
4
 74
0
 40
0
 40
0
 40
0
 40
0
 40
1
 40
1
 40
1
 40
1
 10
181.878963
 20
107.007321
 30
0.0
 10
181.878963
 20
108.760980
 30
0.0
 10
180.457621
 20
110.182321
 30
0.0
 10
178.703963
 20
110.182321
 30
0.0
  0
SPLINE
  5
21f
100
AcDbEntity
  8
knobs
 62
1
100
AcDbSpline
 70
8
 71
3
 72
8
 73
4
 74
0
 40
0
 40
0
 40
0
 40
0
 40
1
 40
1
 40
1
 40
1
 10
178.703963
 20
110.182321
 30
0.0
 10
176.950305
 20
110.182321
 30
0.0
 10
175.528963
 20
108.760980
 30
0.0
 10
175.528963
 20
107.007321
 30
0.0
  0
SPLINE
  5
220
100
AcDbEntity
  8
knobs
 62
1
100
AcDbSpline
 70
8
 71
3
 72
8
 73
4
 74
0
 40
0
 40
0
 40
0
 40
0
 40
1
 40
1
 40
1
 40
1
 10
175.528963
 20
107.007321
 30
0.0
 10
175.528963
 20
105.254016
 30
0.0
 10
176.950305
 20
103.832321
 30
0.0
 10
178.703963
 20
103.832321
 30
0.0
  0
LWPOLYLINE
  5
221
100
AcDbEntity
  8
knobs
 62
1
100
AcDbPolyline
 90
9
 70
1
 10
182.335775
 20
108.702983
 30
0.0
 10
179.616917
 20
110.816827
 30
0.0
 10
176.225664
 20
110.062236
 30
0.0
 10
174.716481
 20
107.007180
 30
0.0
 10
176.225664
 20
103.952125
 30
0.0
 10
179.616917
 20
103.196827
 30
0.0
 10
182.335775
 20
105.311730
 30
0.0
 10
182.335775
 20
108.702983
 30
0.0
 10
182.335775
 20
108.702983
 30
0.0
  0
LWPOLYLINE
  5
222
100
AcDbEntity
  8
knobs
 62
1
100
AcDbPolyline
 90
2
 70
1
 10
178.703963
 20
103.832321
 30
0.0
 10
178.703963
 20
103.832321
 30
0.0
  0
SPLINE
  5
223
100
AcDbEntity
  8
knobs
 62
1
100
AcDbSpline
 70
8
 71
3
 72
8
 73
4
 74
0
 40
0
 40
0
 40
0
 40
0
 40
1
 40
1
 40
1
 40
1
 10
112.664210
 20
35.571197
 30
0.0
 10
112.664210
 20
35.921858
 30
0.0
 10
112.380224
 20
36.206550
 30
0.0
 10
112.029563
 20
36.206550
 30
0.0
  0
SPLINE
  5
224
100
AcDbEntity
  8
knobs
 62
1
100
AcDbSpline
 70
8
 71
3
 72
8
 73
4
 74
0
 40
0
 40
0
 40
0
 40
0
 40
1
 40
1
 40
1
 40
1
 10
112.029563
 20
36.206550
 30
0.0
 10
111.678902
 20
36.206550
 30
0.0
 10
111.393857
 20
35.921858
 30
0.0
 10
111.393857
 20
35.571197
 30
0.0
  0
SPLINE
  5
225
100
AcDbEntity
  8
knobs
 62
1
100
AcDbSpline
 70
8
 71
3
 72
8
 73
4
 74
0
 40
0
 40
0
 40
0
 40
0
 40
1
 40
1
 40
1
 40
1
 10
111.393857
 20
35.571197
 30
0.0
 10
111.393857
 20
35.220536
 30
0.0
 10
111.678902
 20
34.936550
 30
0.0
 10
112.029563
 20
34.936550
 30
0.0
  0
SPLINE
  5
226
100
AcDbEntity
  8
knobs
 62
1
100
AcDbSpline
 70
8
 71
3
 72
8
 73
4
 74
0
 40
0
 40
0
 40
0
 40
0
 40
1
 40
1
 40
1
 40
1
 10
112.029563
 20
34.936550
 30
0.0
 10
112.380224
 20
34.936550
 30
0.0
 10
112.664210
 20
35.220536
 30
0.0
 10
112.664210
 20
35.571197
 30
0.0
  0
LWPOLYLINE
  5
227
100
AcDbEntity
  8
knobs
 62
4
100
AcDbPolyline
 90
6
 70
1
 10
172.354069
 20
103.832321
 30
0.0
 10
185.054069
 20
103.832321
 30
0.0
 10
185.054069
 20
110.182321
 30
0.0
 10
172.354069
 20
110.182321
 30
0.0
 10
172.354069
 20
103.832321
 30
0.0
 10
172.354069
 20
103.832321
 30
0.0
  0
SPLINE
  5
228
100
AcDbEntity
  8
knobs
 62
1
100
AcDbSpline
 70
8
 71
3
 72
8
 73
4
 74
0
 40
0
 40
0
 40
0
 40
0
 40
1
 40
1
 40
1
 40
1
 10
115.204633
 20
35.571197
 30
0.0
 10
115.204633
 20
37.324856
 30
0.0
 10
113.783292
 20
38.746197
 30
0.0
 10
112.029633
 20
38.746197
 30
0.0
  0
SPLINE
  5
229
100
AcDbEntity
  8
knobs
 62
1
100
AcDbSpline
 70
8
 71
3
 72
8
 73
4
 74
0
 40
0
 40
0
 40
0
 40
0
 40
1
 40
1
 40
1
 40
1
 10
112.029633
 20
38.746197
 30
0.0
 10
110.275622
 20
38.746197
 30
0.0
 10
108.854633
 20
37.324856
 30
0.0
 10
108.854633
 20
35.571197
 30
0.0
  0
SPLINE
  5
22a
100
AcDbEntity
  8
knobs
 62
1
100
AcDbSpline
 70
8
 71
3
 72
8
 73
4
 74
0
 40
0
 40
0
 40
0
 40
0
 40
1
 40
1
 40
1
 40
1
 10
108.854633
 20
35.571197
 30
0.0
 10
108.854633
 20
33.817539
 30
0.0
 10
110.275622
 20
32.396197
 30
0.0
 10
112.029633
 20
32.396197
 30
0.0
  0
SPLINE
  5
22b
100
AcDbEntity
  8
knobs
 62
1
100
AcDbSpline
 70
8
 71
3
 72
8
 73
4
 74
0
 40
0
 40
0
 40
0
 40
0
 40
1
 40
1
 40
1
 40
1
 10
112.029633
 20
32.396197
 30
0.0
 10
113.783292
 20
32.396197
 30
0.0
 10
115.204633
 20
33.817539
 30
0.0
 10
115.204633
 20
35.571197
 30
0.0
  0
LWPOLYLINE
  5
22c
100
AcDbEntity
  8
knobs
 62
1
100
AcDbPolyline
 90
2
 70
1
 10
112.664210
 20
35.571197
 30
0.0
 10
112.664210
 20
35.571197
 30
0.0
  0
SPLINE
  5
22d
100
AcDbEntity
  8
knobs
 62
1
100
AcDbSpline
 70
8
 71
3
 72
8
 73
4
 74
0
 40
0
 40
0
 40
0
 40
0
 40
1
 40
1
 40
1
 40
1
 10
131.714210
 20
35.571197
 30
0.0
 10
131.714210
 20
35.921858
 30
0.0
 10
131.430224
 20
36.206550
 30
0.0
 10
131.079563
 20
36.206550
 30
0.0
  0
SPLINE
  5
22e
100
AcDbEntity
  8
knobs
 62
1
100
AcDbSpline
 70
8
 71
3
 72
8
 73
4
 74
0
 40
0
 40
0
 40
0
 40
0
 40
1
 40
1
 40
1
 40
1
 10
131.079563
 20
36.206550
 30
0.0
 10
130.728902
 20
36.206550
 30
0.0
 10
130.444210
 20
35.921858
 30
0.0
 10
130.444210
 20
35.571197
 30
0.0
  0
SPLINE
  5
22f
100
AcDbEntity
  8
knobs
 62
1
100
AcDbSpline
 70
8
 71
3
 72
8
 73
4
 74
0
 40
0
 40
0
 40
0
 40
0
 40
1
 40
1
 40
1
 40
1
 10
130.444210
 20
35.571197
 30
0.0
 10
130.444210
 20
35.220536
 30
0.0
 10
130.728902
 20
34.936550
 30
0.0
 10
131.079563
 20
34.936550
 30
0.0
  0
SPLINE
  5
230
100
AcDbEntity
  8
knobs
 62
1
100
AcDbSpline
 70
8
 71
3
 72
8
 73
4
 74
0
 40
0
 40
0
 40
0
 40
0
 40
1
 40
1
 40
1
 40
1
 10
131.079563
 20
34.936550
 30
0.0
 10
131.430224
 20
34.936550
 30
0.0
 10
131.714210
 20
35.220536
 30
0.0
 10
131.714210
 20
35.571197
 30
0.0
  0
LWPOLYLINE
  5
231
100
AcDbEntity
  8
knobs
 62
1
100
AcDbPolyline
 90
2
 70
1
 10
115.204633
 20
35.571197
 30
0.0
 10
115.204633
 20
35.571197
 30
0.0
  0
SPLINE
  5
232
100
AcDbEntity
  8
knobs
 62
1
100
AcDbSpline
 70
8
 71
3
 72
8
 73
4
 74
0
 40
0
 40
0
 40
0
 40
0
 40
1
 40
1
 40
1
 40
1
 10
134.254633
 20
35.571197
 30
0.0
 10
134.254633
 20
37.324856
 30
0.0
 10
132.833292
 20
38.746197
 30
0.0
 10
131.079633
 20
38.746197
 30
0.0
  0
SPLINE
  5
233
100
AcDbEntity
  8
knobs
 62
1
100
AcDbSpline
 70
8
 71
3
 72
8
 73
4
 74
0
 40
0
 40
0
 40
0
 40
0
 40
1
 40
1
 40
1
 40
1
 10
131.079633
 20
38.746197
 30
0.0
 10
129.325975
 20
38.746197
 30
0.0
 10
127.904633
 20
37.324856
 30
0.0
 10
127.904633
 20
35.571197
 30
0.0
  0
SPLINE
  5
234
100
AcDbEntity
  8
knobs
 62
1
100
AcDbSpline
 70
8
 71
3
 72
8
 73
4
 74
0
 40
0
 40
0
 40
0
 40
0
 40
1
 40
1
 40
1
 40
1
 10
127.904633
 20
35.571197
 30
0.0
 10
127.904633
 20
33.817539
 30
0.0
 10
129.325975
 20
32.396197
 30
0.0
 10
131.079633
 20
32.396197
 30
0.0
  0
SPLINE
  5
235
100
AcDbEntity
  8
knobs
 62
1
100
AcDbSpline
 70
8
 71
3
 72
8
 73
4
 74
0
 40
0
 40
0
 40
0
 40
0
 40
1
 40
1
 40
1
 40
1
 10
131.079633
 20
32.396197
 30
0.0
 10
132.833292
 20
32.396197
 30
0.0
 10
134.254633
 20
33.817539
 30
0.0
 10
134.254633
 20
35.571197
 30
0.0
  0
LWPOLYLINE
  5
236
100
AcDbEntity
  8
knobs
 62
1
100
AcDbPolyline
 90
2
 70
1
 10
131.714210
 20
35.571197
 30
0.0
 10
131.714210
 20
35.571197
 30
0.0
  0
SPLINE
  5
237
100
AcDbEntity
  8
knobs
 62
1
100
AcDbSpline
 70
8
 71
3
 72
8
 73
4
 74
0
 40
0
 40
0
 40
0
 40
0
 40
1
 40
1
 40
1
 40
1
 10
150.764210
 20
35.571197
 30
0.0
 10
150.764210
 20
35.921858
 30
0.0
 10
150.480224
 20
36.206550
 30
0.0
 10
150.129563
 20
36.206550
 30
0.0
  0
SPLINE
  5
238
100
AcDbEntity
  8
knobs
 62
1
100
AcDbSpline
 70
8
 71
3
 72
8
 73
4
 74
0
 40
0
 40
0
 40
0
 40
0
 40
1
 40
1
 40
1
 40
1
 10
150.129563
 20
36.206550
 30
0.0
 10
149.778902
 20
36.206550
 30
0.0
 10
149.494210
 20
35.921858
 30
0.0
 10
149.494210
 20
35.571197
 30
0.0
  0
SPLINE
  5
239
100
AcDbEntity
  8
knobs
 62
1
100
AcDbSpline
 70
8
 71
3
 72
8
 73
4
 74
0
 40
0
 40
0
 40
0
 40
0
 40
1
 40
1
 40
1
 40
1
 10
149.494210
 20
35.571197
 30
0.0
 10
149.494210
 20
35.220536
 30
0.0
 10
149.778902
 20
34.936550
 30
0.0
 10
150.129563
 20
34.936550
 30
0.0
  0
SPLINE
  5
23a
100
AcDbEntity
  8
knobs
 62
1
100
AcDbSpline
 70
8
 71
3
 72
8
 73
4
 74
0
 40
0
 40
0
 40
0
 40
0
 40
1
 40
1
 40
1
 40
1
 10
150.129563
 20
34.936550
 30
0.0
 10
150.480224
 20
34.936550
 30
0.0
 10
150.764210
 20
35.220536
 30
0.0
 10
150.764210
 20
35.571197
 30
0.0
  0
LWPOLYLINE
  5
23b
100
AcDbEntity
  8
knobs
 62
1
100
AcDbPolyline
 90
2
 70
1
 10
134.254633
 20
35.571197
 30
0.0
 10
134.254633
 20
35.571197
 30
0.0
  0
SPLINE
  5
23c
100
AcDbEntity
  8
knobs
 62
1
100
AcDbSpline
 70
8
 71
3
 72
8
 73
4
 74
0
 40
0
 40
0
 40
0
 40
0
 40
1
 40
1
 40
1
 40
1
 10
153.304633
 20
35.571197
 30
0.0
 10
153.304633
 20
37.324856
 30
0.0
 10
151.883292
 20
38.746197
 30
0.0
 10
150.129633
 20
38.746197
 30
0.0
  0
SPLINE
  5
23d
100
AcDbEntity
  8
knobs
 62
1
100
AcDbSpline
 70
8
 71
3
 72
8
 73
4
 74
0
 40
0
 40
0
 40
0
 40
0
 40
1
 40
1
 40
1
 40
1
 10
150.129633
 20
38.746197
 30
0.0
 10
148.375975
 20
38.746197
 30
0.0
 10
146.954633
 20
37.324856
 30
0.0
 10
146.954633
 20
35.571197
 30
0.0
  0
SPLINE
  5
23e
100
AcDbEntity
  8
knobs
 62
1
100
AcDbSpline
 70
8
 71
3
 72
8
 73
4
 74
0
 40
0
 40
0
 40
0
 40
0
 40
1
 40
1
 40
1
 40
1
 10
146.954633
 20
35.571197
 30
0.0
 10
146.954633
 20
33.817539
 30
0.0
 10
148.375975
 20
32.396197
 30
0.0
 10
150.129633
 20
32.396197
 30
0.0
  0
SPLINE
  5
23f
100
AcDbEntity
  8
knobs
 62
1
100
AcDbSpline
 70
8
 71
3
 72
8
 73
4
 74
0
 40
0
 40
0
 40
0
 40
0
 40
1
 40
1
 40
1
 40
1
 10
150.129633
 20
32.396197
 30
0.0
 10
151.883292
 20
32.396197
 30
0.0
 10
153.304633
 20
33.817539
 30
0.0
 10
153.304633
 20
35.571197
 30
0.0
  0
LWPOLYLINE
  5
240
100
AcDbEntity
  8
knobs
 62
1
100
AcDbPolyline
 90
2
 70
1
 10
150.764210
 20
35.571197
 30
0.0
 10
150.764210
 20
35.571197
 30
0.0
  0
SPLINE
  5
241
100
AcDbEntity
  8
knobs
 62
1
100
AcDbSpline
 70
8
 71
3
 72
8
 73
4
 74
0
 40
0
 40
0
 40
0
 40
0
 40
1
 40
1
 40
1
 40
1
 10
172.354633
 20
35.571197
 30
0.0
 10
172.354633
 20
37.324856
 30
0.0
 10
170.933292
 20
38.746197
 30
0.0
 10
169.179633
 20
38.746197
 30
0.0
  0
SPLINE
  5
242
100
AcDbEntity
  8
knobs
 62
1
100
AcDbSpline
 70
8
 71
3
 72
8
 73
4
 74
0
 40
0
 40
0
 40
0
 40
0
 40
1
 40
1
 40
1
 40
1
 10
169.179633
 20
38.746197
 30
0.0
 10
167.425975
 20
38.746197
 30
0.0
 10
166.004633
 20
37.324856
 30
0.0
 10
166.004633
 20
35.571197
 30
0.0
  0
SPLINE
  5
243
100
AcDbEntity
  8
knobs
 62
1
100
AcDbSpline
 70
8
 71
3
 72
8
 73
4
 74
0
 40
0
 40
0
 40
0
 40
0
 40
1
 40
1
 40
1
 40
1
 10
166.004633
 20
35.571197
 30
0.0
 10
166.004633
 20
33.817539
 30
0.0
 10
167.425975
 20
32.396197
 30
0.0
 10
169.179633
 20
32.396197
 30
0.0
  0
SPLINE
  5
244
100
AcDbEntity
  8
knobs
 62
1
100
AcDbSpline
 70
8
 71
3
 72
8
 73
4
 74
0
 40
0
 40
0
 40
0
 40
0
 40
1
 40
1
 40
1
 40
1
 10
169.179633
 20
32.396197
 30
0.0
 10
170.933292
 20
32.396197
 30
0.0
 10
172.354633
 20
33.817539
 30
0.0
 10
172.354633
 20
35.571197
 30
0.0
  0
LWPOLYLINE
  5
245
100
AcDbEntity
  8
knobs
 62
1
100
AcDbPolyline
 90
2
 70
1
 10
153.304633
 20
35.571197
 30
0.0
 10
153.304633
 20
35.571197
 30
0.0
  0
SPLINE
  5
246
100
AcDbEntity
  8
knobs
 62
1
100
AcDbSpline
 70
8
 71
3
 72
8
 73
4
 74
0
 40
0
 40
0
 40
0
 40
0
 40
1
 40
1
 40
1
 40
1
 10
169.814210
 20
35.571197
 30
0.0
 10
169.814210
 20
35.921858
 30
0.0
 10
169.530224
 20
36.206550
 30
0.0
 10
169.179563
 20
36.206550
 30
0.0
  0
SPLINE
  5
247
100
AcDbEntity
  8
knobs
 62
1
100
AcDbSpline
 70
8
 71
3
 72
8
 73
4
 74
0
 40
0
 40
0
 40
0
 40
0
 40
1
 40
1
 40
1
 40
1
 10
169.179563
 20
36.206550
 30
0.0
 10
168.828902
 20
36.206550
 30
0.0
 10
168.544210
 20
35.921858
 30
0.0
 10
168.544210
 20
35.571197
 30
0.0
  0
SPLINE
  5
248
100
AcDbEntity
  8
knobs
 62
1
100
AcDbSpline
 70
8
 71
3
 72
8
 73
4
 74
0
 40
0
 40
0
 40
0
 40
0
 40
1
 40
1
 40
1
 40
1
 10
168.544210
 20
35.571197
 30
0.0
 10
168.544210
 20
35.220536
 30
0.0
 10
168.828902
 20
34.936550
 30
0.0
 10
169.179563
 20
34.936550
 30
0.0
  0
SPLINE
  5
249
100
AcDbEntity
  8
knobs
 62
1
100
AcDbSpline
 70
8
 71
3
 72
8
 73
4
 74
0
 40
0
 40
0
 40
0
 40
0
 40
1
 40
1
 40
1
 40
1
 10
169.179563
 20
34.936550
 30
0.0
 10
169.530224
 20
34.936550
 30
0.0
 10
169.814210
 20
35.220536
 30
0.0
 10
169.814210
 20
35.571197
 30
0.0
  0
LWPOLYLINE
  5
24a
100
AcDbEntity
  8
knobs
 62
1
100
AcDbPolyline
 90
2
 70
1
 10
172.354633
 20
35.571197
 30
0.0
 10
172.354633
 20
35.571197
 30
0.0
  0
LWPOLYLINE
  5
24b
100
AcDbEntity
  8
knobs
 62
1
100
AcDbPolyline
 90
2
 70
1
 10
169.814210
 20
35.571197
 30
0.0
 10
169.814210
 20
35.571197
 30
0.0
  0
SPLINE
  5
24c
100
AcDbEntity
  8
knobs
 62
1
100
AcDbSpline
 70
8
 71
3
 72
8
 73
4
 74
0
 40
0
 40
0
 40
0
 40
0
 40
1
 40
1
 40
1
 40
1
 10
181.878963
 20
21.283697
 30
0.0
 10
181.878963
 20
23.037356
 30
0.0
 10
180.457621
 20
24.458697
 30
0.0
 10
178.703963
 20
24.458697
 30
0.0
  0
SPLINE
  5
24d
100
AcDbEntity
  8
knobs
 62
1
100
AcDbSpline
 70
8
 71
3
 72
8
 73
4
 74
0
 40
0
 40
0
 40
0
 40
0
 40
1
 40
1
 40
1
 40
1
 10
178.703963
 20
24.458697
 30
0.0
 10
176.950305
 20
24.458697
 30
0.0
 10
175.528963
 20
23.037356
 30
0.0
 10
175.528963
 20
21.283697
 30
0.0
  0
SPLINE
  5
24e
100
AcDbEntity
  8
knobs
 62
1
100
AcDbSpline
 70
8
 71
3
 72
8
 73
4
 74
0
 40
0
 40
0
 40
0
 40
0
 40
1
 40
1
 40
1
 40
1
 10
175.528963
 20
21.283697
 30
0.0
 10
175.528963
 20
19.530039
 30
0.0
 10
176.950305
 20
18.108697
 30
0.0
 10
178.703963
 20
18.108697
 30
0.0
  0
SPLINE
  5
24f
100
AcDbEntity
  8
knobs
 62
1
100
AcDbSpline
 70
8
 71
3
 72
8
 73
4
 74
0
 40
0
 40
0
 40
0
 40
0
 40
1
 40
1
 40
1
 40
1
 10
178.703963
 20
18.108697
 30
0.0
 10
180.457621
 20
18.108697
 30
0.0
 10
181.878963
 20
19.530039
 30
0.0
 10
181.878963
 20
21.283697
 30
0.0
  0
LWPOLYLINE
  5
250
100
AcDbEntity
  8
knobs
 62
1
100
AcDbPolyline
 90
9
 70
1
 10
177.008972
 20
24.915509
 30
0.0
 10
174.894422
 20
22.196651
 30
0.0
 10
175.649013
 20
18.805398
 30
0.0
 10
178.704069
 20
17.296215
 30
0.0
 10
181.759125
 20
18.805398
 30
0.0
 10
182.514069
 20
22.196651
 30
0.0
 10
180.399519
 20
24.915509
 30
0.0
 10
177.008972
 20
24.915509
 30
0.0
 10
177.008972
 20
24.915509
 30
0.0
  0
LWPOLYLINE
  5
251
100
AcDbEntity
  8
knobs
 62
1
100
AcDbPolyline
 90
2
 70
1
 10
181.878963
 20
21.283697
 30
0.0
 10
181.878963
 20
21.283697
 30
0.0
  0
SPLINE
  5
252
100
AcDbEntity
  8
knobs
 62
1
100
AcDbSpline
 70
8
 71
3
 72
8
 73
4
 74
0
 40
0
 40
0
 40
0
 40
0
 40
1
 40
1
 40
1
 40
1
 10
179.339210
 20
21.283344
 30
0.0
 10
179.339210
 20
21.633653
 30
0.0
 10
179.054518
 20
21.918697
 30
0.0
 10
178.703857
 20
21.918697
 30
0.0
  0
SPLINE
  5
253
100
AcDbEntity
  8
knobs
 62
1
100
AcDbSpline
 70
8
 71
3
 72
8
 73
4
 74
0
 40
0
 40
0
 40
0
 40
0
 40
1
 40
1
 40
1
 40
1
 10
178.703857
 20
21.918697
 30
0.0
 10
178.353196
 20
21.918697
 30
0.0
 10
178.069210
 20
21.633653
 30
0.0
 10
178.069210
 20
21.283344
 30
0.0
  0
SPLINE
  5
254
100
AcDbEntity
  8
knobs
 62
1
100
AcDbSpline
 70
8
 71
3
 72
8
 73
4
 74
0
 40
0
 40
0
 40
0
 40
0
 40
1
 40
1
 40
1
 40
1
 10
178.069210
 20
21.283344
 30
0.0
 10
178.069210
 20
20.932683
 30
0.0
 10
178.353196
 20
20.648344
 30
0.0
 10
178.703857
 20
20.648344
 30
0.0
  0
SPLINE
  5
255
100
AcDbEntity
  8
knobs
 62
1
100
AcDbSpline
 70
8
 71
3
 72
8
 73
4
 74
0
 40
0
 40
0
 40
0
 40
0
 40
1
 40
1
 40
1
 40
1
 10
178.703857
 20
20.648344
 30
0.0
 10
179.054518
 20
20.648344
 30
0.0
 10
179.339210
 20
20.932683
 30
0.0
 10
179.339210
 20
21.283344
 30
0.0
  0
LWPOLYLINE
  5
256
100
AcDbEntity
  8
knobs
 62
4
100
AcDbPolyline
 90
6
 70
1
 10
175.529069
 20
14.933732
 30
0.0
 10
181.879069
 20
14.933732
 30
0.0
 10
181.879069
 20
27.633732
 30
0.0
 10
175.529069
 20
27.633732
 30
0.0
 10
175.529069
 20
14.933732
 30
0.0
 10
175.529069
 20
14.933732
 30
0.0
  0
LWPOLYLINE
  5
257
100
AcDbEntity
  8
knobs
 62
1
100
AcDbPolyline
 90
2
 70
1
 10
179.339210
 20
21.283344
 30
0.0
 10
179.339210
 20
21.283344
 30
0.0
  0
SPLINE
  5
258
100
AcDbEntity
  8
knobs
 62
1
100
AcDbSpline
 70
8
 71
3
 72
8
 73
4
 74
0
 40
0
 40
0
 40
0
 40
0
 40
1
 40
1
 40
1
 40
1
 10
162.828963
 20
21.283697
 30
0.0
 10
162.828963
 20
23.037356
 30
0.0
 10
161.407621
 20
24.458697
 30
0.0
 10
159.653963
 20
24.458697
 30
0.0
  0
SPLINE
  5
259
100
AcDbEntity
  8
knobs
 62
1
100
AcDbSpline
 70
8
 71
3
 72
8
 73
4
 74
0
 40
0
 40
0
 40
0
 40
0
 40
1
 40
1
 40
1
 40
1
 10
159.653963
 20
24.458697
 30
0.0
 10
157.900305
 20
24.458697
 30
0.0
 10
156.478963
 20
23.037356
 30
0.0
 10
156.478963
 20
21.283697
 30
0.0
  0
SPLINE
  5
25a
100
AcDbEntity
  8
knobs
 62
1
100
AcDbSpline
 70
8
 71
3
 72
8
 73
4
 74
0
 40
0
 40
0
 40
0
 40
0
 40
1
 40
1
 40
1
 40
1
 10
156.478963
 20
21.283697
 30
0.0
 10
156.478963
 20
19.530039
 30
0.0
 10
157.900305
 20
18.108697
 30
0.0
 10
159.653963
 20
18.108697
 30
0.0
  0
SPLINE
  5
25b
100
AcDbEntity
  8
knobs
 62
1
100
AcDbSpline
 70
8
 71
3
 72
8
 73
4
 74
0
 40
0
 40
0
 40
0
 40
0
 40
1
 40
1
 40
1
 40
1
 10
159.653963
 20
18.108697
 30
0.0
 10
161.407621
 20
18.108697
 30
0.0
 10
162.828963
 20
19.530039
 30
0.0
 10
162.828963
 20
21.283697
 30
0.0
  0
LWPOLYLINE
  5
25c
100
AcDbEntity
  8
knobs
 62
1
100
AcDbPolyline
 90
9
 70
1
 10
157.958972
 20
24.915509
 30
0.0
 10
155.844422
 20
22.196651
 30
0.0
 10
156.599013
 20
18.805398
 30
0.0
 10
159.654069
 20
17.296215
 30
0.0
 10
162.709125
 20
18.805398
 30
0.0
 10
163.464069
 20
22.196651
 30
0.0
 10
161.349519
 20
24.915509
 30
0.0
 10
157.958972
 20
24.915509
 30
0.0
 10
157.958972
 20
24.915509
 30
0.0
  0
LWPOLYLINE
  5
25d
100
AcDbEntity
  8
knobs
 62
1
100
AcDbPolyline
 90
2
 70
1
 10
162.828963
 20
21.283697
 30
0.0
 10
162.828963
 20
21.283697
 30
0.0
  0
LWPOLYLINE
  5
25e
100
AcDbEntity
  8
knobs
 62
4
100
AcDbPolyline
 90
6
 70
1
 10
156.479069
 20
14.933732
 30
0.0
 10
162.829069
 20
14.933732
 30
0.0
 10
162.829069
 20
27.633732
 30
0.0
 10
156.479069
 20
27.633732
 30
0.0
 10
156.479069
 20
14.933732
 30
0.0
 10
156.479069
 20
14.933732
 30
0.0
  0
SPLINE
  5
25f
100
AcDbEntity
  8
knobs
 62
1
100
AcDbSpline
 70
8
 71
3
 72
8
 73
4
 74
0
 40
0
 40
0
 40
0
 40
0
 40
1
 40
1
 40
1
 40
1
 10
143.778963
 20
21.283697
 30
0.0
 10
143.778963
 20
23.037356
 30
0.0
 10
142.357621
 20
24.458697
 30
0.0
 10
140.603963
 20
24.458697
 30
0.0
  0
SPLINE
  5
260
100
AcDbEntity
  8
knobs
 62
1
100
AcDbSpline
 70
8
 71
3
 72
8
 73
4
 74
0
 40
0
 40
0
 40
0
 40
0
 40
1
 40
1
 40
1
 40
1
 10
140.603963
 20
24.458697
 30
0.0
 10
138.850305
 20
24.458697
 30
0.0
 10
137.428963
 20
23.037356
 30
0.0
 10
137.428963
 20
21.283697
 30
0.0
  0
SPLINE
  5
261
100
AcDbEntity
  8
knobs
 62
1
100
AcDbSpline
 70
8
 71
3
 72
8
 73
4
 74
0
 40
0
 40
0
 40
0
 40
0
 40
1
 40
1
 40
1
 40
1
 10
137.428963
 20
21.283697
 30
0.0
 10
137.428963
 20
19.530039
 30
0.0
 10
138.850305
 20
18.108697
 30
0.0
 10
140.603963
 20
18.108697
 30
0.0
  0
SPLINE
  5
262
100
AcDbEntity
  8
knobs
 62
1
100
AcDbSpline
 70
8
 71
3
 72
8
 73
4
 74
0
 40
0
 40
0
 40
0
 40
0
 40
1
 40
1
 40
1
 40
1
 10
140.603963
 20
18.108697
 30
0.0
 10
142.357621
 20
18.108697
 30
0.0
 10
143.778963
 20
19.530039
 30
0.0
 10
143.778963
 20
21.283697
 30
0.0
  0
LWPOLYLINE
  5
263
100
AcDbEntity
  8
knobs
 62
1
100
AcDbPolyline
 90
9
 70
1
 10
138.908972
 20
24.915509
 30
0.0
 10
136.794422
 20
22.196651
 30
0.0
 10
137.549013
 20
18.805398
 30
0.0
 10
140.604069
 20
17.296215
 30
0.0
 10
143.659125
 20
18.805398
 30
0.0
 10
144.414069
 20
22.196651
 30
0.0
 10
142.299519
 20
24.915509
 30
0.0
 10
138.908972
 20
24.915509
 30
0.0
 10
138.908972
 20
24.915509
 30
0.0
  0
LWPOLYLINE
  5
264
100
AcDbEntity
  8
knobs
 62
1
100
AcDbPolyline
 90
2
 70
1
 10
143.778963
 20
21.283697
 30
0.0
 10
143.778963
 20
21.283697
 30
0.0
  0
LWPOLYLINE
  5
265
100
AcDbEntity
  8
knobs
 62
4
100
AcDbPolyline
 90
6
 70
1
 10
137.429069
 20
14.933732
 30
0.0
 10
143.779069
 20
14.933732
 30
0.0
 10
143.779069
 20
27.633732
 30
0.0
 10
137.429069
 20
27.633732
 30
0.0
 10
137.429069
 20
14.933732
 30
0.0
 10
137.429069
 20
14.933732
 30
0.0
  0
SPLINE
  5
266
100
AcDbEntity
  8
knobs
 62
1
100
AcDbSpline
 70
8
 71
3
 72
8
 73
4
 74
0
 40
0
 40
0
 40
0
 40
0
 40
1
 40
1
 40
1
 40
1
 10
124.728963
 20
21.283697
 30
0.0
 10
124.728963
 20
23.037356
 30
0.0
 10
123.307621
 20
24.458697
 30
0.0
 10
121.553963
 20
24.458697
 30
0.0
  0
SPLINE
  5
267
100
AcDbEntity
  8
knobs
 62
1
100
AcDbSpline
 70
8
 71
3
 72
8
 73
4
 74
0
 40
0
 40
0
 40
0
 40
0
 40
1
 40
1
 40
1
 40
1
 10
121.553963
 20
24.458697
 30
0.0
 10
119.800305
 20
24.458697
 30
0.0
 10
118.378963
 20
23.037356
 30
0.0
 10
118.378963
 20
21.283697
 30
0.0
  0
SPLINE
  5
268
100
AcDbEntity
  8
knobs
 62
1
100
AcDbSpline
 70
8
 71
3
 72
8
 73
4
 74
0
 40
0
 40
0
 40
0
 40
0
 40
1
 40
1
 40
1
 40
1
 10
118.378963
 20
21.283697
 30
0.0
 10
118.378963
 20
19.530039
 30
0.0
 10
119.800305
 20
18.108697
 30
0.0
 10
121.553963
 20
18.108697
 30
0.0
  0
SPLINE
  5
269
100
AcDbEntity
  8
knobs
 62
1
100
AcDbSpline
 70
8
 71
3
 72
8
 73
4
 74
0
 40
0
 40
0
 40
0
 40
0
 40
1
 40
1
 40
1
 40
1
 10
121.553963
 20
18.108697
 30
0.0
 10
123.307621
 20
18.108697
 30
0.0
 10
124.728963
 20
19.530039
 30
0.0
 10
124.728963
 20
21.283697
 30
0.0
  0
LWPOLYLINE
  5
26a
100
AcDbEntity
  8
knobs
 62
1
100
AcDbPolyline
 90
9
 70
1
 10
119.858972
 20
24.915509
 30
0.0
 10
117.744422
 20
22.196651
 30
0.0
 10
118.499013
 20
18.805398
 30
0.0
 10
121.554069
 20
17.296215
 30
0.0
 10
124.609125
 20
18.805398
 30
0.0
 10
125.364069
 20
22.196651
 30
0.0
 10
123.249519
 20
24.915509
 30
0.0
 10
119.858972
 20
24.915509
 30
0.0
 10
119.858972
 20
24.915509
 30
0.0
  0
LWPOLYLINE
  5
26b
100
AcDbEntity
  8
knobs
 62
1
100
AcDbPolyline
 90
2
 70
1
 10
124.728963
 20
21.283697
 30
0.0
 10
124.728963
 20
21.283697
 30
0.0
  0
SPLINE
  5
26c
100
AcDbEntity
  8
knobs
 62
1
100
AcDbSpline
 70
8
 71
3
 72
8
 73
4
 74
0
 40
0
 40
0
 40
0
 40
0
 40
1
 40
1
 40
1
 40
1
 10
122.189210
 20
21.283344
 30
0.0
 10
122.189210
 20
21.633653
 30
0.0
 10
121.905224
 20
21.918697
 30
0.0
 10
121.554563
 20
21.918697
 30
0.0
  0
SPLINE
  5
26d
100
AcDbEntity
  8
knobs
 62
1
100
AcDbSpline
 70
8
 71
3
 72
8
 73
4
 74
0
 40
0
 40
0
 40
0
 40
0
 40
1
 40
1
 40
1
 40
1
 10
121.554563
 20
21.918697
 30
0.0
 10
121.203902
 20
21.918697
 30
0.0
 10
120.919210
 20
21.633653
 30
0.0
 10
120.919210
 20
21.283344
 30
0.0
  0
SPLINE
  5
26e
100
AcDbEntity
  8
knobs
 62
1
100
AcDbSpline
 70
8
 71
3
 72
8
 73
4
 74
0
 40
0
 40
0
 40
0
 40
0
 40
1
 40
1
 40
1
 40
1
 10
120.919210
 20
21.283344
 30
0.0
 10
120.919210
 20
20.932683
 30
0.0
 10
121.203902
 20
20.648344
 30
0.0
 10
121.554563
 20
20.648344
 30
0.0
  0
SPLINE
  5
26f
100
AcDbEntity
  8
knobs
 62
1
100
AcDbSpline
 70
8
 71
3
 72
8
 73
4
 74
0
 40
0
 40
0
 40
0
 40
0
 40
1
 40
1
 40
1
 40
1
 10
121.554563
 20
20.648344
 30
0.0
 10
121.905224
 20
20.648344
 30
0.0
 10
122.189210
 20
20.932683
 30
0.0
 10
122.189210
 20
21.283344
 30
0.0
  0
LWPOLYLINE
  5
270
100
AcDbEntity
  8
knobs
 62
4
100
AcDbPolyline
 90
6
 70
1
 10
118.379069
 20
14.933732
 30
0.0
 10
124.729069
 20
14.933732
 30
0.0
 10
124.729069
 20
27.633732
 30
0.0
 10
118.379069
 20
27.633732
 30
0.0
 10
118.379069
 20
14.933732
 30
0.0
 10
118.379069
 20
14.933732
 30
0.0
  0
SPLINE
  5
271
100
AcDbEntity
  8
knobs
 62
1
100
AcDbSpline
 70
8
 71
3
 72
8
 73
4
 74
0
 40
0
 40
0
 40
0
 40
0
 40
1
 40
1
 40
1
 40
1
 10
141.239210
 20
21.283344
 30
0.0
 10
141.239210
 20
21.633653
 30
0.0
 10
140.954518
 20
21.918697
 30
0.0
 10
140.603857
 20
21.918697
 30
0.0
  0
SPLINE
  5
272
100
AcDbEntity
  8
knobs
 62
1
100
AcDbSpline
 70
8
 71
3
 72
8
 73
4
 74
0
 40
0
 40
0
 40
0
 40
0
 40
1
 40
1
 40
1
 40
1
 10
140.603857
 20
21.918697
 30
0.0
 10
140.253196
 20
21.918697
 30
0.0
 10
139.969210
 20
21.633653
 30
0.0
 10
139.969210
 20
21.283344
 30
0.0
  0
SPLINE
  5
273
100
AcDbEntity
  8
knobs
 62
1
100
AcDbSpline
 70
8
 71
3
 72
8
 73
4
 74
0
 40
0
 40
0
 40
0
 40
0
 40
1
 40
1
 40
1
 40
1
 10
139.969210
 20
21.283344
 30
0.0
 10
139.969210
 20
20.932683
 30
0.0
 10
140.253196
 20
20.648344
 30
0.0
 10
140.603857
 20
20.648344
 30
0.0
  0
SPLINE
  5
274
100
AcDbEntity
  8
knobs
 62
1
100
AcDbSpline
 70
8
 71
3
 72
8
 73
4
 74
0
 40
0
 40
0
 40
0
 40
0
 40
1
 40
1
 40
1
 40
1
 10
140.603857
 20
20.648344
 30
0.0
 10
140.954518
 20
20.648344
 30
0.0
 10
141.239210
 20
20.932683
 30
0.0
 10
141.239210
 20
21.283344
 30
0.0
  0
LWPOLYLINE
  5
275
100
AcDbEntity
  8
knobs
 62
1
100
AcDbPolyline
 90
2
 70
1
 10
122.189210
 20
21.283344
 30
0.0
 10
122.189210
 20
21.283344
 30
0.0
  0
SPLINE
  5
276
100
AcDbEntity
  8
knobs
 62
1
100
AcDbSpline
 70
8
 71
3
 72
8
 73
4
 74
0
 40
0
 40
0
 40
0
 40
0
 40
1
 40
1
 40
1
 40
1
 10
160.288540
 20
21.283344
 30
0.0
 10
160.288540
 20
21.633653
 30
0.0
 10
160.003848
 20
21.918697
 30
0.0
 10
159.653187
 20
21.918697
 30
0.0
  0
SPLINE
  5
277
100
AcDbEntity
  8
knobs
 62
1
100
AcDbSpline
 70
8
 71
3
 72
8
 73
4
 74
0
 40
0
 40
0
 40
0
 40
0
 40
1
 40
1
 40
1
 40
1
 10
159.653187
 20
21.918697
 30
0.0
 10
159.302526
 20
21.918697
 30
0.0
 10
159.018540
 20
21.633653
 30
0.0
 10
159.018540
 20
21.283344
 30
0.0
  0
SPLINE
  5
278
100
AcDbEntity
  8
knobs
 62
1
100
AcDbSpline
 70
8
 71
3
 72
8
 73
4
 74
0
 40
0
 40
0
 40
0
 40
0
 40
1
 40
1
 40
1
 40
1
 10
159.018540
 20
21.283344
 30
0.0
 10
159.018540
 20
20.932683
 30
0.0
 10
159.302526
 20
20.648344
 30
0.0
 10
159.653187
 20
20.648344
 30
0.0
  0
SPLINE
  5
279
100
AcDbEntity
  8
knobs
 62
1
100
AcDbSpline
 70
8
 71
3
 72
8
 73
4
 74
0
 40
0
 40
0
 40
0
 40
0
 40
1
 40
1
 40
1
 40
1
 10
159.653187
 20
20.648344
 30
0.0
 10
160.003848
 20
20.648344
 30
0.0
 10
160.288540
 20
20.932683
 30
0.0
 10
160.288540
 20
21.283344
 30
0.0
  0
LWPOLYLINE
  5
27a
100
AcDbEntity
  8
knobs
 62
1
100
AcDbPolyline
 90
2
 70
1
 10
141.239210
 20
21.283344
 30
0.0
 10
141.239210
 20
21.283344
 30
0.0
  0
SPLINE
  5
27b
100
AcDbEntity
  8
knobs
 62
1
100
AcDbSpline
 70
8
 71
3
 72
8
 73
4
 74
0
 40
0
 40
0
 40
0
 40
0
 40
1
 40
1
 40
1
 40
1
 10
121.554633
 20
27.785991
 30
0.0
 10
125.145911
 20
27.785991
 30
0.0
 10
128.057033
 20
24.874869
 30
0.0
 10
128.057033
 20
21.283591
 30
0.0
  0
SPLINE
  5
27c
100
AcDbEntity
  8
knobs
 62
1
100
AcDbSpline
 70
8
 71
3
 72
8
 73
4
 74
0
 40
0
 40
0
 40
0
 40
0
 40
1
 40
1
 40
1
 40
1
 10
128.057033
 20
21.283591
 30
0.0
 10
128.057033
 20
17.692666
 30
0.0
 10
125.145911
 20
14.781544
 30
0.0
 10
121.554633
 20
14.781544
 30
0.0
  0
SPLINE
  5
27d
100
AcDbEntity
  8
knobs
 62
1
100
AcDbSpline
 70
8
 71
3
 72
8
 73
4
 74
0
 40
0
 40
0
 40
0
 40
0
 40
1
 40
1
 40
1
 40
1
 10
121.554633
 20
14.781544
 30
0.0
 10
117.963356
 20
14.781544
 30
0.0
 10
115.052233
 20
17.692666
 30
0.0
 10
115.052233
 20
21.283591
 30
0.0
  0
SPLINE
  5
27e
100
AcDbEntity
  8
knobs
 62
1
100
AcDbSpline
 70
8
 71
3
 72
8
 73
4
 74
0
 40
0
 40
0
 40
0
 40
0
 40
1
 40
1
 40
1
 40
1
 10
115.052233
 20
21.283591
 30
0.0
 10
115.052233
 20
24.874869
 30
0.0
 10
117.963356
 20
27.785991
 30
0.0
 10
121.554633
 20
27.785991
 30
0.0
  0
LWPOLYLINE
  5
27f
100
AcDbEntity
  8
knobs
 62
1
100
AcDbPolyline
 90
2
 70
1
 10
160.288540
 20
21.283344
 30
0.0
 10
160.288540
 20
21.283344
 30
0.0
  0
SPLINE
  5
280
100
AcDbEntity
  8
knobs
 62
1
100
AcDbSpline
 70
8
 71
3
 72
8
 73
4
 74
0
 40
0
 40
0
 40
0
 40
0
 40
1
 40
1
 40
1
 40
1
 10
140.605339
 20
27.785991
 30
0.0
 10
144.196617
 20
27.785991
 30
0.0
 10
147.107739
 20
24.874869
 30
0.0
 10
147.107739
 20
21.283591
 30
0.0
  0
SPLINE
  5
281
100
AcDbEntity
  8
knobs
 62
1
100
AcDbSpline
 70
8
 71
3
 72
8
 73
4
 74
0
 40
0
 40
0
 40
0
 40
0
 40
1
 40
1
 40
1
 40
1
 10
147.107739
 20
21.283591
 30
0.0
 10
147.107739
 20
17.692666
 30
0.0
 10
144.196617
 20
14.781544
 30
0.0
 10
140.605339
 20
14.781544
 30
0.0
  0
SPLINE
  5
282
100
AcDbEntity
  8
knobs
 62
1
100
AcDbSpline
 70
8
 71
3
 72
8
 73
4
 74
0
 40
0
 40
0
 40
0
 40
0
 40
1
 40
1
 40
1
 40
1
 10
140.605339
 20
14.781544
 30
0.0
 10
137.014061
 20
14.781544
 30
0.0
 10
134.102939
 20
17.692666
 30
0.0
 10
134.102939
 20
21.283591
 30
0.0
  0
SPLINE
  5
283
100
AcDbEntity
  8
knobs
 62
1
100
AcDbSpline
 70
8
 71
3
 72
8
 73
4
 74
0
 40
0
 40
0
 40
0
 40
0
 40
1
 40
1
 40
1
 40
1
 10
134.102939
 20
21.283591
 30
0.0
 10
134.102939
 20
24.874869
 30
0.0
 10
137.014061
 20
27.785991
 30
0.0
 10
140.605339
 20
27.785991
 30
0.0
  0
LWPOLYLINE
  5
284
100
AcDbEntity
  8
knobs
 62
1
100
AcDbPolyline
 90
2
 70
1
 10
121.554633
 20
27.785991
 30
0.0
 10
121.554633
 20
27.785991
 30
0.0
  0
SPLINE
  5
285
100
AcDbEntity
  8
knobs
 62
1
100
AcDbSpline
 70
8
 71
3
 72
8
 73
4
 74
0
 40
0
 40
0
 40
0
 40
0
 40
1
 40
1
 40
1
 40
1
 10
159.655339
 20
27.785991
 30
0.0
 10
163.246617
 20
27.785991
 30
0.0
 10
166.157739
 20
24.874869
 30
0.0
 10
166.157739
 20
21.283591
 30
0.0
  0
SPLINE
  5
286
100
AcDbEntity
  8
knobs
 62
1
100
AcDbSpline
 70
8
 71
3
 72
8
 73
4
 74
0
 40
0
 40
0
 40
0
 40
0
 40
1
 40
1
 40
1
 40
1
 10
166.157739
 20
21.283591
 30
0.0
 10
166.157739
 20
17.692666
 30
0.0
 10
163.246617
 20
14.781544
 30
0.0
 10
159.655339
 20
14.781544
 30
0.0
  0
SPLINE
  5
287
100
AcDbEntity
  8
knobs
 62
1
100
AcDbSpline
 70
8
 71
3
 72
8
 73
4
 74
0
 40
0
 40
0
 40
0
 40
0
 40
1
 40
1
 40
1
 40
1
 10
159.655339
 20
14.781544
 30
0.0
 10
156.064061
 20
14.781544
 30
0.0
 10
153.152939
 20
17.692666
 30
0.0
 10
153.152939
 20
21.283591
 30
0.0
  0
SPLINE
  5
288
100
AcDbEntity
  8
knobs
 62
1
100
AcDbSpline
 70
8
 71
3
 72
8
 73
4
 74
0
 40
0
 40
0
 40
0
 40
0
 40
1
 40
1
 40
1
 40
1
 10
153.152939
 20
21.283591
 30
0.0
 10
153.152939
 20
24.874869
 30
0.0
 10
156.064061
 20
27.785991
 30
0.0
 10
159.655339
 20
27.785991
 30
0.0
  0
LWPOLYLINE
  5
289
100
AcDbEntity
  8
knobs
 62
1
100
AcDbPolyline
 90
2
 70
1
 10
140.605339
 20
27.785991
 30
0.0
 10
140.605339
 20
27.785991
 30
0.0
  0
SPLINE
  5
28a
100
AcDbEntity
  8
knobs
 62
1
100
AcDbSpline
 70
8
 71
3
 72
8
 73
4
 74
0
 40
0
 40
0
 40
0
 40
0
 40
1
 40
1
 40
1
 40
1
 10
178.705339
 20
27.785991
 30
0.0
 10
182.296617
 20
27.785991
 30
0.0
 10
185.207739
 20
24.874869
 30
0.0
 10
185.207739
 20
21.283591
 30
0.0
  0
SPLINE
  5
28b
100
AcDbEntity
  8
knobs
 62
1
100
AcDbSpline
 70
8
 71
3
 72
8
 73
4
 74
0
 40
0
 40
0
 40
0
 40
0
 40
1
 40
1
 40
1
 40
1
 10
185.207739
 20
21.283591
 30
0.0
 10
185.207739
 20
17.692666
 30
0.0
 10
182.296617
 20
14.781544
 30
0.0
 10
178.705339
 20
14.781544
 30
0.0
  0
SPLINE
  5
28c
100
AcDbEntity
  8
knobs
 62
1
100
AcDbSpline
 70
8
 71
3
 72
8
 73
4
 74
0
 40
0
 40
0
 40
0
 40
0
 40
1
 40
1
 40
1
 40
1
 10
178.705339
 20
14.781544
 30
0.0
 10
175.114061
 20
14.781544
 30
0.0
 10
172.202939
 20
17.692666
 30
0.0
 10
172.202939
 20
21.283591
 30
0.0
  0
SPLINE
  5
28d
100
AcDbEntity
  8
knobs
 62
1
100
AcDbSpline
 70
8
 71
3
 72
8
 73
4
 74
0
 40
0
 40
0
 40
0
 40
0
 40
1
 40
1
 40
1
 40
1
 10
172.202939
 20
21.283591
 30
0.0
 10
172.202939
 20
24.874869
 30
0.0
 10
175.114061
 20
27.785991
 30
0.0
 10
178.705339
 20
27.785991
 30
0.0
  0
LWPOLYLINE
  5
28e
100
AcDbEntity
  8
knobs
 62
1
100
AcDbPolyline
 90
2
 70
1
 10
159.655339
 20
27.785991
 30
0.0
 10
159.655339
 20
27.785991
 30
0.0
  0
SPLINE
  5
28f
100
AcDbEntity
  8
pilot_hole_vectors
 62
1
100
AcDbSpline
 70
8
 71
3
 72
8
 73
4
 74
0
 40
0
 40
0
 40
0
 40
0
 40
1
 40
1
 40
1
 40
1
 10
34.930032
 20
101.790627
 30
0.0
 10
34.930031
 20
100.077485
 30
0.0
 10
33.541256
 20
98.688709
 30
0.0
 10
31.828113
 20
98.688708
 30
0.0
  0
SPLINE
  5
290
100
AcDbEntity
  8
pilot_hole_vectors
 62
1
100
AcDbSpline
 70
8
 71
3
 72
8
 73
4
 74
0
 40
0
 40
0
 40
0
 40
0
 40
1
 40
1
 40
1
 40
1
 10
31.828113
 20
98.688708
 30
0.0
 10
30.114971
 20
98.688709
 30
0.0
 10
28.726196
 20
100.077485
 30
0.0
 10
28.726195
 20
101.790627
 30
0.0
  0
SPLINE
  5
291
100
AcDbEntity
  8
pilot_hole_vectors
 62
1
100
AcDbSpline
 70
8
 71
3
 72
8
 73
4
 74
0
 40
0
 40
0
 40
0
 40
0
 40
1
 40
1
 40
1
 40
1
 10
28.726195
 20
101.790627
 30
0.0
 10
28.726196
 20
103.503769
 30
0.0
 10
30.114971
 20
104.892545
 30
0.0
 10
31.828113
 20
104.892546
 30
0.0
  0
SPLINE
  5
292
100
AcDbEntity
  8
pilot_hole_vectors
 62
1
100
AcDbSpline
 70
8
 71
3
 72
8
 73
4
 74
0
 40
0
 40
0
 40
0
 40
0
 40
1
 40
1
 40
1
 40
1
 10
31.828113
 20
104.892546
 30
0.0
 10
33.541256
 20
104.892545
 30
0.0
 10
34.930031
 20
103.503769
 30
0.0
 10
34.930032
 20
101.790627
 30
0.0
  0
LWPOLYLINE
  5
293
100
AcDbEntity
  8
knobs
 62
1
100
AcDbPolyline
 90
2
 70
1
 10
178.705339
 20
27.785991
 30
0.0
 10
178.705339
 20
27.785991
 30
0.0
  0
SPLINE
  5
294
100
AcDbEntity
  8
pilot_hole_vectors
 62
1
100
AcDbSpline
 70
8
 71
3
 72
8
 73
4
 74
0
 40
0
 40
0
 40
0
 40
0
 40
1
 40
1
 40
1
 40
1
 10
73.000878
 20
101.790619
 30
0.0
 10
73.000875
 20
100.086627
 30
0.0
 10
71.619518
 20
98.705270
 30
0.0
 10
69.915526
 20
98.705266
 30
0.0
  0
SPLINE
  5
295
100
AcDbEntity
  8
pilot_hole_vectors
 62
1
100
AcDbSpline
 70
8
 71
3
 72
8
 73
4
 74
0
 40
0
 40
0
 40
0
 40
0
 40
1
 40
1
 40
1
 40
1
 10
69.915526
 20
98.705266
 30
0.0
 10
69.097237
 20
98.705263
 30
0.0
 10
68.312462
 20
99.030324
 30
0.0
 10
67.733842
 20
99.608940
 30
0.0
  0
SPLINE
  5
296
100
AcDbEntity
  8
pilot_hole_vectors
 62
1
100
AcDbSpline
 70
8
 71
3
 72
8
 73
4
 74
0
 40
0
 40
0
 40
0
 40
0
 40
1
 40
1
 40
1
 40
1
 10
67.733842
 20
99.608940
 30
0.0
 10
67.155223
 20
100.187556
 30
0.0
 10
66.830156
 20
100.972329
 30
0.0
 10
66.830154
 20
101.790619
 30
0.0
  0
SPLINE
  5
297
100
AcDbEntity
  8
pilot_hole_vectors
 62
1
100
AcDbSpline
 70
8
 71
3
 72
8
 73
4
 74
0
 40
0
 40
0
 40
0
 40
0
 40
1
 40
1
 40
1
 40
1
 10
66.830154
 20
101.790619
 30
0.0
 10
66.830151
 20
102.608911
 30
0.0
 10
67.155215
 20
103.393689
 30
0.0
 10
67.733835
 20
103.972310
 30
0.0
  0
SPLINE
  5
298
100
AcDbEntity
  8
pilot_hole_vectors
 62
1
100
AcDbSpline
 70
8
 71
3
 72
8
 73
4
 74
0
 40
0
 40
0
 40
0
 40
0
 40
1
 40
1
 40
1
 40
1
 10
67.733835
 20
103.972310
 30
0.0
 10
68.312455
 20
104.550930
 30
0.0
 10
69.097234
 20
104.875994
 30
0.0
 10
69.915526
 20
104.875990
 30
0.0
  0
SPLINE
  5
299
100
AcDbEntity
  8
pilot_hole_vectors
 62
1
100
AcDbSpline
 70
8
 71
3
 72
8
 73
4
 74
0
 40
0
 40
0
 40
0
 40
0
 40
1
 40
1
 40
1
 40
1
 10
69.915526
 20
104.875990
 30
0.0
 10
70.733815
 20
104.875989
 30
0.0
 10
71.518589
 20
104.550922
 30
0.0
 10
72.097205
 20
103.972303
 30
0.0
  0
SPLINE
  5
29a
100
AcDbEntity
  8
pilot_hole_vectors
 62
1
100
AcDbSpline
 70
8
 71
3
 72
8
 73
4
 74
0
 40
0
 40
0
 40
0
 40
0
 40
1
 40
1
 40
1
 40
1
 10
72.097205
 20
103.972303
 30
0.0
 10
72.675821
 20
103.393683
 30
0.0
 10
73.000882
 20
102.608908
 30
0.0
 10
73.000878
 20
101.790619
 30
0.0
  0
LWPOLYLINE
  5
29b
100
AcDbEntity
  8
pilot_hole_vectors
 62
1
100
AcDbPolyline
 90
2
 70
1
 10
34.930032
 20
101.790627
 30
0.0
 10
34.930032
 20
101.790627
 30
0.0
  0
SPLINE
  5
29c
100
AcDbEntity
  8
pilot_hole_vectors
 62
1
100
AcDbSpline
 70
8
 71
3
 72
8
 73
4
 74
0
 40
0
 40
0
 40
0
 40
0
 40
1
 40
1
 40
1
 40
1
 10
34.957103
 20
63.702142
 30
0.0
 10
34.957102
 20
61.989000
 30
0.0
 10
33.568326
 20
60.600224
 30
0.0
 10
31.855184
 20
60.600223
 30
0.0
  0
SPLINE
  5
29d
100
AcDbEntity
  8
pilot_hole_vectors
 62
1
100
AcDbSpline
 70
8
 71
3
 72
8
 73
4
 74
0
 40
0
 40
0
 40
0
 40
0
 40
1
 40
1
 40
1
 40
1
 10
31.855184
 20
60.600223
 30
0.0
 10
30.142042
 20
60.600224
 30
0.0
 10
28.753266
 20
61.989000
 30
0.0
 10
28.753266
 20
63.702142
 30
0.0
  0
SPLINE
  5
29e
100
AcDbEntity
  8
pilot_hole_vectors
 62
1
100
AcDbSpline
 70
8
 71
3
 72
8
 73
4
 74
0
 40
0
 40
0
 40
0
 40
0
 40
1
 40
1
 40
1
 40
1
 10
28.753266
 20
63.702142
 30
0.0
 10
28.753266
 20
65.415284
 30
0.0
 10
30.142042
 20
66.804060
 30
0.0
 10
31.855184
 20
66.804060
 30
0.0
  0
SPLINE
  5
29f
100
AcDbEntity
  8
pilot_hole_vectors
 62
1
100
AcDbSpline
 70
8
 71
3
 72
8
 73
4
 74
0
 40
0
 40
0
 40
0
 40
0
 40
1
 40
1
 40
1
 40
1
 10
31.855184
 20
66.804060
 30
0.0
 10
33.568326
 20
66.804060
 30
0.0
 10
34.957102
 20
65.415284
 30
0.0
 10
34.957103
 20
63.702142
 30
0.0
  0
LWPOLYLINE
  5
2a0
100
AcDbEntity
  8
pilot_hole_vectors
 62
1
100
AcDbPolyline
 90
2
 70
1
 10
73.000878
 20
101.790619
 30
0.0
 10
73.000878
 20
101.790619
 30
0.0
  0
SPLINE
  5
2a1
100
AcDbEntity
  8
pilot_hole_vectors
 62
1
100
AcDbSpline
 70
8
 71
3
 72
8
 73
4
 74
0
 40
0
 40
0
 40
0
 40
0
 40
1
 40
1
 40
1
 40
1
 10
73.018517
 20
63.675071
 30
0.0
 10
73.018517
 20
61.961929
 30
0.0
 10
71.629741
 20
60.573153
 30
0.0
 10
69.916599
 20
60.573152
 30
0.0
  0
SPLINE
  5
2a2
100
AcDbEntity
  8
pilot_hole_vectors
 62
1
100
AcDbSpline
 70
8
 71
3
 72
8
 73
4
 74
0
 40
0
 40
0
 40
0
 40
0
 40
1
 40
1
 40
1
 40
1
 10
69.916599
 20
60.573152
 30
0.0
 10
68.203457
 20
60.573153
 30
0.0
 10
66.814681
 20
61.961929
 30
0.0
 10
66.814680
 20
63.675071
 30
0.0
  0
SPLINE
  5
2a3
100
AcDbEntity
  8
pilot_hole_vectors
 62
1
100
AcDbSpline
 70
8
 71
3
 72
8
 73
4
 74
0
 40
0
 40
0
 40
0
 40
0
 40
1
 40
1
 40
1
 40
1
 10
66.814680
 20
63.675071
 30
0.0
 10
66.814681
 20
65.388213
 30
0.0
 10
68.203457
 20
66.776989
 30
0.0
 10
69.916599
 20
66.776989
 30
0.0
  0
SPLINE
  5
2a4
100
AcDbEntity
  8
pilot_hole_vectors
 62
1
100
AcDbSpline
 70
8
 71
3
 72
8
 73
4
 74
0
 40
0
 40
0
 40
0
 40
0
 40
1
 40
1
 40
1
 40
1
 10
69.916599
 20
66.776989
 30
0.0
 10
71.629741
 20
66.776989
 30
0.0
 10
73.018517
 20
65.388213
 30
0.0
 10
73.018517
 20
63.675071
 30
0.0
  0
LWPOLYLINE
  5
2a5
100
AcDbEntity
  8
pilot_hole_vectors
 62
1
100
AcDbPolyline
 90
2
 70
1
 10
34.957103
 20
63.702142
 30
0.0
 10
34.957103
 20
63.702142
 30
0.0
  0
SPLINE
  5
2a6
100
AcDbEntity
  8
pilot_hole_vectors
 62
1
100
AcDbSpline
 70
8
 71
3
 72
8
 73
4
 74
0
 40
0
 40
0
 40
0
 40
0
 40
1
 40
1
 40
1
 40
1
 10
73.018517
 20
25.586586
 30
0.0
 10
73.018517
 20
23.873444
 30
0.0
 10
71.629741
 20
22.484668
 30
0.0
 10
69.916599
 20
22.484667
 30
0.0
  0
SPLINE
  5
2a7
100
AcDbEntity
  8
pilot_hole_vectors
 62
1
100
AcDbSpline
 70
8
 71
3
 72
8
 73
4
 74
0
 40
0
 40
0
 40
0
 40
0
 40
1
 40
1
 40
1
 40
1
 10
69.916599
 20
22.484667
 30
0.0
 10
68.203457
 20
22.484668
 30
0.0
 10
66.814681
 20
23.873444
 30
0.0
 10
66.814680
 20
25.586586
 30
0.0
  0
SPLINE
  5
2a8
100
AcDbEntity
  8
pilot_hole_vectors
 62
1
100
AcDbSpline
 70
8
 71
3
 72
8
 73
4
 74
0
 40
0
 40
0
 40
0
 40
0
 40
1
 40
1
 40
1
 40
1
 10
66.814680
 20
25.586586
 30
0.0
 10
66.814681
 20
27.299728
 30
0.0
 10
68.203457
 20
28.688504
 30
0.0
 10
69.916599
 20
28.688504
 30
0.0
  0
SPLINE
  5
2a9
100
AcDbEntity
  8
pilot_hole_vectors
 62
1
100
AcDbSpline
 70
8
 71
3
 72
8
 73
4
 74
0
 40
0
 40
0
 40
0
 40
0
 40
1
 40
1
 40
1
 40
1
 10
69.916599
 20
28.688504
 30
0.0
 10
71.629741
 20
28.688504
 30
0.0
 10
73.018517
 20
27.299728
 30
0.0
 10
73.018517
 20
25.586586
 30
0.0
  0
LWPOLYLINE
  5
2aa
100
AcDbEntity
  8
pilot_hole_vectors
 62
1
100
AcDbPolyline
 90
2
 70
1
 10
73.018517
 20
63.675071
 30
0.0
 10
73.018517
 20
63.675071
 30
0.0
  0
SPLINE
  5
2ab
100
AcDbEntity
  8
pilot_hole_vectors
 62
1
100
AcDbSpline
 70
8
 71
3
 72
8
 73
4
 74
0
 40
0
 40
0
 40
0
 40
0
 40
1
 40
1
 40
1
 40
1
 10
34.902964
 20
25.586586
 30
0.0
 10
34.902963
 20
23.873444
 30
0.0
 10
33.514188
 20
22.484668
 30
0.0
 10
31.801046
 20
22.484667
 30
0.0
  0
SPLINE
  5
2ac
100
AcDbEntity
  8
pilot_hole_vectors
 62
1
100
AcDbSpline
 70
8
 71
3
 72
8
 73
4
 74
0
 40
0
 40
0
 40
0
 40
0
 40
1
 40
1
 40
1
 40
1
 10
31.801046
 20
22.484667
 30
0.0
 10
30.087903
 20
22.484668
 30
0.0
 10
28.699128
 20
23.873444
 30
0.0
 10
28.699127
 20
25.586586
 30
0.0
  0
SPLINE
  5
2ad
100
AcDbEntity
  8
pilot_hole_vectors
 62
1
100
AcDbSpline
 70
8
 71
3
 72
8
 73
4
 74
0
 40
0
 40
0
 40
0
 40
0
 40
1
 40
1
 40
1
 40
1
 10
28.699127
 20
25.586586
 30
0.0
 10
28.699128
 20
27.299728
 30
0.0
 10
30.087903
 20
28.688504
 30
0.0
 10
31.801046
 20
28.688504
 30
0.0
  0
SPLINE
  5
2ae
100
AcDbEntity
  8
pilot_hole_vectors
 62
1
100
AcDbSpline
 70
8
 71
3
 72
8
 73
4
 74
0
 40
0
 40
0
 40
0
 40
0
 40
1
 40
1
 40
1
 40
1
 10
31.801046
 20
28.688504
 30
0.0
 10
33.514188
 20
28.688504
 30
0.0
 10
34.902963
 20
27.299728
 30
0.0
 10
34.902964
 20
25.586586
 30
0.0
  0
LWPOLYLINE
  5
2af
100
AcDbEntity
  8
pilot_hole_vectors
 62
1
100
AcDbPolyline
 90
2
 70
1
 10
73.018517
 20
25.586586
 30
0.0
 10
73.018517
 20
25.586586
 30
0.0
  0
LWPOLYLINE
  5
2b0
100
AcDbEntity
  8
pilot_hole_vectors
 62
1
100
AcDbPolyline
 90
2
 70
1
 10
34.902964
 20
25.586586
 30
0.0
 10
34.902964
 20
25.586586
 30
0.0
  0
SPLINE
  5
2b1
100
AcDbEntity
  8
pilot_hole_vectors
 62
1
100
AcDbSpline
 70
8
 71
3
 72
8
 73
4
 74
0
 40
0
 40
0
 40
0
 40
0
 40
1
 40
1
 40
1
 40
1
 10
181.774143
 20
107.014566
 30
0.0
 10
181.774140
 20
105.310575
 30
0.0
 10
180.392783
 20
103.929218
 30
0.0
 10
178.688791
 20
103.929214
 30
0.0
  0
SPLINE
  5
2b2
100
AcDbEntity
  8
pilot_hole_vectors
 62
1
100
AcDbSpline
 70
8
 71
3
 72
8
 73
4
 74
0
 40
0
 40
0
 40
0
 40
0
 40
1
 40
1
 40
1
 40
1
 10
178.688791
 20
103.929214
 30
0.0
 10
177.870502
 20
103.929210
 30
0.0
 10
177.085727
 20
104.254272
 30
0.0
 10
176.507107
 20
104.832888
 30
0.0
  0
SPLINE
  5
2b3
100
AcDbEntity
  8
pilot_hole_vectors
 62
1
100
AcDbSpline
 70
8
 71
3
 72
8
 73
4
 74
0
 40
0
 40
0
 40
0
 40
0
 40
1
 40
1
 40
1
 40
1
 10
176.507107
 20
104.832888
 30
0.0
 10
175.928487
 20
105.411504
 30
0.0
 10
175.603421
 20
106.196277
 30
0.0
 10
175.603419
 20
107.014566
 30
0.0
  0
SPLINE
  5
2b4
100
AcDbEntity
  8
pilot_hole_vectors
 62
1
100
AcDbSpline
 70
8
 71
3
 72
8
 73
4
 74
0
 40
0
 40
0
 40
0
 40
0
 40
1
 40
1
 40
1
 40
1
 10
175.603419
 20
107.014566
 30
0.0
 10
175.603416
 20
107.832859
 30
0.0
 10
175.928480
 20
108.617637
 30
0.0
 10
176.507100
 20
109.196257
 30
0.0
  0
SPLINE
  5
2b5
100
AcDbEntity
  8
pilot_hole_vectors
 62
1
100
AcDbSpline
 70
8
 71
3
 72
8
 73
4
 74
0
 40
0
 40
0
 40
0
 40
0
 40
1
 40
1
 40
1
 40
1
 10
176.507100
 20
109.196257
 30
0.0
 10
177.085720
 20
109.774877
 30
0.0
 10
177.870499
 20
110.099941
 30
0.0
 10
178.688791
 20
110.099938
 30
0.0
  0
SPLINE
  5
2b6
100
AcDbEntity
  8
pilot_hole_vectors
 62
1
100
AcDbSpline
 70
8
 71
3
 72
8
 73
4
 74
0
 40
0
 40
0
 40
0
 40
0
 40
1
 40
1
 40
1
 40
1
 10
178.688791
 20
110.099938
 30
0.0
 10
179.507080
 20
110.099936
 30
0.0
 10
180.291854
 20
109.774870
 30
0.0
 10
180.870470
 20
109.196250
 30
0.0
  0
SPLINE
  5
2b7
100
AcDbEntity
  8
pilot_hole_vectors
 62
1
100
AcDbSpline
 70
8
 71
3
 72
8
 73
4
 74
0
 40
0
 40
0
 40
0
 40
0
 40
1
 40
1
 40
1
 40
1
 10
180.870470
 20
109.196250
 30
0.0
 10
181.449085
 20
108.617631
 30
0.0
 10
181.774147
 20
107.832855
 30
0.0
 10
181.774143
 20
107.014566
 30
0.0
  0
LWPOLYLINE
  5
2b8
100
AcDbEntity
  8
pilot_hole_vectors
 62
1
100
AcDbPolyline
 90
5
 70
1
 10
8.659282
 20
123.073741
 30
0.0
 10
195.550607
 20
123.073741
 30
0.0
 10
195.550607
 20
4.186476
 30
0.0
 10
8.659282
 20
4.186476
 30
0.0
 10
8.659282
 20
123.073741
 30
0.0
  0
SPLINE
  5
2b9
100
AcDbEntity
  8
pilot_hole_vectors
 62
1
100
AcDbSpline
 70
8
 71
3
 72
8
 73
4
 74
0
 40
0
 40
0
 40
0
 40
0
 40
1
 40
1
 40
1
 40
1
 10
181.669015
 20
88.752875
 30
0.0
 10
182.110037
 20
87.106944
 30
0.0
 10
181.133270
 20
85.415134
 30
0.0
 10
179.487342
 20
84.974105
 30
0.0
  0
SPLINE
  5
2ba
100
AcDbEntity
  8
pilot_hole_vectors
 62
1
100
AcDbSpline
 70
8
 71
3
 72
8
 73
4
 74
0
 40
0
 40
0
 40
0
 40
0
 40
1
 40
1
 40
1
 40
1
 10
179.487342
 20
84.974105
 30
0.0
 10
178.696936
 20
84.762313
 30
0.0
 10
177.854769
 20
84.873183
 30
0.0
 10
177.146108
 20
85.282325
 30
0.0
  0
SPLINE
  5
2bb
100
AcDbEntity
  8
pilot_hole_vectors
 62
1
100
AcDbSpline
 70
8
 71
3
 72
8
 73
4
 74
0
 40
0
 40
0
 40
0
 40
0
 40
1
 40
1
 40
1
 40
1
 10
177.146108
 20
85.282325
 30
0.0
 10
176.437448
 20
85.691468
 30
0.0
 10
175.920343
 20
86.365367
 30
0.0
 10
175.708553
 20
87.155774
 30
0.0
  0
SPLINE
  5
2bc
100
AcDbEntity
  8
pilot_hole_vectors
 62
1
100
AcDbSpline
 70
8
 71
3
 72
8
 73
4
 74
0
 40
0
 40
0
 40
0
 40
0
 40
1
 40
1
 40
1
 40
1
 10
175.708553
 20
87.155774
 30
0.0
 10
175.496759
 20
87.946183
 30
0.0
 10
175.607631
 20
88.788354
 30
0.0
 10
176.016778
 20
89.497016
 30
0.0
  0
SPLINE
  5
2bd
100
AcDbEntity
  8
pilot_hole_vectors
 62
1
100
AcDbSpline
 70
8
 71
3
 72
8
 73
4
 74
0
 40
0
 40
0
 40
0
 40
0
 40
1
 40
1
 40
1
 40
1
 10
176.016778
 20
89.497016
 30
0.0
 10
176.425924
 20
90.205679
 30
0.0
 10
177.099829
 20
90.722782
 30
0.0
 10
177.890241
 20
90.934568
 30
0.0
  0
SPLINE
  5
2be
100
AcDbEntity
  8
pilot_hole_vectors
 62
1
100
AcDbSpline
 70
8
 71
3
 72
8
 73
4
 74
0
 40
0
 40
0
 40
0
 40
0
 40
1
 40
1
 40
1
 40
1
 10
177.890241
 20
90.934568
 30
0.0
 10
178.680648
 20
91.146355
 30
0.0
 10
179.522814
 20
91.035480
 30
0.0
 10
180.231472
 20
90.626333
 30
0.0
  0
SPLINE
  5
2bf
100
AcDbEntity
  8
pilot_hole_vectors
 62
1
100
AcDbSpline
 70
8
 71
3
 72
8
 73
4
 74
0
 40
0
 40
0
 40
0
 40
0
 40
1
 40
1
 40
1
 40
1
 10
180.231472
 20
90.626333
 30
0.0
 10
180.940130
 20
90.217186
 30
0.0
 10
181.457230
 20
89.543283
 30
0.0
 10
181.669015
 20
88.752875
 30
0.0
  0
LWPOLYLINE
  5
2c0
100
AcDbEntity
  8
pilot_hole_vectors
 62
1
100
AcDbPolyline
 90
2
 70
1
 10
181.774143
 20
107.014566
 30
0.0
 10
181.774143
 20
107.014566
 30
0.0
  0
SPLINE
  5
2c1
100
AcDbEntity
  8
pilot_hole_vectors
 62
1
100
AcDbSpline
 70
8
 71
3
 72
8
 73
4
 74
0
 40
0
 40
0
 40
0
 40
0
 40
1
 40
1
 40
1
 40
1
 10
181.669015
 20
69.692633
 30
0.0
 10
182.110037
 20
68.046703
 30
0.0
 10
181.133270
 20
66.354892
 30
0.0
 10
179.487342
 20
65.913864
 30
0.0
  0
SPLINE
  5
2c2
100
AcDbEntity
  8
pilot_hole_vectors
 62
1
100
AcDbSpline
 70
8
 71
3
 72
8
 73
4
 74
0
 40
0
 40
0
 40
0
 40
0
 40
1
 40
1
 40
1
 40
1
 10
179.487342
 20
65.913864
 30
0.0
 10
178.696936
 20
65.702071
 30
0.0
 10
177.854769
 20
65.812941
 30
0.0
 10
177.146108
 20
66.222084
 30
0.0
  0
SPLINE
  5
2c3
100
AcDbEntity
  8
pilot_hole_vectors
 62
1
100
AcDbSpline
 70
8
 71
3
 72
8
 73
4
 74
0
 40
0
 40
0
 40
0
 40
0
 40
1
 40
1
 40
1
 40
1
 10
177.146108
 20
66.222084
 30
0.0
 10
176.437448
 20
66.631226
 30
0.0
 10
175.920343
 20
67.305125
 30
0.0
 10
175.708553
 20
68.095532
 30
0.0
  0
SPLINE
  5
2c4
100
AcDbEntity
  8
pilot_hole_vectors
 62
1
100
AcDbSpline
 70
8
 71
3
 72
8
 73
4
 74
0
 40
0
 40
0
 40
0
 40
0
 40
1
 40
1
 40
1
 40
1
 10
175.708553
 20
68.095532
 30
0.0
 10
175.496759
 20
68.885941
 30
0.0
 10
175.607631
 20
69.728112
 30
0.0
 10
176.016778
 20
70.436774
 30
0.0
  0
SPLINE
  5
2c5
100
AcDbEntity
  8
pilot_hole_vectors
 62
1
100
AcDbSpline
 70
8
 71
3
 72
8
 73
4
 74
0
 40
0
 40
0
 40
0
 40
0
 40
1
 40
1
 40
1
 40
1
 10
176.016778
 20
70.436774
 30
0.0
 10
176.425924
 20
71.145437
 30
0.0
 10
177.099829
 20
71.662540
 30
0.0
 10
177.890241
 20
71.874326
 30
0.0
  0
SPLINE
  5
2c6
100
AcDbEntity
  8
pilot_hole_vectors
 62
1
100
AcDbSpline
 70
8
 71
3
 72
8
 73
4
 74
0
 40
0
 40
0
 40
0
 40
0
 40
1
 40
1
 40
1
 40
1
 10
177.890241
 20
71.874326
 30
0.0
 10
178.680648
 20
72.086114
 30
0.0
 10
179.522814
 20
71.975238
 30
0.0
 10
180.231472
 20
71.566091
 30
0.0
  0
SPLINE
  5
2c7
100
AcDbEntity
  8
pilot_hole_vectors
 62
1
100
AcDbSpline
 70
8
 71
3
 72
8
 73
4
 74
0
 40
0
 40
0
 40
0
 40
0
 40
1
 40
1
 40
1
 40
1
 10
180.231472
 20
71.566091
 30
0.0
 10
180.940130
 20
71.156944
 30
0.0
 10
181.457230
 20
70.483041
 30
0.0
 10
181.669015
 20
69.692633
 30
0.0
  0
LWPOLYLINE
  5
2c8
100
AcDbEntity
  8
pilot_hole_vectors
 62
1
100
AcDbPolyline
 90
2
 70
1
 10
181.669015
 20
88.752875
 30
0.0
 10
181.669015
 20
88.752875
 30
0.0
  0
SPLINE
  5
2c9
100
AcDbEntity
  8
pilot_hole_vectors
 62
1
100
AcDbSpline
 70
8
 71
3
 72
8
 73
4
 74
0
 40
0
 40
0
 40
0
 40
0
 40
1
 40
1
 40
1
 40
1
 10
181.669015
 20
50.646931
 30
0.0
 10
182.110037
 20
49.001001
 30
0.0
 10
181.133270
 20
47.309191
 30
0.0
 10
179.487342
 20
46.868162
 30
0.0
  0
SPLINE
  5
2ca
100
AcDbEntity
  8
pilot_hole_vectors
 62
1
100
AcDbSpline
 70
8
 71
3
 72
8
 73
4
 74
0
 40
0
 40
0
 40
0
 40
0
 40
1
 40
1
 40
1
 40
1
 10
179.487342
 20
46.868162
 30
0.0
 10
178.696936
 20
46.656369
 30
0.0
 10
177.854769
 20
46.767240
 30
0.0
 10
177.146108
 20
47.176382
 30
0.0
  0
SPLINE
  5
2cb
100
AcDbEntity
  8
pilot_hole_vectors
 62
1
100
AcDbSpline
 70
8
 71
3
 72
8
 73
4
 74
0
 40
0
 40
0
 40
0
 40
0
 40
1
 40
1
 40
1
 40
1
 10
177.146108
 20
47.176382
 30
0.0
 10
176.437448
 20
47.585524
 30
0.0
 10
175.920343
 20
48.259424
 30
0.0
 10
175.708553
 20
49.049830
 30
0.0
  0
SPLINE
  5
2cc
100
AcDbEntity
  8
pilot_hole_vectors
 62
1
100
AcDbSpline
 70
8
 71
3
 72
8
 73
4
 74
0
 40
0
 40
0
 40
0
 40
0
 40
1
 40
1
 40
1
 40
1
 10
175.708553
 20
49.049830
 30
0.0
 10
175.496759
 20
49.840239
 30
0.0
 10
175.607631
 20
50.682410
 30
0.0
 10
176.016778
 20
51.391073
 30
0.0
  0
SPLINE
  5
2cd
100
AcDbEntity
  8
pilot_hole_vectors
 62
1
100
AcDbSpline
 70
8
 71
3
 72
8
 73
4
 74
0
 40
0
 40
0
 40
0
 40
0
 40
1
 40
1
 40
1
 40
1
 10
176.016778
 20
51.391073
 30
0.0
 10
176.425924
 20
52.099735
 30
0.0
 10
177.099829
 20
52.616838
 30
0.0
 10
177.890241
 20
52.828625
 30
0.0
  0
SPLINE
  5
2ce
100
AcDbEntity
  8
pilot_hole_vectors
 62
1
100
AcDbSpline
 70
8
 71
3
 72
8
 73
4
 74
0
 40
0
 40
0
 40
0
 40
0
 40
1
 40
1
 40
1
 40
1
 10
177.890241
 20
52.828625
 30
0.0
 10
178.680648
 20
53.040412
 30
0.0
 10
179.522814
 20
52.929536
 30
0.0
 10
180.231472
 20
52.520389
 30
0.0
  0
SPLINE
  5
2cf
100
AcDbEntity
  8
pilot_hole_vectors
 62
1
100
AcDbSpline
 70
8
 71
3
 72
8
 73
4
 74
0
 40
0
 40
0
 40
0
 40
0
 40
1
 40
1
 40
1
 40
1
 10
180.231472
 20
52.520389
 30
0.0
 10
180.940130
 20
52.111242
 30
0.0
 10
181.457230
 20
51.437339
 30
0.0
 10
181.669015
 20
50.646931
 30
0.0
  0
LWPOLYLINE
  5
2d0
100
AcDbEntity
  8
pilot_hole_vectors
 62
1
100
AcDbPolyline
 90
2
 70
1
 10
181.669015
 20
69.692633
 30
0.0
 10
181.669015
 20
69.692633
 30
0.0
  0
SPLINE
  5
2d1
100
AcDbEntity
  8
pilot_hole_vectors
 62
1
100
AcDbSpline
 70
8
 71
3
 72
8
 73
4
 74
0
 40
0
 40
0
 40
0
 40
0
 40
1
 40
1
 40
1
 40
1
 10
181.669015
 20
22.092920
 30
0.0
 10
182.110037
 20
20.446990
 30
0.0
 10
181.133270
 20
18.755180
 30
0.0
 10
179.487342
 20
18.314151
 30
0.0
  0
SPLINE
  5
2d2
100
AcDbEntity
  8
pilot_hole_vectors
 62
1
100
AcDbSpline
 70
8
 71
3
 72
8
 73
4
 74
0
 40
0
 40
0
 40
0
 40
0
 40
1
 40
1
 40
1
 40
1
 10
179.487342
 20
18.314151
 30
0.0
 10
178.696936
 20
18.102358
 30
0.0
 10
177.854769
 20
18.213228
 30
0.0
 10
177.146108
 20
18.622371
 30
0.0
  0
SPLINE
  5
2d3
100
AcDbEntity
  8
pilot_hole_vectors
 62
1
100
AcDbSpline
 70
8
 71
3
 72
8
 73
4
 74
0
 40
0
 40
0
 40
0
 40
0
 40
1
 40
1
 40
1
 40
1
 10
177.146108
 20
18.622371
 30
0.0
 10
176.437448
 20
19.031513
 30
0.0
 10
175.920343
 20
19.705413
 30
0.0
 10
175.708553
 20
20.495819
 30
0.0
  0
SPLINE
  5
2d4
100
AcDbEntity
  8
pilot_hole_vectors
 62
1
100
AcDbSpline
 70
8
 71
3
 72
8
 73
4
 74
0
 40
0
 40
0
 40
0
 40
0
 40
1
 40
1
 40
1
 40
1
 10
175.708553
 20
20.495819
 30
0.0
 10
175.496759
 20
21.286228
 30
0.0
 10
175.607631
 20
22.128399
 30
0.0
 10
176.016778
 20
22.837061
 30
0.0
  0
SPLINE
  5
2d5
100
AcDbEntity
  8
pilot_hole_vectors
 62
1
100
AcDbSpline
 70
8
 71
3
 72
8
 73
4
 74
0
 40
0
 40
0
 40
0
 40
0
 40
1
 40
1
 40
1
 40
1
 10
176.016778
 20
22.837061
 30
0.0
 10
176.425924
 20
23.545724
 30
0.0
 10
177.099829
 20
24.062827
 30
0.0
 10
177.890241
 20
24.274613
 30
0.0
  0
SPLINE
  5
2d6
100
AcDbEntity
  8
pilot_hole_vectors
 62
1
100
AcDbSpline
 70
8
 71
3
 72
8
 73
4
 74
0
 40
0
 40
0
 40
0
 40
0
 40
1
 40
1
 40
1
 40
1
 10
177.890241
 20
24.274613
 30
0.0
 10
178.680648
 20
24.486401
 30
0.0
 10
179.522814
 20
24.375525
 30
0.0
 10
180.231472
 20
23.966378
 30
0.0
  0
SPLINE
  5
2d7
100
AcDbEntity
  8
pilot_hole_vectors
 62
1
100
AcDbSpline
 70
8
 71
3
 72
8
 73
4
 74
0
 40
0
 40
0
 40
0
 40
0
 40
1
 40
1
 40
1
 40
1
 10
180.231472
 20
23.966378
 30
0.0
 10
180.940130
 20
23.557231
 30
0.0
 10
181.457230
 20
22.883328
 30
0.0
 10
181.669015
 20
22.092920
 30
0.0
  0
LWPOLYLINE
  5
2d8
100
AcDbEntity
  8
pilot_hole_vectors
 62
1
100
AcDbPolyline
 90
2
 70
1
 10
181.669015
 20
50.646931
 30
0.0
 10
181.669015
 20
50.646931
 30
0.0
  0
SPLINE
  5
2d9
100
AcDbEntity
  8
pilot_hole_vectors
 62
1
100
AcDbSpline
 70
8
 71
3
 72
8
 73
4
 74
0
 40
0
 40
0
 40
0
 40
0
 40
1
 40
1
 40
1
 40
1
 10
162.635201
 20
22.092920
 30
0.0
 10
163.076223
 20
20.446990
 30
0.0
 10
162.099456
 20
18.755180
 30
0.0
 10
160.453527
 20
18.314151
 30
0.0
  0
SPLINE
  5
2da
100
AcDbEntity
  8
pilot_hole_vectors
 62
1
100
AcDbSpline
 70
8
 71
3
 72
8
 73
4
 74
0
 40
0
 40
0
 40
0
 40
0
 40
1
 40
1
 40
1
 40
1
 10
160.453527
 20
18.314151
 30
0.0
 10
159.663121
 20
18.102358
 30
0.0
 10
158.820954
 20
18.213228
 30
0.0
 10
158.112294
 20
18.622371
 30
0.0
  0
SPLINE
  5
2db
100
AcDbEntity
  8
pilot_hole_vectors
 62
1
100
AcDbSpline
 70
8
 71
3
 72
8
 73
4
 74
0
 40
0
 40
0
 40
0
 40
0
 40
1
 40
1
 40
1
 40
1
 10
158.112294
 20
18.622371
 30
0.0
 10
157.403633
 20
19.031513
 30
0.0
 10
156.886529
 20
19.705413
 30
0.0
 10
156.674738
 20
20.495819
 30
0.0
  0
SPLINE
  5
2dc
100
AcDbEntity
  8
pilot_hole_vectors
 62
1
100
AcDbSpline
 70
8
 71
3
 72
8
 73
4
 74
0
 40
0
 40
0
 40
0
 40
0
 40
1
 40
1
 40
1
 40
1
 10
156.674738
 20
20.495819
 30
0.0
 10
156.462945
 20
21.286228
 30
0.0
 10
156.573817
 20
22.128399
 30
0.0
 10
156.982963
 20
22.837061
 30
0.0
  0
SPLINE
  5
2dd
100
AcDbEntity
  8
pilot_hole_vectors
 62
1
100
AcDbSpline
 70
8
 71
3
 72
8
 73
4
 74
0
 40
0
 40
0
 40
0
 40
0
 40
1
 40
1
 40
1
 40
1
 10
156.982963
 20
22.837061
 30
0.0
 10
157.392109
 20
23.545724
 30
0.0
 10
158.066015
 20
24.062827
 30
0.0
 10
158.856426
 20
24.274613
 30
0.0
  0
SPLINE
  5
2de
100
AcDbEntity
  8
pilot_hole_vectors
 62
1
100
AcDbSpline
 70
8
 71
3
 72
8
 73
4
 74
0
 40
0
 40
0
 40
0
 40
0
 40
1
 40
1
 40
1
 40
1
 10
158.856426
 20
24.274613
 30
0.0
 10
159.646833
 20
24.486401
 30
0.0
 10
160.489000
 20
24.375525
 30
0.0
 10
161.197658
 20
23.966378
 30
0.0
  0
SPLINE
  5
2df
100
AcDbEntity
  8
pilot_hole_vectors
 62
1
100
AcDbSpline
 70
8
 71
3
 72
8
 73
4
 74
0
 40
0
 40
0
 40
0
 40
0
 40
1
 40
1
 40
1
 40
1
 10
161.197658
 20
23.966378
 30
0.0
 10
161.906316
 20
23.557231
 30
0.0
 10
162.423416
 20
22.883328
 30
0.0
 10
162.635201
 20
22.092920
 30
0.0
  0
LWPOLYLINE
  5
2e0
100
AcDbEntity
  8
pilot_hole_vectors
 62
1
100
AcDbPolyline
 90
2
 70
1
 10
181.669015
 20
22.092920
 30
0.0
 10
181.669015
 20
22.092920
 30
0.0
  0
SPLINE
  5
2e1
100
AcDbEntity
  8
pilot_hole_vectors
 62
1
100
AcDbSpline
 70
8
 71
3
 72
8
 73
4
 74
0
 40
0
 40
0
 40
0
 40
0
 40
1
 40
1
 40
1
 40
1
 10
143.589499
 20
22.092920
 30
0.0
 10
144.030521
 20
20.446990
 30
0.0
 10
143.053754
 20
18.755180
 30
0.0
 10
141.407825
 20
18.314151
 30
0.0
  0
SPLINE
  5
2e2
100
AcDbEntity
  8
pilot_hole_vectors
 62
1
100
AcDbSpline
 70
8
 71
3
 72
8
 73
4
 74
0
 40
0
 40
0
 40
0
 40
0
 40
1
 40
1
 40
1
 40
1
 10
141.407825
 20
18.314151
 30
0.0
 10
140.617420
 20
18.102358
 30
0.0
 10
139.775253
 20
18.213228
 30
0.0
 10
139.066592
 20
18.622371
 30
0.0
  0
SPLINE
  5
2e3
100
AcDbEntity
  8
pilot_hole_vectors
 62
1
100
AcDbSpline
 70
8
 71
3
 72
8
 73
4
 74
0
 40
0
 40
0
 40
0
 40
0
 40
1
 40
1
 40
1
 40
1
 10
139.066592
 20
18.622371
 30
0.0
 10
138.357931
 20
19.031513
 30
0.0
 10
137.840827
 20
19.705413
 30
0.0
 10
137.629036
 20
20.495819
 30
0.0
  0
SPLINE
  5
2e4
100
AcDbEntity
  8
pilot_hole_vectors
 62
1
100
AcDbSpline
 70
8
 71
3
 72
8
 73
4
 74
0
 40
0
 40
0
 40
0
 40
0
 40
1
 40
1
 40
1
 40
1
 10
137.629036
 20
20.495819
 30
0.0
 10
137.417243
 20
21.286228
 30
0.0
 10
137.528115
 20
22.128399
 30
0.0
 10
137.937261
 20
22.837061
 30
0.0
  0
SPLINE
  5
2e5
100
AcDbEntity
  8
pilot_hole_vectors
 62
1
100
AcDbSpline
 70
8
 71
3
 72
8
 73
4
 74
0
 40
0
 40
0
 40
0
 40
0
 40
1
 40
1
 40
1
 40
1
 10
137.937261
 20
22.837061
 30
0.0
 10
138.346408
 20
23.545724
 30
0.0
 10
139.020313
 20
24.062827
 30
0.0
 10
139.810724
 20
24.274613
 30
0.0
  0
SPLINE
  5
2e6
100
AcDbEntity
  8
pilot_hole_vectors
 62
1
100
AcDbSpline
 70
8
 71
3
 72
8
 73
4
 74
0
 40
0
 40
0
 40
0
 40
0
 40
1
 40
1
 40
1
 40
1
 10
139.810724
 20
24.274613
 30
0.0
 10
140.601132
 20
24.486401
 30
0.0
 10
141.443298
 20
24.375525
 30
0.0
 10
142.151956
 20
23.966378
 30
0.0
  0
SPLINE
  5
2e7
100
AcDbEntity
  8
pilot_hole_vectors
 62
1
100
AcDbSpline
 70
8
 71
3
 72
8
 73
4
 74
0
 40
0
 40
0
 40
0
 40
0
 40
1
 40
1
 40
1
 40
1
 10
142.151956
 20
23.966378
 30
0.0
 10
142.860614
 20
23.557231
 30
0.0
 10
143.377714
 20
22.883328
 30
0.0
 10
143.589499
 20
22.092920
 30
0.0
  0
LWPOLYLINE
  5
2e8
100
AcDbEntity
  8
pilot_hole_vectors
 62
1
100
AcDbPolyline
 90
2
 70
1
 10
162.635201
 20
22.092920
 30
0.0
 10
162.635201
 20
22.092920
 30
0.0
  0
SPLINE
  5
2e9
100
AcDbEntity
  8
pilot_hole_vectors
 62
1
100
AcDbSpline
 70
8
 71
3
 72
8
 73
4
 74
0
 40
0
 40
0
 40
0
 40
0
 40
1
 40
1
 40
1
 40
1
 10
124.514714
 20
22.092920
 30
0.0
 10
124.955736
 20
20.446990
 30
0.0
 10
123.978969
 20
18.755180
 30
0.0
 10
122.333041
 20
18.314151
 30
0.0
  0
SPLINE
  5
2ea
100
AcDbEntity
  8
pilot_hole_vectors
 62
1
100
AcDbSpline
 70
8
 71
3
 72
8
 73
4
 74
0
 40
0
 40
0
 40
0
 40
0
 40
1
 40
1
 40
1
 40
1
 10
122.333041
 20
18.314151
 30
0.0
 10
121.542635
 20
18.102358
 30
0.0
 10
120.700468
 20
18.213228
 30
0.0
 10
119.991807
 20
18.622371
 30
0.0
  0
SPLINE
  5
2eb
100
AcDbEntity
  8
pilot_hole_vectors
 62
1
100
AcDbSpline
 70
8
 71
3
 72
8
 73
4
 74
0
 40
0
 40
0
 40
0
 40
0
 40
1
 40
1
 40
1
 40
1
 10
119.991807
 20
18.622371
 30
0.0
 10
119.283147
 20
19.031513
 30
0.0
 10
118.766042
 20
19.705413
 30
0.0
 10
118.554252
 20
20.495819
 30
0.0
  0
SPLINE
  5
2ec
100
AcDbEntity
  8
pilot_hole_vectors
 62
1
100
AcDbSpline
 70
8
 71
3
 72
8
 73
4
 74
0
 40
0
 40
0
 40
0
 40
0
 40
1
 40
1
 40
1
 40
1
 10
118.554252
 20
20.495819
 30
0.0
 10
118.342458
 20
21.286228
 30
0.0
 10
118.453330
 20
22.128399
 30
0.0
 10
118.862477
 20
22.837061
 30
0.0
  0
SPLINE
  5
2ed
100
AcDbEntity
  8
pilot_hole_vectors
 62
1
100
AcDbSpline
 70
8
 71
3
 72
8
 73
4
 74
0
 40
0
 40
0
 40
0
 40
0
 40
1
 40
1
 40
1
 40
1
 10
118.862477
 20
22.837061
 30
0.0
 10
119.271623
 20
23.545724
 30
0.0
 10
119.945528
 20
24.062827
 30
0.0
 10
120.735939
 20
24.274613
 30
0.0
  0
SPLINE
  5
2ee
100
AcDbEntity
  8
pilot_hole_vectors
 62
1
100
AcDbSpline
 70
8
 71
3
 72
8
 73
4
 74
0
 40
0
 40
0
 40
0
 40
0
 40
1
 40
1
 40
1
 40
1
 10
120.735939
 20
24.274613
 30
0.0
 10
121.526347
 20
24.486401
 30
0.0
 10
122.368513
 20
24.375525
 30
0.0
 10
123.077171
 20
23.966378
 30
0.0
  0
SPLINE
  5
2ef
100
AcDbEntity
  8
pilot_hole_vectors
 62
1
100
AcDbSpline
 70
8
 71
3
 72
8
 73
4
 74
0
 40
0
 40
0
 40
0
 40
0
 40
1
 40
1
 40
1
 40
1
 10
123.077171
 20
23.966378
 30
0.0
 10
123.785829
 20
23.557231
 30
0.0
 10
124.302929
 20
22.883328
 30
0.0
 10
124.514714
 20
22.092920
 30
0.0
  0
LWPOLYLINE
  5
2f0
100
AcDbEntity
  8
pilot_hole_vectors
 62
1
100
AcDbPolyline
 90
2
 70
1
 10
143.589499
 20
22.092920
 30
0.0
 10
143.589499
 20
22.092920
 30
0.0
  0
SPLINE
  5
2f1
100
AcDbEntity
  8
pilot_hole_vectors
 62
1
100
AcDbSpline
 70
8
 71
3
 72
8
 73
4
 74
0
 40
0
 40
0
 40
0
 40
0
 40
1
 40
1
 40
1
 40
1
 10
172.160706
 20
36.356499
 30
0.0
 10
172.601728
 20
34.710568
 30
0.0
 10
171.624961
 20
33.018758
 30
0.0
 10
169.979032
 20
32.577730
 30
0.0
  0
SPLINE
  5
2f2
100
AcDbEntity
  8
pilot_hole_vectors
 62
1
100
AcDbSpline
 70
8
 71
3
 72
8
 73
4
 74
0
 40
0
 40
0
 40
0
 40
0
 40
1
 40
1
 40
1
 40
1
 10
169.979032
 20
32.577730
 30
0.0
 10
169.188627
 20
32.365937
 30
0.0
 10
168.346460
 20
32.476807
 30
0.0
 10
167.637799
 20
32.885950
 30
0.0
  0
SPLINE
  5
2f3
100
AcDbEntity
  8
pilot_hole_vectors
 62
1
100
AcDbSpline
 70
8
 71
3
 72
8
 73
4
 74
0
 40
0
 40
0
 40
0
 40
0
 40
1
 40
1
 40
1
 40
1
 10
167.637799
 20
32.885950
 30
0.0
 10
166.929138
 20
33.295092
 30
0.0
 10
166.412034
 20
33.968991
 30
0.0
 10
166.200243
 20
34.759398
 30
0.0
  0
SPLINE
  5
2f4
100
AcDbEntity
  8
pilot_hole_vectors
 62
1
100
AcDbSpline
 70
8
 71
3
 72
8
 73
4
 74
0
 40
0
 40
0
 40
0
 40
0
 40
1
 40
1
 40
1
 40
1
 10
166.200243
 20
34.759398
 30
0.0
 10
165.988450
 20
35.549807
 30
0.0
 10
166.099322
 20
36.391978
 30
0.0
 10
166.508468
 20
37.100640
 30
0.0
  0
SPLINE
  5
2f5
100
AcDbEntity
  8
pilot_hole_vectors
 62
1
100
AcDbSpline
 70
8
 71
3
 72
8
 73
4
 74
0
 40
0
 40
0
 40
0
 40
0
 40
1
 40
1
 40
1
 40
1
 10
166.508468
 20
37.100640
 30
0.0
 10
166.917615
 20
37.809303
 30
0.0
 10
167.591520
 20
38.326406
 30
0.0
 10
168.381931
 20
38.538192
 30
0.0
  0
SPLINE
  5
2f6
100
AcDbEntity
  8
pilot_hole_vectors
 62
1
100
AcDbSpline
 70
8
 71
3
 72
8
 73
4
 74
0
 40
0
 40
0
 40
0
 40
0
 40
1
 40
1
 40
1
 40
1
 10
168.381931
 20
38.538192
 30
0.0
 10
169.172338
 20
38.749980
 30
0.0
 10
170.014505
 20
38.639104
 30
0.0
 10
170.723163
 20
38.229957
 30
0.0
  0
SPLINE
  5
2f7
100
AcDbEntity
  8
pilot_hole_vectors
 62
1
100
AcDbSpline
 70
8
 71
3
 72
8
 73
4
 74
0
 40
0
 40
0
 40
0
 40
0
 40
1
 40
1
 40
1
 40
1
 10
170.723163
 20
38.229957
 30
0.0
 10
171.431821
 20
37.820810
 30
0.0
 10
171.948921
 20
37.146907
 30
0.0
 10
172.160706
 20
36.356499
 30
0.0
  0
LWPOLYLINE
  5
2f8
100
AcDbEntity
  8
pilot_hole_vectors
 62
1
100
AcDbPolyline
 90
2
 70
1
 10
124.514714
 20
22.092920
 30
0.0
 10
124.514714
 20
22.092920
 30
0.0
  0
SPLINE
  5
2f9
100
AcDbEntity
  8
pilot_hole_vectors
 62
1
100
AcDbSpline
 70
8
 71
3
 72
8
 73
4
 74
0
 40
0
 40
0
 40
0
 40
0
 40
1
 40
1
 40
1
 40
1
 10
153.126892
 20
36.356499
 30
0.0
 10
153.567913
 20
34.710568
 30
0.0
 10
152.591146
 20
33.018758
 30
0.0
 10
150.945218
 20
32.577730
 30
0.0
  0
SPLINE
  5
2fa
100
AcDbEntity
  8
pilot_hole_vectors
 62
1
100
AcDbSpline
 70
8
 71
3
 72
8
 73
4
 74
0
 40
0
 40
0
 40
0
 40
0
 40
1
 40
1
 40
1
 40
1
 10
150.945218
 20
32.577730
 30
0.0
 10
150.154812
 20
32.365937
 30
0.0
 10
149.312645
 20
32.476807
 30
0.0
 10
148.603984
 20
32.885950
 30
0.0
  0
SPLINE
  5
2fb
100
AcDbEntity
  8
pilot_hole_vectors
 62
1
100
AcDbSpline
 70
8
 71
3
 72
8
 73
4
 74
0
 40
0
 40
0
 40
0
 40
0
 40
1
 40
1
 40
1
 40
1
 10
148.603984
 20
32.885950
 30
0.0
 10
147.895324
 20
33.295092
 30
0.0
 10
147.378219
 20
33.968991
 30
0.0
 10
147.166429
 20
34.759398
 30
0.0
  0
SPLINE
  5
2fc
100
AcDbEntity
  8
pilot_hole_vectors
 62
1
100
AcDbSpline
 70
8
 71
3
 72
8
 73
4
 74
0
 40
0
 40
0
 40
0
 40
0
 40
1
 40
1
 40
1
 40
1
 10
147.166429
 20
34.759398
 30
0.0
 10
146.954635
 20
35.549807
 30
0.0
 10
147.065507
 20
36.391978
 30
0.0
 10
147.474654
 20
37.100640
 30
0.0
  0
SPLINE
  5
2fd
100
AcDbEntity
  8
pilot_hole_vectors
 62
1
100
AcDbSpline
 70
8
 71
3
 72
8
 73
4
 74
0
 40
0
 40
0
 40
0
 40
0
 40
1
 40
1
 40
1
 40
1
 10
147.474654
 20
37.100640
 30
0.0
 10
147.883800
 20
37.809303
 30
0.0
 10
148.557705
 20
38.326406
 30
0.0
 10
149.348117
 20
38.538192
 30
0.0
  0
SPLINE
  5
2fe
100
AcDbEntity
  8
pilot_hole_vectors
 62
1
100
AcDbSpline
 70
8
 71
3
 72
8
 73
4
 74
0
 40
0
 40
0
 40
0
 40
0
 40
1
 40
1
 40
1
 40
1
 10
149.348117
 20
38.538192
 30
0.0
 10
150.138524
 20
38.749980
 30
0.0
 10
150.980690
 20
38.639104
 30
0.0
 10
151.689348
 20
38.229957
 30
0.0
  0
SPLINE
  5
2ff
100
AcDbEntity
  8
pilot_hole_vectors
 62
1
100
AcDbSpline
 70
8
 71
3
 72
8
 73
4
 74
0
 40
0
 40
0
 40
0
 40
0
 40
1
 40
1
 40
1
 40
1
 10
151.689348
 20
38.229957
 30
0.0
 10
152.398006
 20
37.820810
 30
0.0
 10
152.915106
 20
37.146907
 30
0.0
 10
153.126892
 20
36.356499
 30
0.0
  0
LWPOLYLINE
  5
300
100
AcDbEntity
  8
pilot_hole_vectors
 62
1
100
AcDbPolyline
 90
2
 70
1
 10
172.160706
 20
36.356499
 30
0.0
 10
172.160706
 20
36.356499
 30
0.0
  0
SPLINE
  5
301
100
AcDbEntity
  8
pilot_hole_vectors
 62
1
100
AcDbSpline
 70
8
 71
3
 72
8
 73
4
 74
0
 40
0
 40
0
 40
0
 40
0
 40
1
 40
1
 40
1
 40
1
 10
134.081190
 20
36.356499
 30
0.0
 10
134.522212
 20
34.710568
 30
0.0
 10
133.545445
 20
33.018758
 30
0.0
 10
131.899516
 20
32.577730
 30
0.0
  0
SPLINE
  5
302
100
AcDbEntity
  8
pilot_hole_vectors
 62
1
100
AcDbSpline
 70
8
 71
3
 72
8
 73
4
 74
0
 40
0
 40
0
 40
0
 40
0
 40
1
 40
1
 40
1
 40
1
 10
131.899516
 20
32.577730
 30
0.0
 10
131.109110
 20
32.365937
 30
0.0
 10
130.266943
 20
32.476807
 30
0.0
 10
129.558283
 20
32.885950
 30
0.0
  0
SPLINE
  5
303
100
AcDbEntity
  8
pilot_hole_vectors
 62
1
100
AcDbSpline
 70
8
 71
3
 72
8
 73
4
 74
0
 40
0
 40
0
 40
0
 40
0
 40
1
 40
1
 40
1
 40
1
 10
129.558283
 20
32.885950
 30
0.0
 10
128.849622
 20
33.295092
 30
0.0
 10
128.332518
 20
33.968991
 30
0.0
 10
128.120727
 20
34.759398
 30
0.0
  0
SPLINE
  5
304
100
AcDbEntity
  8
pilot_hole_vectors
 62
1
100
AcDbSpline
 70
8
 71
3
 72
8
 73
4
 74
0
 40
0
 40
0
 40
0
 40
0
 40
1
 40
1
 40
1
 40
1
 10
128.120727
 20
34.759398
 30
0.0
 10
127.908934
 20
35.549807
 30
0.0
 10
128.019806
 20
36.391978
 30
0.0
 10
128.428952
 20
37.100640
 30
0.0
  0
SPLINE
  5
305
100
AcDbEntity
  8
pilot_hole_vectors
 62
1
100
AcDbSpline
 70
8
 71
3
 72
8
 73
4
 74
0
 40
0
 40
0
 40
0
 40
0
 40
1
 40
1
 40
1
 40
1
 10
128.428952
 20
37.100640
 30
0.0
 10
128.838098
 20
37.809303
 30
0.0
 10
129.512004
 20
38.326406
 30
0.0
 10
130.302415
 20
38.538192
 30
0.0
  0
SPLINE
  5
306
100
AcDbEntity
  8
pilot_hole_vectors
 62
1
100
AcDbSpline
 70
8
 71
3
 72
8
 73
4
 74
0
 40
0
 40
0
 40
0
 40
0
 40
1
 40
1
 40
1
 40
1
 10
130.302415
 20
38.538192
 30
0.0
 10
131.092822
 20
38.749980
 30
0.0
 10
131.934989
 20
38.639104
 30
0.0
 10
132.643647
 20
38.229957
 30
0.0
  0
SPLINE
  5
307
100
AcDbEntity
  8
pilot_hole_vectors
 62
1
100
AcDbSpline
 70
8
 71
3
 72
8
 73
4
 74
0
 40
0
 40
0
 40
0
 40
0
 40
1
 40
1
 40
1
 40
1
 10
132.643647
 20
38.229957
 30
0.0
 10
133.352305
 20
37.820810
 30
0.0
 10
133.869405
 20
37.146907
 30
0.0
 10
134.081190
 20
36.356499
 30
0.0
  0
LWPOLYLINE
  5
308
100
AcDbEntity
  8
pilot_hole_vectors
 62
1
100
AcDbPolyline
 90
2
 70
1
 10
153.126892
 20
36.356499
 30
0.0
 10
153.126892
 20
36.356499
 30
0.0
  0
SPLINE
  5
309
100
AcDbEntity
  8
pilot_hole_vectors
 62
1
100
AcDbSpline
 70
8
 71
3
 72
8
 73
4
 74
0
 40
0
 40
0
 40
0
 40
0
 40
1
 40
1
 40
1
 40
1
 10
115.006405
 20
36.356499
 30
0.0
 10
115.447427
 20
34.710568
 30
0.0
 10
114.470660
 20
33.018758
 30
0.0
 10
112.824731
 20
32.577730
 30
0.0
  0
SPLINE
  5
30a
100
AcDbEntity
  8
pilot_hole_vectors
 62
1
100
AcDbSpline
 70
8
 71
3
 72
8
 73
4
 74
0
 40
0
 40
0
 40
0
 40
0
 40
1
 40
1
 40
1
 40
1
 10
112.824731
 20
32.577730
 30
0.0
 10
112.034326
 20
32.365937
 30
0.0
 10
111.192158
 20
32.476807
 30
0.0
 10
110.483498
 20
32.885950
 30
0.0
  0
SPLINE
  5
30b
100
AcDbEntity
  8
pilot_hole_vectors
 62
1
100
AcDbSpline
 70
8
 71
3
 72
8
 73
4
 74
0
 40
0
 40
0
 40
0
 40
0
 40
1
 40
1
 40
1
 40
1
 10
110.483498
 20
32.885950
 30
0.0
 10
109.774837
 20
33.295092
 30
0.0
 10
109.257733
 20
33.968991
 30
0.0
 10
109.045942
 20
34.759398
 30
0.0
  0
SPLINE
  5
30c
100
AcDbEntity
  8
pilot_hole_vectors
 62
1
100
AcDbSpline
 70
8
 71
3
 72
8
 73
4
 74
0
 40
0
 40
0
 40
0
 40
0
 40
1
 40
1
 40
1
 40
1
 10
109.045942
 20
34.759398
 30
0.0
 10
108.834149
 20
35.549807
 30
0.0
 10
108.945021
 20
36.391978
 30
0.0
 10
109.354167
 20
37.100640
 30
0.0
  0
SPLINE
  5
30d
100
AcDbEntity
  8
pilot_hole_vectors
 62
1
100
AcDbSpline
 70
8
 71
3
 72
8
 73
4
 74
0
 40
0
 40
0
 40
0
 40
0
 40
1
 40
1
 40
1
 40
1
 10
109.354167
 20
37.100640
 30
0.0
 10
109.763314
 20
37.809303
 30
0.0
 10
110.437219
 20
38.326406
 30
0.0
 10
111.227630
 20
38.538192
 30
0.0
  0
SPLINE
  5
30e
100
AcDbEntity
  8
pilot_hole_vectors
 62
1
100
AcDbSpline
 70
8
 71
3
 72
8
 73
4
 74
0
 40
0
 40
0
 40
0
 40
0
 40
1
 40
1
 40
1
 40
1
 10
111.227630
 20
38.538192
 30
0.0
 10
112.018037
 20
38.749980
 30
0.0
 10
112.860204
 20
38.639104
 30
0.0
 10
113.568862
 20
38.229957
 30
0.0
  0
SPLINE
  5
30f
100
AcDbEntity
  8
pilot_hole_vectors
 62
1
100
AcDbSpline
 70
8
 71
3
 72
8
 73
4
 74
0
 40
0
 40
0
 40
0
 40
0
 40
1
 40
1
 40
1
 40
1
 10
113.568862
 20
38.229957
 30
0.0
 10
114.277520
 20
37.820810
 30
0.0
 10
114.794620
 20
37.146907
 30
0.0
 10
115.006405
 20
36.356499
 30
0.0
  0
LWPOLYLINE
  5
310
100
AcDbEntity
  8
pilot_hole_vectors
 62
1
100
AcDbPolyline
 90
2
 70
1
 10
134.081190
 20
36.356499
 30
0.0
 10
134.081190
 20
36.356499
 30
0.0
  0
SPLINE
  5
311
100
AcDbEntity
  8
pilot_hole_vectors
 62
1
100
AcDbSpline
 70
8
 71
3
 72
8
 73
4
 74
0
 40
0
 40
0
 40
0
 40
0
 40
1
 40
1
 40
1
 40
1
 10
162.598916
 20
104.063707
 30
0.0
 10
160.971905
 20
102.436343
 30
0.0
 10
158.337360
 20
102.436343
 30
0.0
 10
156.710349
 20
104.063707
 30
0.0
  0
SPLINE
  5
312
100
AcDbEntity
  8
pilot_hole_vectors
 62
1
100
AcDbSpline
 70
8
 71
3
 72
8
 73
4
 74
0
 40
0
 40
0
 40
0
 40
0
 40
1
 40
1
 40
1
 40
1
 10
156.710349
 20
104.063707
 30
0.0
 10
155.082985
 20
105.691071
 30
0.0
 10
155.081574
 20
108.325262
 30
0.0
 10
156.709643
 20
109.952626
 30
0.0
  0
SPLINE
  5
313
100
AcDbEntity
  8
pilot_hole_vectors
 62
1
100
AcDbSpline
 70
8
 71
3
 72
8
 73
4
 74
0
 40
0
 40
0
 40
0
 40
0
 40
1
 40
1
 40
1
 40
1
 10
156.709643
 20
109.952626
 30
0.0
 10
158.336655
 20
111.579990
 30
0.0
 10
160.971905
 20
111.579990
 30
0.0
 10
162.598916
 20
109.952626
 30
0.0
  0
SPLINE
  5
314
100
AcDbEntity
  8
pilot_hole_vectors
 62
1
100
AcDbSpline
 70
8
 71
3
 72
8
 73
4
 74
0
 40
0
 40
0
 40
0
 40
0
 40
1
 40
1
 40
1
 40
1
 10
162.598916
 20
109.952626
 30
0.0
 10
164.226985
 20
108.325615
 30
0.0
 10
164.226280
 20
105.691424
 30
0.0
 10
162.598916
 20
104.063707
 30
0.0
  0
LWPOLYLINE
  5
315
100
AcDbEntity
  8
pilot_hole_vectors
 62
1
100
AcDbPolyline
 90
2
 70
1
 10
115.006405
 20
36.356499
 30
0.0
 10
115.006405
 20
36.356499
 30
0.0
  0
SPLINE
  5
316
100
AcDbEntity
  8
pilot_hole_vectors
 62
1
100
AcDbSpline
 70
8
 71
3
 72
8
 73
4
 74
0
 40
0
 40
0
 40
0
 40
0
 40
1
 40
1
 40
1
 40
1
 10
143.548916
 20
104.063710
 30
0.0
 10
141.921905
 20
102.436346
 30
0.0
 10
139.288066
 20
102.436346
 30
0.0
 10
137.660349
 20
104.063710
 30
0.0
  0
SPLINE
  5
317
100
AcDbEntity
  8
pilot_hole_vectors
 62
1
100
AcDbSpline
 70
8
 71
3
 72
8
 73
4
 74
0
 40
0
 40
0
 40
0
 40
0
 40
1
 40
1
 40
1
 40
1
 10
137.660349
 20
104.063710
 30
0.0
 10
136.032985
 20
105.691074
 30
0.0
 10
136.031574
 20
108.325265
 30
0.0
 10
137.659643
 20
109.952629
 30
0.0
  0
SPLINE
  5
318
100
AcDbEntity
  8
pilot_hole_vectors
 62
1
100
AcDbSpline
 70
8
 71
3
 72
8
 73
4
 74
0
 40
0
 40
0
 40
0
 40
0
 40
1
 40
1
 40
1
 40
1
 10
137.659643
 20
109.952629
 30
0.0
 10
139.287360
 20
111.580699
 30
0.0
 10
141.921905
 20
111.580699
 30
0.0
 10
143.549621
 20
109.952629
 30
0.0
  0
SPLINE
  5
319
100
AcDbEntity
  8
pilot_hole_vectors
 62
1
100
AcDbSpline
 70
8
 71
3
 72
8
 73
4
 74
0
 40
0
 40
0
 40
0
 40
0
 40
1
 40
1
 40
1
 40
1
 10
143.549621
 20
109.952629
 30
0.0
 10
145.176985
 20
108.325265
 30
0.0
 10
145.176985
 20
105.691074
 30
0.0
 10
143.548916
 20
104.063710
 30
0.0
  0
LWPOLYLINE
  5
31a
100
AcDbEntity
  8
pilot_hole_vectors
 62
1
100
AcDbPolyline
 90
2
 70
1
 10
162.598916
 20
104.063707
 30
0.0
 10
162.598916
 20
104.063707
 30
0.0
  0
SPLINE
  5
31b
100
AcDbEntity
  8
pilot_hole_vectors
 62
1
100
AcDbSpline
 70
8
 71
3
 72
8
 73
4
 74
0
 40
0
 40
0
 40
0
 40
0
 40
1
 40
1
 40
1
 40
1
 10
124.498916
 20
104.063707
 30
0.0
 10
122.871905
 20
102.436343
 30
0.0
 10
120.237360
 20
102.436343
 30
0.0
 10
118.610349
 20
104.063707
 30
0.0
  0
SPLINE
  5
31c
100
AcDbEntity
  8
pilot_hole_vectors
 62
1
100
AcDbSpline
 70
8
 71
3
 72
8
 73
4
 74
0
 40
0
 40
0
 40
0
 40
0
 40
1
 40
1
 40
1
 40
1
 10
118.610349
 20
104.063707
 30
0.0
 10
116.982985
 20
105.691071
 30
0.0
 10
116.981574
 20
108.325262
 30
0.0
 10
118.609643
 20
109.952626
 30
0.0
  0
SPLINE
  5
31d
100
AcDbEntity
  8
pilot_hole_vectors
 62
1
100
AcDbSpline
 70
8
 71
3
 72
8
 73
4
 74
0
 40
0
 40
0
 40
0
 40
0
 40
1
 40
1
 40
1
 40
1
 10
118.609643
 20
109.952626
 30
0.0
 10
120.236655
 20
111.579990
 30
0.0
 10
122.871905
 20
111.579990
 30
0.0
 10
124.498916
 20
109.952626
 30
0.0
  0
SPLINE
  5
31e
100
AcDbEntity
  8
pilot_hole_vectors
 62
1
100
AcDbSpline
 70
8
 71
3
 72
8
 73
4
 74
0
 40
0
 40
0
 40
0
 40
0
 40
1
 40
1
 40
1
 40
1
 10
124.498916
 20
109.952626
 30
0.0
 10
126.126985
 20
108.325615
 30
0.0
 10
126.126280
 20
105.691424
 30
0.0
 10
124.498916
 20
104.063707
 30
0.0
  0
LWPOLYLINE
  5
31f
100
AcDbEntity
  8
pilot_hole_vectors
 62
1
100
AcDbPolyline
 90
2
 70
1
 10
143.548916
 20
104.063710
 30
0.0
 10
143.548916
 20
104.063710
 30
0.0
  0
SPLINE
  5
320
100
AcDbEntity
  8
pilot_hole_vectors
 62
1
100
AcDbSpline
 70
8
 71
3
 72
8
 73
4
 74
0
 40
0
 40
0
 40
0
 40
0
 40
1
 40
1
 40
1
 40
1
 10
105.448916
 20
104.063707
 30
0.0
 10
103.821552
 20
102.436343
 30
0.0
 10
101.188418
 20
102.436343
 30
0.0
 10
99.560702
 20
104.063707
 30
0.0
  0
SPLINE
  5
321
100
AcDbEntity
  8
pilot_hole_vectors
 62
1
100
AcDbSpline
 70
8
 71
3
 72
8
 73
4
 74
0
 40
0
 40
0
 40
0
 40
0
 40
1
 40
1
 40
1
 40
1
 10
99.560702
 20
104.063707
 30
0.0
 10
97.932985
 20
105.691071
 30
0.0
 10
97.931574
 20
108.325262
 30
0.0
 10
99.559996
 20
109.952626
 30
0.0
  0
SPLINE
  5
322
100
AcDbEntity
  8
pilot_hole_vectors
 62
1
100
AcDbSpline
 70
8
 71
3
 72
8
 73
4
 74
0
 40
0
 40
0
 40
0
 40
0
 40
1
 40
1
 40
1
 40
1
 10
99.559996
 20
109.952626
 30
0.0
 10
101.187360
 20
111.579990
 30
0.0
 10
103.821552
 20
111.579990
 30
0.0
 10
105.449621
 20
109.952626
 30
0.0
  0
SPLINE
  5
323
100
AcDbEntity
  8
pilot_hole_vectors
 62
1
100
AcDbSpline
 70
8
 71
3
 72
8
 73
4
 74
0
 40
0
 40
0
 40
0
 40
0
 40
1
 40
1
 40
1
 40
1
 10
105.449621
 20
109.952626
 30
0.0
 10
107.076985
 20
108.325615
 30
0.0
 10
107.076985
 20
105.691424
 30
0.0
 10
105.448916
 20
104.063707
 30
0.0
  0
LWPOLYLINE
  5
324
100
AcDbEntity
  8
pilot_hole_vectors
 62
1
100
AcDbPolyline
 90
2
 70
1
 10
124.498916
 20
104.063707
 30
0.0
 10
124.498916
 20
104.063707
 30
0.0
  0
SPLINE
  5
325
100
AcDbEntity
  8
pilot_hole_vectors
 62
1
100
AcDbSpline
 70
8
 71
3
 72
8
 73
4
 74
0
 40
0
 40
0
 40
0
 40
0
 40
1
 40
1
 40
1
 40
1
 10
162.598916
 20
85.013707
 30
0.0
 10
160.971905
 20
83.386343
 30
0.0
 10
158.337360
 20
83.386343
 30
0.0
 10
156.710349
 20
85.013707
 30
0.0
  0
SPLINE
  5
326
100
AcDbEntity
  8
pilot_hole_vectors
 62
1
100
AcDbSpline
 70
8
 71
3
 72
8
 73
4
 74
0
 40
0
 40
0
 40
0
 40
0
 40
1
 40
1
 40
1
 40
1
 10
156.710349
 20
85.013707
 30
0.0
 10
155.082985
 20
86.641071
 30
0.0
 10
155.081574
 20
89.275262
 30
0.0
 10
156.709643
 20
90.902626
 30
0.0
  0
SPLINE
  5
327
100
AcDbEntity
  8
pilot_hole_vectors
 62
1
100
AcDbSpline
 70
8
 71
3
 72
8
 73
4
 74
0
 40
0
 40
0
 40
0
 40
0
 40
1
 40
1
 40
1
 40
1
 10
156.709643
 20
90.902626
 30
0.0
 10
158.336655
 20
92.530696
 30
0.0
 10
160.971905
 20
92.530696
 30
0.0
 10
162.598916
 20
90.902626
 30
0.0
  0
SPLINE
  5
328
100
AcDbEntity
  8
pilot_hole_vectors
 62
1
100
AcDbSpline
 70
8
 71
3
 72
8
 73
4
 74
0
 40
0
 40
0
 40
0
 40
0
 40
1
 40
1
 40
1
 40
1
 10
162.598916
 20
90.902626
 30
0.0
 10
164.226985
 20
89.275262
 30
0.0
 10
164.226280
 20
86.641071
 30
0.0
 10
162.598916
 20
85.013707
 30
0.0
  0
LWPOLYLINE
  5
329
100
AcDbEntity
  8
pilot_hole_vectors
 62
1
100
AcDbPolyline
 90
2
 70
1
 10
105.448916
 20
104.063707
 30
0.0
 10
105.448916
 20
104.063707
 30
0.0
  0
SPLINE
  5
32a
100
AcDbEntity
  8
pilot_hole_vectors
 62
1
100
AcDbSpline
 70
8
 71
3
 72
8
 73
4
 74
0
 40
0
 40
0
 40
0
 40
0
 40
1
 40
1
 40
1
 40
1
 10
143.548916
 20
85.013707
 30
0.0
 10
141.921905
 20
83.386343
 30
0.0
 10
139.288066
 20
83.386343
 30
0.0
 10
137.660349
 20
85.013707
 30
0.0
  0
SPLINE
  5
32b
100
AcDbEntity
  8
pilot_hole_vectors
 62
1
100
AcDbSpline
 70
8
 71
3
 72
8
 73
4
 74
0
 40
0
 40
0
 40
0
 40
0
 40
1
 40
1
 40
1
 40
1
 10
137.660349
 20
85.013707
 30
0.0
 10
136.032985
 20
86.641071
 30
0.0
 10
136.031574
 20
89.275262
 30
0.0
 10
137.659643
 20
90.902626
 30
0.0
  0
SPLINE
  5
32c
100
AcDbEntity
  8
pilot_hole_vectors
 62
1
100
AcDbSpline
 70
8
 71
3
 72
8
 73
4
 74
0
 40
0
 40
0
 40
0
 40
0
 40
1
 40
1
 40
1
 40
1
 10
137.659643
 20
90.902626
 30
0.0
 10
139.287360
 20
92.530696
 30
0.0
 10
141.921905
 20
92.530696
 30
0.0
 10
143.549621
 20
90.902626
 30
0.0
  0
SPLINE
  5
32d
100
AcDbEntity
  8
pilot_hole_vectors
 62
1
100
AcDbSpline
 70
8
 71
3
 72
8
 73
4
 74
0
 40
0
 40
0
 40
0
 40
0
 40
1
 40
1
 40
1
 40
1
 10
143.549621
 20
90.902626
 30
0.0
 10
145.176985
 20
89.275262
 30
0.0
 10
145.176985
 20
86.641071
 30
0.0
 10
143.548916
 20
85.013707
 30
0.0
  0
LWPOLYLINE
  5
32e
100
AcDbEntity
  8
pilot_hole_vectors
 62
1
100
AcDbPolyline
 90
2
 70
1
 10
162.598916
 20
85.013707
 30
0.0
 10
162.598916
 20
85.013707
 30
0.0
  0
SPLINE
  5
32f
100
AcDbEntity
  8
pilot_hole_vectors
 62
1
100
AcDbSpline
 70
8
 71
3
 72
8
 73
4
 74
0
 40
0
 40
0
 40
0
 40
0
 40
1
 40
1
 40
1
 40
1
 10
124.498916
 20
85.013707
 30
0.0
 10
122.871905
 20
83.386343
 30
0.0
 10
120.237360
 20
83.386343
 30
0.0
 10
118.610349
 20
85.013707
 30
0.0
  0
SPLINE
  5
330
100
AcDbEntity
  8
pilot_hole_vectors
 62
1
100
AcDbSpline
 70
8
 71
3
 72
8
 73
4
 74
0
 40
0
 40
0
 40
0
 40
0
 40
1
 40
1
 40
1
 40
1
 10
118.610349
 20
85.013707
 30
0.0
 10
116.982985
 20
86.641071
 30
0.0
 10
116.981574
 20
89.275262
 30
0.0
 10
118.609643
 20
90.902626
 30
0.0
  0
SPLINE
  5
331
100
AcDbEntity
  8
pilot_hole_vectors
 62
1
100
AcDbSpline
 70
8
 71
3
 72
8
 73
4
 74
0
 40
0
 40
0
 40
0
 40
0
 40
1
 40
1
 40
1
 40
1
 10
118.609643
 20
90.902626
 30
0.0
 10
120.236655
 20
92.530696
 30
0.0
 10
122.871905
 20
92.530696
 30
0.0
 10
124.498916
 20
90.902626
 30
0.0
  0
SPLINE
  5
332
100
AcDbEntity
  8
pilot_hole_vectors
 62
1
100
AcDbSpline
 70
8
 71
3
 72
8
 73
4
 74
0
 40
0
 40
0
 40
0
 40
0
 40
1
 40
1
 40
1
 40
1
 10
124.498916
 20
90.902626
 30
0.0
 10
126.126985
 20
89.275262
 30
0.0
 10
126.126280
 20
86.641071
 30
0.0
 10
124.498916
 20
85.013707
 30
0.0
  0
LWPOLYLINE
  5
333
100
AcDbEntity
  8
pilot_hole_vectors
 62
1
100
AcDbPolyline
 90
2
 70
1
 10
143.548916
 20
85.013707
 30
0.0
 10
143.548916
 20
85.013707
 30
0.0
  0
SPLINE
  5
334
100
AcDbEntity
  8
pilot_hole_vectors
 62
1
100
AcDbSpline
 70
8
 71
3
 72
8
 73
4
 74
0
 40
0
 40
0
 40
0
 40
0
 40
1
 40
1
 40
1
 40
1
 10
105.448916
 20
85.013707
 30
0.0
 10
103.821552
 20
83.386343
 30
0.0
 10
101.187007
 20
83.386343
 30
0.0
 10
99.559996
 20
85.013707
 30
0.0
  0
SPLINE
  5
335
100
AcDbEntity
  8
pilot_hole_vectors
 62
1
100
AcDbSpline
 70
8
 71
3
 72
8
 73
4
 74
0
 40
0
 40
0
 40
0
 40
0
 40
1
 40
1
 40
1
 40
1
 10
99.559996
 20
85.013707
 30
0.0
 10
97.933338
 20
86.641071
 30
0.0
 10
97.931574
 20
89.275262
 30
0.0
 10
99.559291
 20
90.902626
 30
0.0
  0
SPLINE
  5
336
100
AcDbEntity
  8
pilot_hole_vectors
 62
1
100
AcDbSpline
 70
8
 71
3
 72
8
 73
4
 74
0
 40
0
 40
0
 40
0
 40
0
 40
1
 40
1
 40
1
 40
1
 10
99.559291
 20
90.902626
 30
0.0
 10
101.186655
 20
92.530696
 30
0.0
 10
103.821552
 20
92.530696
 30
0.0
 10
105.448916
 20
90.902626
 30
0.0
  0
SPLINE
  5
337
100
AcDbEntity
  8
pilot_hole_vectors
 62
1
100
AcDbSpline
 70
8
 71
3
 72
8
 73
4
 74
0
 40
0
 40
0
 40
0
 40
0
 40
1
 40
1
 40
1
 40
1
 10
105.448916
 20
90.902626
 30
0.0
 10
107.076985
 20
89.275615
 30
0.0
 10
107.076280
 20
86.641424
 30
0.0
 10
105.448916
 20
85.013707
 30
0.0
  0
LWPOLYLINE
  5
338
100
AcDbEntity
  8
pilot_hole_vectors
 62
1
100
AcDbPolyline
 90
2
 70
1
 10
124.498916
 20
85.013707
 30
0.0
 10
124.498916
 20
85.013707
 30
0.0
  0
SPLINE
  5
339
100
AcDbEntity
  8
pilot_hole_vectors
 62
1
100
AcDbSpline
 70
8
 71
3
 72
8
 73
4
 74
0
 40
0
 40
0
 40
0
 40
0
 40
1
 40
1
 40
1
 40
1
 10
162.598916
 20
65.963707
 30
0.0
 10
160.971905
 20
64.336343
 30
0.0
 10
158.337360
 20
64.336343
 30
0.0
 10
156.710349
 20
65.963707
 30
0.0
  0
SPLINE
  5
33a
100
AcDbEntity
  8
pilot_hole_vectors
 62
1
100
AcDbSpline
 70
8
 71
3
 72
8
 73
4
 74
0
 40
0
 40
0
 40
0
 40
0
 40
1
 40
1
 40
1
 40
1
 10
156.710349
 20
65.963707
 30
0.0
 10
155.082985
 20
67.591071
 30
0.0
 10
155.081574
 20
70.225262
 30
0.0
 10
156.709643
 20
71.852626
 30
0.0
  0
SPLINE
  5
33b
100
AcDbEntity
  8
pilot_hole_vectors
 62
1
100
AcDbSpline
 70
8
 71
3
 72
8
 73
4
 74
0
 40
0
 40
0
 40
0
 40
0
 40
1
 40
1
 40
1
 40
1
 10
156.709643
 20
71.852626
 30
0.0
 10
158.336655
 20
73.480696
 30
0.0
 10
160.971905
 20
73.480696
 30
0.0
 10
162.598916
 20
71.852626
 30
0.0
  0
SPLINE
  5
33c
100
AcDbEntity
  8
pilot_hole_vectors
 62
1
100
AcDbSpline
 70
8
 71
3
 72
8
 73
4
 74
0
 40
0
 40
0
 40
0
 40
0
 40
1
 40
1
 40
1
 40
1
 10
162.598916
 20
71.852626
 30
0.0
 10
164.226985
 20
70.225262
 30
0.0
 10
164.226280
 20
67.591071
 30
0.0
 10
162.598916
 20
65.963707
 30
0.0
  0
LWPOLYLINE
  5
33d
100
AcDbEntity
  8
pilot_hole_vectors
 62
1
100
AcDbPolyline
 90
2
 70
1
 10
105.448916
 20
85.013707
 30
0.0
 10
105.448916
 20
85.013707
 30
0.0
  0
SPLINE
  5
33e
100
AcDbEntity
  8
pilot_hole_vectors
 62
1
100
AcDbSpline
 70
8
 71
3
 72
8
 73
4
 74
0
 40
0
 40
0
 40
0
 40
0
 40
1
 40
1
 40
1
 40
1
 10
143.548916
 20
65.963707
 30
0.0
 10
141.921905
 20
64.336343
 30
0.0
 10
139.288066
 20
64.336343
 30
0.0
 10
137.660349
 20
65.963707
 30
0.0
  0
SPLINE
  5
33f
100
AcDbEntity
  8
pilot_hole_vectors
 62
1
100
AcDbSpline
 70
8
 71
3
 72
8
 73
4
 74
0
 40
0
 40
0
 40
0
 40
0
 40
1
 40
1
 40
1
 40
1
 10
137.660349
 20
65.963707
 30
0.0
 10
136.032985
 20
67.591071
 30
0.0
 10
136.031574
 20
70.225262
 30
0.0
 10
137.659643
 20
71.852626
 30
0.0
  0
SPLINE
  5
340
100
AcDbEntity
  8
pilot_hole_vectors
 62
1
100
AcDbSpline
 70
8
 71
3
 72
8
 73
4
 74
0
 40
0
 40
0
 40
0
 40
0
 40
1
 40
1
 40
1
 40
1
 10
137.659643
 20
71.852626
 30
0.0
 10
139.287360
 20
73.480696
 30
0.0
 10
141.921905
 20
73.480696
 30
0.0
 10
143.549621
 20
71.852626
 30
0.0
  0
SPLINE
  5
341
100
AcDbEntity
  8
pilot_hole_vectors
 62
1
100
AcDbSpline
 70
8
 71
3
 72
8
 73
4
 74
0
 40
0
 40
0
 40
0
 40
0
 40
1
 40
1
 40
1
 40
1
 10
143.549621
 20
71.852626
 30
0.0
 10
145.176985
 20
70.225262
 30
0.0
 10
145.176985
 20
67.591071
 30
0.0
 10
143.548916
 20
65.963707
 30
0.0
  0
LWPOLYLINE
  5
342
100
AcDbEntity
  8
pilot_hole_vectors
 62
1
100
AcDbPolyline
 90
2
 70
1
 10
162.598916
 20
65.963707
 30
0.0
 10
162.598916
 20
65.963707
 30
0.0
  0
SPLINE
  5
343
100
AcDbEntity
  8
pilot_hole_vectors
 62
1
100
AcDbSpline
 70
8
 71
3
 72
8
 73
4
 74
0
 40
0
 40
0
 40
0
 40
0
 40
1
 40
1
 40
1
 40
1
 10
124.498916
 20
65.963707
 30
0.0
 10
122.871905
 20
64.336343
 30
0.0
 10
120.237360
 20
64.336343
 30
0.0
 10
118.610349
 20
65.963707
 30
0.0
  0
SPLINE
  5
344
100
AcDbEntity
  8
pilot_hole_vectors
 62
1
100
AcDbSpline
 70
8
 71
3
 72
8
 73
4
 74
0
 40
0
 40
0
 40
0
 40
0
 40
1
 40
1
 40
1
 40
1
 10
118.610349
 20
65.963707
 30
0.0
 10
116.982985
 20
67.591071
 30
0.0
 10
116.981574
 20
70.225262
 30
0.0
 10
118.609643
 20
71.852626
 30
0.0
  0
SPLINE
  5
345
100
AcDbEntity
  8
pilot_hole_vectors
 62
1
100
AcDbSpline
 70
8
 71
3
 72
8
 73
4
 74
0
 40
0
 40
0
 40
0
 40
0
 40
1
 40
1
 40
1
 40
1
 10
118.609643
 20
71.852626
 30
0.0
 10
120.236655
 20
73.480696
 30
0.0
 10
122.871905
 20
73.480696
 30
0.0
 10
124.498916
 20
71.852626
 30
0.0
  0
SPLINE
  5
346
100
AcDbEntity
  8
pilot_hole_vectors
 62
1
100
AcDbSpline
 70
8
 71
3
 72
8
 73
4
 74
0
 40
0
 40
0
 40
0
 40
0
 40
1
 40
1
 40
1
 40
1
 10
124.498916
 20
71.852626
 30
0.0
 10
126.126985
 20
70.225262
 30
0.0
 10
126.126280
 20
67.591071
 30
0.0
 10
124.498916
 20
65.963707
 30
0.0
  0
LWPOLYLINE
  5
347
100
AcDbEntity
  8
pilot_hole_vectors
 62
1
100
AcDbPolyline
 90
2
 70
1
 10
143.548916
 20
65.963707
 30
0.0
 10
143.548916
 20
65.963707
 30
0.0
  0
SPLINE
  5
348
100
AcDbEntity
  8
pilot_hole_vectors
 62
1
100
AcDbSpline
 70
8
 71
3
 72
8
 73
4
 74
0
 40
0
 40
0
 40
0
 40
0
 40
1
 40
1
 40
1
 40
1
 10
105.448916
 20
65.963707
 30
0.0
 10
103.821552
 20
64.336343
 30
0.0
 10
101.187007
 20
64.336343
 30
0.0
 10
99.559996
 20
65.963707
 30
0.0
  0
SPLINE
  5
349
100
AcDbEntity
  8
pilot_hole_vectors
 62
1
100
AcDbSpline
 70
8
 71
3
 72
8
 73
4
 74
0
 40
0
 40
0
 40
0
 40
0
 40
1
 40
1
 40
1
 40
1
 10
99.559996
 20
65.963707
 30
0.0
 10
97.933338
 20
67.591071
 30
0.0
 10
97.931574
 20
70.225262
 30
0.0
 10
99.559291
 20
71.852626
 30
0.0
  0
SPLINE
  5
34a
100
AcDbEntity
  8
pilot_hole_vectors
 62
1
100
AcDbSpline
 70
8
 71
3
 72
8
 73
4
 74
0
 40
0
 40
0
 40
0
 40
0
 40
1
 40
1
 40
1
 40
1
 10
99.559291
 20
71.852626
 30
0.0
 10
101.186655
 20
73.480696
 30
0.0
 10
103.821552
 20
73.480696
 30
0.0
 10
105.448916
 20
71.852626
 30
0.0
  0
SPLINE
  5
34b
100
AcDbEntity
  8
pilot_hole_vectors
 62
1
100
AcDbSpline
 70
8
 71
3
 72
8
 73
4
 74
0
 40
0
 40
0
 40
0
 40
0
 40
1
 40
1
 40
1
 40
1
 10
105.448916
 20
71.852626
 30
0.0
 10
107.076985
 20
70.225615
 30
0.0
 10
107.076280
 20
67.591424
 30
0.0
 10
105.448916
 20
65.963707
 30
0.0
  0
LWPOLYLINE
  5
34c
100
AcDbEntity
  8
pilot_hole_vectors
 62
1
100
AcDbPolyline
 90
2
 70
1
 10
124.498916
 20
65.963707
 30
0.0
 10
124.498916
 20
65.963707
 30
0.0
  0
SPLINE
  5
34d
100
AcDbEntity
  8
pilot_hole_vectors
 62
1
100
AcDbSpline
 70
8
 71
3
 72
8
 73
4
 74
0
 40
0
 40
0
 40
0
 40
0
 40
1
 40
1
 40
1
 40
1
 10
105.448916
 20
46.913707
 30
0.0
 10
103.821552
 20
45.286343
 30
0.0
 10
101.187007
 20
45.286343
 30
0.0
 10
99.559996
 20
46.913707
 30
0.0
  0
SPLINE
  5
34e
100
AcDbEntity
  8
pilot_hole_vectors
 62
1
100
AcDbSpline
 70
8
 71
3
 72
8
 73
4
 74
0
 40
0
 40
0
 40
0
 40
0
 40
1
 40
1
 40
1
 40
1
 10
99.559996
 20
46.913707
 30
0.0
 10
97.932985
 20
48.540718
 30
0.0
 10
97.931574
 20
51.175262
 30
0.0
 10
99.559291
 20
52.802274
 30
0.0
  0
SPLINE
  5
34f
100
AcDbEntity
  8
pilot_hole_vectors
 62
1
100
AcDbSpline
 70
8
 71
3
 72
8
 73
4
 74
0
 40
0
 40
0
 40
0
 40
0
 40
1
 40
1
 40
1
 40
1
 10
99.559291
 20
52.802274
 30
0.0
 10
101.186655
 20
54.430343
 30
0.0
 10
103.821552
 20
54.430343
 30
0.0
 10
105.448916
 20
52.802274
 30
0.0
  0
SPLINE
  5
350
100
AcDbEntity
  8
pilot_hole_vectors
 62
1
100
AcDbSpline
 70
8
 71
3
 72
8
 73
4
 74
0
 40
0
 40
0
 40
0
 40
0
 40
1
 40
1
 40
1
 40
1
 10
105.448916
 20
52.802274
 30
0.0
 10
107.076985
 20
51.175262
 30
0.0
 10
107.076280
 20
48.541424
 30
0.0
 10
105.448916
 20
46.913707
 30
0.0
  0
LWPOLYLINE
  5
351
100
AcDbEntity
  8
pilot_hole_vectors
 62
1
100
AcDbPolyline
 90
2
 70
1
 10
105.448916
 20
65.963707
 30
0.0
 10
105.448916
 20
65.963707
 30
0.0
  0
SPLINE
  5
352
100
AcDbEntity
  8
pilot_hole_vectors
 62
1
100
AcDbSpline
 70
8
 71
3
 72
8
 73
4
 74
0
 40
0
 40
0
 40
0
 40
0
 40
1
 40
1
 40
1
 40
1
 10
124.498916
 20
46.913707
 30
0.0
 10
122.871905
 20
45.286343
 30
0.0
 10
120.237360
 20
45.286343
 30
0.0
 10
118.610349
 20
46.913707
 30
0.0
  0
SPLINE
  5
353
100
AcDbEntity
  8
pilot_hole_vectors
 62
1
100
AcDbSpline
 70
8
 71
3
 72
8
 73
4
 74
0
 40
0
 40
0
 40
0
 40
0
 40
1
 40
1
 40
1
 40
1
 10
118.610349
 20
46.913707
 30
0.0
 10
116.982985
 20
48.540718
 30
0.0
 10
116.981574
 20
51.175262
 30
0.0
 10
118.609643
 20
52.802274
 30
0.0
  0
SPLINE
  5
354
100
AcDbEntity
  8
pilot_hole_vectors
 62
1
100
AcDbSpline
 70
8
 71
3
 72
8
 73
4
 74
0
 40
0
 40
0
 40
0
 40
0
 40
1
 40
1
 40
1
 40
1
 10
118.609643
 20
52.802274
 30
0.0
 10
120.236655
 20
54.430343
 30
0.0
 10
122.871905
 20
54.430343
 30
0.0
 10
124.498916
 20
52.802274
 30
0.0
  0
SPLINE
  5
355
100
AcDbEntity
  8
pilot_hole_vectors
 62
1
100
AcDbSpline
 70
8
 71
3
 72
8
 73
4
 74
0
 40
0
 40
0
 40
0
 40
0
 40
1
 40
1
 40
1
 40
1
 10
124.498916
 20
52.802274
 30
0.0
 10
126.126985
 20
51.175262
 30
0.0
 10
126.126280
 20
48.541424
 30
0.0
 10
124.498916
 20
46.913707
 30
0.0
  0
LWPOLYLINE
  5
356
100
AcDbEntity
  8
pilot_hole_vectors
 62
1
100
AcDbPolyline
 90
2
 70
1
 10
105.448916
 20
46.913707
 30
0.0
 10
105.448916
 20
46.913707
 30
0.0
  0
SPLINE
  5
357
100
AcDbEntity
  8
pilot_hole_vectors
 62
1
100
AcDbSpline
 70
8
 71
3
 72
8
 73
4
 74
0
 40
0
 40
0
 40
0
 40
0
 40
1
 40
1
 40
1
 40
1
 10
143.548916
 20
46.913707
 30
0.0
 10
141.921905
 20
45.286343
 30
0.0
 10
139.288066
 20
45.286343
 30
0.0
 10
137.660349
 20
46.913707
 30
0.0
  0
SPLINE
  5
358
100
AcDbEntity
  8
pilot_hole_vectors
 62
1
100
AcDbSpline
 70
8
 71
3
 72
8
 73
4
 74
0
 40
0
 40
0
 40
0
 40
0
 40
1
 40
1
 40
1
 40
1
 10
137.660349
 20
46.913707
 30
0.0
 10
136.032985
 20
48.540718
 30
0.0
 10
136.031574
 20
51.175262
 30
0.0
 10
137.659643
 20
52.802274
 30
0.0
  0
SPLINE
  5
359
100
AcDbEntity
  8
pilot_hole_vectors
 62
1
100
AcDbSpline
 70
8
 71
3
 72
8
 73
4
 74
0
 40
0
 40
0
 40
0
 40
0
 40
1
 40
1
 40
1
 40
1
 10
137.659643
 20
52.802274
 30
0.0
 10
139.287360
 20
54.430343
 30
0.0
 10
141.921905
 20
54.430343
 30
0.0
 10
143.549621
 20
52.802274
 30
0.0
  0
SPLINE
  5
35a
100
AcDbEntity
  8
pilot_hole_vectors
 62
1
100
AcDbSpline
 70
8
 71
3
 72
8
 73
4
 74
0
 40
0
 40
0
 40
0
 40
0
 40
1
 40
1
 40
1
 40
1
 10
143.549621
 20
52.802274
 30
0.0
 10
145.176985
 20
51.175262
 30
0.0
 10
145.176985
 20
48.541424
 30
0.0
 10
143.548916
 20
46.913707
 30
0.0
  0
LWPOLYLINE
  5
35b
100
AcDbEntity
  8
pilot_hole_vectors
 62
1
100
AcDbPolyline
 90
2
 70
1
 10
124.498916
 20
46.913707
 30
0.0
 10
124.498916
 20
46.913707
 30
0.0
  0
SPLINE
  5
35c
100
AcDbEntity
  8
pilot_hole_vectors
 62
1
100
AcDbSpline
 70
8
 71
3
 72
8
 73
4
 74
0
 40
0
 40
0
 40
0
 40
0
 40
1
 40
1
 40
1
 40
1
 10
162.598916
 20
46.913707
 30
0.0
 10
160.971905
 20
45.286343
 30
0.0
 10
158.337360
 20
45.286343
 30
0.0
 10
156.710349
 20
46.913707
 30
0.0
  0
SPLINE
  5
35d
100
AcDbEntity
  8
pilot_hole_vectors
 62
1
100
AcDbSpline
 70
8
 71
3
 72
8
 73
4
 74
0
 40
0
 40
0
 40
0
 40
0
 40
1
 40
1
 40
1
 40
1
 10
156.710349
 20
46.913707
 30
0.0
 10
155.082985
 20
48.540718
 30
0.0
 10
155.081574
 20
51.175262
 30
0.0
 10
156.709643
 20
52.802274
 30
0.0
  0
SPLINE
  5
35e
100
AcDbEntity
  8
pilot_hole_vectors
 62
1
100
AcDbSpline
 70
8
 71
3
 72
8
 73
4
 74
0
 40
0
 40
0
 40
0
 40
0
 40
1
 40
1
 40
1
 40
1
 10
156.709643
 20
52.802274
 30
0.0
 10
158.336655
 20
54.430343
 30
0.0
 10
160.971905
 20
54.430343
 30
0.0
 10
162.598916
 20
52.802274
 30
0.0
  0
SPLINE
  5
35f
100
AcDbEntity
  8
pilot_hole_vectors
 62
1
100
AcDbSpline
 70
8
 71
3
 72
8
 73
4
 74
0
 40
0
 40
0
 40
0
 40
0
 40
1
 40
1
 40
1
 40
1
 10
162.598916
 20
52.802274
 30
0.0
 10
164.226985
 20
51.175262
 30
0.0
 10
164.226280
 20
48.541424
 30
0.0
 10
162.598916
 20
46.913707
 30
0.0
  0
LWPOLYLINE
  5
360
100
AcDbEntity
  8
pilot_hole_vectors
 62
1
100
AcDbPolyline
 90
2
 70
1
 10
143.548916
 20
46.913707
 30
0.0
 10
143.548916
 20
46.913707
 30
0.0
  0
LWPOLYLINE
  5
361
100
AcDbEntity
  8
pilot_hole_vectors
 62
1
100
AcDbPolyline
 90
2
 70
1
 10
162.598916
 20
46.913707
 30
0.0
 10
162.598916
 20
46.913707
 30
0.0
  0
ENDSEC
  0
SECTION
  2
OBJECTS
  0
DICTIONARY
  5
C
330
0
100
AcDbDictionary
  3
ACAD_GROUP
350
D
  3
ACAD_MLINESTYLE
350
17
  0
DICTIONARY
  5
D
330
C
100
AcDbDictionary
  0
DICTIONARY
  5
1A
330
C
100
AcDbDictionary
  0
DICTIONARY
  5
17
330
C
100
AcDbDictionary
  3
STANDARD
350
18
  0
DICTIONARY
  5
19
330
C
100
AcDbDictionary
  0
ENDSEC
  0
EOF
